<?xml version="1.0" standalone="no"?>
<!DOCTYPE svg PUBLIC "-//W3C//DTD SVG 1.1//EN" "http://www.w3.org/Graphics/SVG/1.1/DTD/svg11.dtd" >
<svg>
<metadata>
Created by FontForge 20090914 at Mon Aug  6 12:48:12 2012
 By www-data
</metadata>
<defs>
<font id="Maritime_Tropical" horiz-adv-x="975" >
  <font-face 
    font-family="Maritime Tropical"
    font-weight="500"
    font-stretch="normal"
    units-per-em="2048"
    panose-1="2 0 6 3 0 0 0 0 0 0"
    ascent="1500"
    descent="-548"
    x-height="976.001"
    cap-height="1493"
    bbox="-129.838 -940.932 1954.16 2163.26"
    underline-thickness="102"
    underline-position="-205"
    unicode-range="U+0020-U+20AC"
  />
<missing-glyph horiz-adv-x="748" 
d="M68 0v1365h544v-1365h-544zM136 68h408v1229h-408v-1229z" />
    <glyph glyph-name=".notdef" horiz-adv-x="748" 
d="M68 0v1365h544v-1365h-544zM136 68h408v1229h-408v-1229z" />
    <glyph glyph-name="space" unicode=" " horiz-adv-x="703" 
 />
    <glyph glyph-name="exclam" unicode="!" horiz-adv-x="440" 
d="M153 1411c-0.666992 39.333 10.835 64.0049 34.502 74.0049s47.167 6.16699 70.5 -11.5s33.666 -39.834 30.999 -66.501c-6.66699 -78.667 -9 -253.334 -7 -524.001s5.66699 -446 11 -526c2.66699 -34 -8 -60.333 -32 -79s-48.333 -20.834 -73 -6.50098
s-36.334 43.5 -35.001 87.5c2 73.333 3 244.666 3 513.999s-1 448.666 -3 537.999zM140.002 111.005c1.33301 12.667 7.16504 24.1699 17.498 34.5029s22 17.666 35 21.999s26.667 5.66602 41 3.99902s25.833 -7.16699 34.5 -16.5
c14.667 -14.667 24.334 -33.334 29.001 -56.001s3.16699 -44 -4.5 -64s-21.167 -33.333 -40.5 -40c-28.667 -9.33301 -55.167 -0.333008 -79.5 27s-35.166 57 -32.499 89z" />
    <glyph glyph-name="quotedbl" unicode="&#x22;" horiz-adv-x="663" 
d="M350 1465c-0.666992 25.333 10.333 43.168 33 53.501s45.667 11 69 2s35 -24.167 35 -45.5c0 -36 11.333 -87.667 34 -155s47 -116 73 -146c21.333 -24.667 22.333 -47.667 3 -69c-17.333 -20 -40 -27.667 -68 -23c-20 3.33301 -37 13 -51 29
c-24.667 28 -52 84.167 -82 168.5s-45.333 146.166 -46 185.499zM67 1460c-0.666992 25.333 10.499 43.332 33.499 53.999s46 11.334 69 2.00098s34.5 -24.666 34.5 -45.999c0 -35.333 11.333 -86.833 34 -154.5s47.334 -116.5 74.001 -146.5c21.333 -24 22.333 -47 3 -69
c-17.333 -19.333 -40.333 -27 -69 -23c-19.333 3.33301 -36 13 -50 29c-24.667 28 -52.167 84.167 -82.5 168.5s-45.833 146.166 -46.5 185.499z" />
    <glyph glyph-name="numbersign" unicode="#" horiz-adv-x="1084" 
d="M279 1368c6 44.667 24.667 69.0059 56 73.0059c24.667 3.33301 46 -5.66699 64 -27c14.667 -18 19 -37.667 13 -59c-10.667 -39.333 -30.667 -148.333 -60 -327c130 -0.666992 254.667 -0.666992 374 0l54 340c6 44 24.667 68 56 72
c24.667 3.33301 45.667 -5.66699 63 -27c15.333 -18 20 -37.667 14 -59c-10.667 -39.333 -30.667 -147.333 -60 -324c94.667 1.33301 158.334 3.66602 191.001 6.99902c26 2.66699 47.833 -7.66602 65.5 -30.999s21.667 -46.833 12 -70.5s-34.167 -35.167 -73.5 -34.5
c-42.667 0.666992 -114.667 1 -216 1l-53 -331c113.333 2 188.333 4.66699 225 8c26 2.66699 47.833 -7.66602 65.5 -30.999s21.667 -46.833 12 -70.5s-34.167 -35.167 -73.5 -34.5c-47.333 1.33301 -130 1.66602 -248 0.999023c-32 -212 -50.667 -343.333 -56 -394
c-3.33301 -34.667 -18.333 -59.167 -45 -73.5s-50.834 -12.333 -72.501 6s-28.167 49.166 -19.5 92.499c8.66699 46 29.667 169 63 369l-371 -2c-32 -210.667 -50.333 -341 -55 -391c-3.33301 -34.667 -18.333 -59.167 -45 -73.5s-51 -12.5 -73 5.5s-28.667 48.667 -20 92
c8.66699 46 29.667 167.667 63 365c-68 -0.666992 -116.333 -1.33398 -145 -2.00098c-44 -1.33301 -73.167 10.167 -87.5 34.5s-12.333 48.666 6 72.999s44.833 35.166 79.5 32.499c30.667 -2 87 -4 169 -6l53 327c-86 -1.33301 -146 -2.33301 -180 -3
c-44 -1.33301 -73.167 10.167 -87.5 34.5s-12.333 48.666 6 72.999s44.833 35.166 79.5 32.499c36 -2.66699 104 -4.66699 204 -6c28 174 45.667 286.667 53 338zM706 902.006c-122 0 -247.333 -0.667969 -376 -2.00098l-52 -329
c126 -1.33301 250.333 -1.66602 373 -0.999023z" />
    <glyph glyph-name="dollar" unicode="$" 
d="M828 1289c-66 32 -160.995 41.6709 -284.995 29.0039c-1.33301 -138.667 -1.33301 -328.667 0 -570l35 -28l96.5 -78.5l84 -71.5c34.333 -30 60.666 -54.667 78.999 -74s36.166 -40.5 53.499 -63.5s29.333 -43.5 36 -61.5c15.333 -40 23.333 -77.5 24 -112.5
s-4.5 -65.333 -15.5 -91s-26.667 -48.834 -47 -69.501s-43.333 -38 -69 -52s-54 -25.833 -85 -35.5s-61.167 -17 -90.5 -22s-59.666 -8.5 -90.999 -10.5c1.33301 -29.333 2.33301 -50.333 3 -63c2.66699 -34 -8 -60.333 -32 -79s-48.333 -20.834 -73 -6.50098
s-36.334 43.5 -35.001 87.5c0.666992 12.667 1 33.667 1 63c-167.333 18 -289 86.667 -365 206c-25.333 40 -26.666 78.667 -3.99902 116c16 26 36 39.667 60 41c28 2 46 -15 54 -51v-2c9.33301 -46.667 37.666 -86.5 84.999 -119.5s104.333 -56.167 171 -69.5
c0 146.667 -0.333008 342.334 -1 587.001l-125.5 103c-35 30 -71.5 63.167 -109.5 99.5s-69.5 71.666 -94.5 105.999s-43.5 67.166 -55.5 98.499c-4.66699 13.333 -7 28.666 -7 45.999s3 36.166 9 56.499s17.333 41.166 34 62.499s37.667 40.333 63 57
c76 49.333 170.333 84.666 283 105.999c-0.666992 36.667 -1.33398 63.334 -2.00098 80.001c-0.666992 39.333 11 64 35 74s47.5 6.16699 70.5 -11.5s33.167 -39.834 30.5 -66.501c-0.666992 -11.333 -1.33398 -30.666 -2.00098 -57.999
c61.333 4 119.666 3.83301 174.999 -0.5s100.333 -12.166 135 -23.499c35.333 -11.333 54.333 -33 57 -65c2.66699 -27.333 -6 -47.666 -26 -60.999c-17.333 -12 -37 -12.667 -59 -2zM415.005 1296c-71.333 -16 -129.999 -36.5 -175.999 -61.5s-68 -49.5 -66 -73.5
c4 -41.333 27.167 -87.333 69.5 -138s100.5 -107.667 174.5 -171c-0.666992 175.333 -1.33398 323.333 -2.00098 444zM551.006 90.0039c38 1.33301 73.168 6.83301 105.501 16.5s60.833 23.167 85.5 40.5s43.167 39.833 55.5 67.5s16.166 59.167 11.499 94.5
c-3.33301 32 -27.333 70 -72 114s-109 99.333 -193 166c2 -200 4.33301 -366.333 7 -499z" />
    <glyph glyph-name="percent" unicode="%" horiz-adv-x="1209" 
d="M876 360c-21.333 -16.667 -35.8311 -36.9961 -43.498 -60.9961s-9.16699 -46.833 -4.5 -68.5s14.667 -41.334 30 -59.001s34 -28.834 56 -33.501c37.333 -8.66699 71.666 -2.33398 102.999 18.999s49.666 53 54.999 95c2.66699 23.333 -2.5 45.166 -15.5 65.499
s-29.5 36 -49.5 47s-42.333 16.5 -67 16.5s-46 -7 -64 -21zM722.002 338.004c8.66699 41.333 30.168 75.499 64.501 102.499s72.333 43.5 114 49.5s84.334 2.83301 128.001 -9.5s78.834 -33.166 105.501 -62.499c26 -30 41.667 -66.667 47 -110
s1.66602 -84.833 -11.001 -124.5s-33.834 -75.334 -63.501 -107.001s-63.834 -51.167 -102.501 -58.5c-40.667 -8 -80.334 -6.16699 -119.001 5.5s-72.167 30.834 -100.5 57.501s-48.666 62.5 -60.999 107.5s-12.833 94.833 -1.5 149.5zM187.003 1382
c-21.333 -16 -35.8311 -35.999 -43.498 -59.999s-9.16699 -47 -4.5 -69s14.667 -41.833 30 -59.5s34 -28.834 56 -33.501c37.333 -8 71.666 -1.33301 102.999 20s49.666 52.666 54.999 93.999c2.66699 23.333 -2.5 45.333 -15.5 66s-29.5 36.334 -49.5 47.001
s-42.333 16 -67 16s-46 -7 -64 -21zM33.0049 1360c8.66699 42 30.168 76.333 64.501 103s72.333 43.167 114 49.5s84.334 3.33301 128.001 -9s78.834 -33.5 105.501 -63.5c26 -30 41.667 -66.667 47 -110s1.66602 -84.833 -11.001 -124.5s-33.834 -75.167 -63.501 -106.5
s-63.834 -51 -102.501 -59c-40.667 -7.33301 -80.334 -5.33301 -119.001 6s-72.167 30.333 -100.5 57s-48.666 62.667 -60.999 108s-12.833 95 -1.5 149zM766.006 1425c14 42.667 36.6689 63.333 68.002 62c24.667 -1.33301 43.667 -13.666 57 -36.999
c12 -20 13.333 -40.333 4 -61c-28 -60.667 -107.833 -282.334 -239.5 -665.001s-207.834 -612 -228.501 -688c-9.33301 -34 -29.333 -55.333 -60 -64c-28 -8 -50.333 -2 -67 18c-18.667 22 -20.334 53.333 -5.00098 94c27.333 71.333 106 292.333 236 663
s208.333 596.667 235 678z" />
    <glyph glyph-name="ampersand" unicode="&#x26;" horiz-adv-x="1097" 
d="M411 931c41.333 30 73.835 54.498 97.502 73.498s49.667 42.833 78 71.5s50.5 56.334 66.5 83.001c14.667 22 19.834 45.833 15.501 71.5s-13.5 49.5 -27.5 71.5s-33 40.333 -57 55s-49 21.667 -75 21c-42.667 -0.666992 -82.834 -12.167 -120.501 -34.5
s-64.834 -50.666 -81.501 -84.999s-18.334 -67.833 -5.00098 -100.5c32 -74 68.333 -149.667 109 -227zM900.002 194.998l155.002 -195.006c14.667 -17.333 17.167 -36.166 7.5 -56.499s-23.834 -32.666 -42.501 -36.999s-36 0.833984 -52 15.501l-155 199
c-84.667 -64 -166 -104.333 -244 -121c-42 -9.33301 -82.333 -15.5 -121 -18.5s-77.167 -2.5 -115.5 1.5s-73.333 12 -105 24s-60.667 29.667 -87 53s-48.166 51.5 -65.499 84.5s-29.833 73.5 -37.5 121.5s-9.5 101.667 -5.5 161c4 47.333 14.167 92 30.5 134
s38.833 81 67.5 117s57.5 67.833 86.5 95.5s63.833 57.167 104.5 88.5c-64 117.333 -108.333 215 -133 293c-9.33301 28.667 -12.166 56.834 -8.49902 84.501s11.667 53.834 24 78.501s30 47 53 67s48.833 37.167 77.5 51.5s61.5 24.833 98.5 31.5s75.5 8.66699 115.5 6
c32.667 -2 63.167 -10.167 91.5 -24.5s51.833 -32.5 70.5 -54.5s34.167 -47.167 46.5 -75.5s18.5 -57.333 18.5 -87s-4.66699 -59.167 -14 -88.5c-7.33301 -21.333 -18.333 -42.833 -33 -64.5s-29.334 -40.667 -44.001 -57s-35 -35.833 -61 -58.5s-47.167 -40.5 -63.5 -53.5
l-71.5 -56.5l-24 -18c95.333 -167.333 215.666 -348.333 360.999 -543c31.333 31.333 72 75 122 131c11.333 12.667 23.666 20.5 36.999 23.5s25.333 1.83301 36 -3.5s19.5 -12.666 26.5 -21.999s10.5 -20.5 10.5 -33.5s-4.66699 -25.167 -14 -36.5
c-46 -58 -93.667 -110.333 -143 -157zM375.004 764.992c-33.333 -28 -62.333 -54.6689 -87 -80.002s-48.334 -53.5 -71.001 -84.5s-40.5 -64.167 -53.5 -99.5s-20.833 -72 -23.5 -110c-3.33301 -60.667 4.83398 -113.5 24.501 -158.5s48.667 -78.833 87 -101.5
s84.333 -36.167 138 -40.5s112.5 3.83398 176.5 24.501c56 16.667 114.667 50.334 176 101.001c-146 198.667 -268.333 381.667 -367 549z" />
    <glyph glyph-name="quotesingle" unicode="'" horiz-adv-x="400" 
d="M67 1460c-0.666992 25.333 10.499 43.332 33.499 53.999s46 11.334 69 2.00098s34.5 -24.666 34.5 -45.999c0 -35.333 11.333 -86.833 34 -154.5s47.334 -116.5 74.001 -146.5c21.333 -24 22.333 -47 3 -69c-17.333 -19.333 -40.333 -27 -69 -23
c-19.333 3.33301 -36 13 -50 29c-24.667 28 -52.167 84.167 -82.5 168.5s-45.833 146.166 -46.5 185.499z" />
    <glyph glyph-name="parenleft" unicode="(" horiz-adv-x="623" 
d="M556 1372c-84.667 -27.333 -158.503 -71.833 -221.503 -133.5s-111 -135 -144 -220s-49.167 -176.167 -48.5 -273.5c0 -61.333 4.83301 -119.5 14.5 -174.5s25.334 -108 47.001 -159s48.334 -96.333 80.001 -136s71.167 -74.167 118.5 -103.5
s100.666 -50.333 159.999 -63c25.333 -5.33301 37.333 -20.666 36 -45.999c-1.33301 -24 -13 -42.667 -35 -56c-16 -8.66699 -33.333 -11 -52 -7c-77.333 17.333 -147.333 50 -210 98s-114 105.833 -154 173.5s-70.5 142.5 -91.5 224.5s-31.167 167 -30.5 255
c0.666992 114.667 21.167 222.667 61.5 324s98.5 188 174.5 260s163.333 120.333 262 145c20.667 5.33301 37 3.66602 49 -5.00098s18.833 -20 20.5 -34s-0.666016 -28 -6.99902 -42s-16.166 -23 -29.499 -27z" />
    <glyph glyph-name="parenright" unicode=")" horiz-adv-x="646" 
d="M63 1374c-10.667 2.66699 -19.5039 8.83496 -26.5039 18.502s-10.667 20 -11 31s1.33398 21.5 5.00098 31.5s11.334 17.667 23.001 23s25.834 6.66602 42.501 3.99902c99.333 -18.667 188.5 -61.667 267.5 -129s140.5 -150 184.5 -248s68.333 -203.333 73 -316
c3.33301 -90.667 -4.5 -179 -23.5 -265s-47.667 -165 -86 -237s-88.5 -133.667 -150.5 -185s-131.333 -85.333 -208 -102c-31.333 -6.66699 -56.333 2.66602 -75 27.999c-15.333 22 -17.666 42.333 -6.99902 61c6 10 16.333 16.667 31 20
c58.667 12.667 111.5 34.667 158.5 66s85.833 68.5 116.5 111.5s56 91.667 76 146s34 110.5 42 168.5s11 118.667 9 182c-4.66699 145.333 -45.667 270.5 -123 375.5s-183.333 176.833 -318 215.5z" />
    <glyph glyph-name="asterisk" unicode="*" horiz-adv-x="687" 
d="M453 1234l81.999 -104.003c17.333 -20.667 21.333 -45 12 -73s-25.166 -44.333 -47.499 -49s-46.5 8.33301 -72.5 39l-88 125l-75 -110c-14 -22.667 -35.833 -33.667 -65.5 -33s-50.167 10.834 -61.5 30.501s-6 46.5 16 80.5l70 91
c-21.333 -0.666992 -55.666 -1.66699 -102.999 -3c-44 -1.33301 -73.167 10.167 -87.5 34.5s-12.166 48.5 6.50098 72.5s45 35 79 33c25.333 -1.33301 51 -2.33301 77 -3l-43 55c-24.667 38 -32.334 68.833 -23.001 92.5s29.5 35.5 60.5 35.5s55.833 -14.667 74.5 -44
l76 -114l88 124c29.333 41.333 59.666 57 90.999 47c23.333 -8 37.666 -25.333 42.999 -52c6 -27.333 -1 -53 -21 -77l-56 -69c33.333 1.33301 65 3 95 5c26.667 2 48.834 -8.66699 66.501 -32s21.667 -46.666 12 -69.999s-34.5 -34.666 -74.5 -33.999z" />
    <glyph glyph-name="plus" unicode="+" horiz-adv-x="1085" 
d="M952 428c-70 1.33301 -182.667 1.99902 -338 1.99902c2 -155.333 5.33301 -265 10 -329c2 -34 -9 -60.333 -33 -79s-48.167 -20.834 -72.5 -6.50098s-35.833 43.5 -34.5 87.5c1.33301 64.667 2.33301 173.334 3 326.001c-162.667 -0.666992 -278.334 -2 -347.001 -4
c-44 -1.33301 -73.167 10.334 -87.5 35.001s-12.166 49 6.50098 73s45 34.667 79 32c68 -4.66699 184.667 -7.66699 350 -9c0 165.333 -0.666992 285 -2 359c-0.666992 39.333 10.833 64 34.5 74s47.167 6.16699 70.5 -11.5s33.666 -39.834 30.999 -66.501
c-6 -60 -8.66699 -178.667 -8 -356c166 0 277.333 3 334 9c26.667 2.66699 48.834 -7.66602 66.501 -30.999s21.5 -47 11.5 -71s-34.667 -35.333 -74 -34z" />
    <glyph glyph-name="comma" unicode="," horiz-adv-x="275" 
d="M96 121c2.66699 16.667 11.334 28.3301 26.001 34.9971s29.834 8.33398 45.501 5.00098s29.5 -10 41.5 -20s17.667 -21.667 17 -35c-6 -73.333 -28.167 -149.166 -66.5 -227.499s-78.833 -133.5 -121.5 -165.5c-20 -14.667 -37.833 -20.167 -53.5 -16.5
s-28.334 11.334 -38.001 23.001s-13.667 26.334 -12 44.001s10.167 32.834 25.5 45.501c11.333 9.33301 21.666 18.833 30.999 28.5s17.833 20.167 25.5 31.5l19.5 29.5c5.33301 8.33301 10.5 19.666 15.5 33.999s9 25.166 12 32.499s6.33301 19.666 10 36.999
s6.16699 29.5 7.5 36.5s3.83301 20.833 7.5 41.5s6.16699 34.334 7.5 41.001z" />
    <glyph glyph-name="hyphen" unicode="-" horiz-adv-x="1085" 
d="M955 448c-92.667 1.33301 -231.835 1.66602 -417.502 0.999023s-316.834 -2 -393.501 -4c-44.667 -1.33301 -74.167 10.334 -88.5 35.001s-12.166 49 6.50098 73s45.334 34.667 80.001 32c78.667 -5.33301 213.667 -8.5 405 -9.5s326 1.83301 404 8.5
c26.667 2 48.834 -8.5 66.501 -31.5s21.667 -46.5 12 -70.5s-34.5 -35.333 -74.5 -34z" />
    <glyph glyph-name="period" unicode="." horiz-adv-x="299" 
d="M70 111c1.33301 12.667 7.16504 24.1699 17.498 34.5029s22 17.666 35 21.999s26.667 5.66602 41 3.99902s25.833 -7.16699 34.5 -16.5c14.667 -14.667 24.334 -33.334 29.001 -56.001s3.16699 -44 -4.5 -64s-21.167 -33.333 -40.5 -40
c-28.667 -9.33301 -55.167 -0.333008 -79.5 27s-35.166 57 -32.499 89z" />
    <glyph glyph-name="slash" unicode="/" horiz-adv-x="646" 
d="M496 1425c14 42.667 36.6709 63.333 68.0039 62c24.667 -1.33301 44 -13.666 58 -36.999c11.333 -20 12.333 -40.333 3 -61c-28 -60.667 -107.833 -282.334 -239.5 -665.001s-207.834 -612 -228.501 -688c-9.33301 -34 -29 -55.333 -59 -64
c-28.667 -8 -51.334 -2 -68.001 18c-18.667 22 -20.334 53.333 -5.00098 94c27.333 71.333 106.166 292.333 236.499 663s208.5 596.667 234.5 678z" />
    <glyph glyph-name="zero" unicode="0" horiz-adv-x="1314" 
d="M671 1468c23.333 4 44.002 -2.33496 62.002 -19.002c86 -3.33301 164.667 -24.333 236 -63s130.666 -89.834 177.999 -153.501s83.666 -138.334 108.999 -224.001s36.666 -177.167 33.999 -274.5c-2 -82.667 -10.333 -158.667 -25 -228s-33.834 -129 -57.501 -179
s-52.167 -94.5 -85.5 -133.5s-68.333 -70.833 -105 -95.5s-77.167 -45.167 -121.5 -61.5s-87.666 -28.166 -129.999 -35.499s-86.833 -11.666 -133.5 -12.999c-54.667 -2 -109 5.66699 -163 23s-105.167 44 -153.5 80s-91.666 79.5 -129.999 130.5s-70 111.833 -95 182.5
s-39.833 146.334 -44.5 227.001c-3.33301 44 -2.83301 89.167 1.5 135.5s13 94.833 26 145.5s30 99.5 51 146.5s48.5 93 82.5 138s72.5 85.333 115.5 121s94.333 66.834 154 93.501s124.5 45.667 194.5 57zM649.002 1336c-59.333 -11.333 -113.333 -29.5029 -162 -54.5029
s-89.5 -53.167 -122.5 -84.5s-62.167 -66.666 -87.5 -105.999s-45.166 -78 -59.499 -116s-26 -77.5 -35 -118.5s-14.833 -77 -17.5 -108s-3.66699 -61.167 -3 -90.5c0.666992 -76.667 14.667 -149.5 42 -218.5s62.833 -127.667 106.5 -176s93.834 -86.666 150.501 -114.999
s114 -42.5 172 -42.5c37.333 0 73 2.5 107 7.5s68.667 13.833 104 26.5s67.833 28.834 97.5 48.501s58 45.334 85 77.001s50.167 68.167 69.5 109.5s35 90.666 47 147.999s19.333 120.333 22 189c2.66699 92 -6 176.333 -26 253s-50.167 143 -90.5 199
s-92.333 99.833 -156 131.5s-135.834 48.167 -216.501 49.5c-0.666992 0 -5.33398 -1.5 -14.001 -4.5z" />
    <glyph glyph-name="one" unicode="1" horiz-adv-x="420" 
d="M140 1419c-0.666992 39.333 11.001 64.001 35.001 74.001s47.5 6.16699 70.5 -11.5s33.167 -39.834 30.5 -66.501c-6 -78 -8.16699 -302.167 -6.5 -672.5s5.16699 -594.833 10.5 -673.5c2.66699 -34.667 -8 -61.167 -32 -79.5s-48.333 -20.333 -73 -6
s-36.334 43.5 -35.001 87.5c2 73.333 3 294 3 662s-1 596.667 -3 686z" />
    <glyph glyph-name="two" unicode="2" horiz-adv-x="1313" 
d="M232 1134c31.333 48.667 70.499 94.3262 117.499 136.993s99.5 80.167 157.5 112.5s122.167 55.833 192.5 70.5s140.5 17 210.5 7c44.667 -6.66699 83.667 -20.334 117 -41.001s59.166 -46.334 77.499 -77.001s32.666 -65.667 42.999 -105s14.833 -81.166 13.5 -125.499
s-5 -90.166 -11 -137.499c-16 -100.667 -47.167 -216 -93.5 -346s-97.166 -244.333 -152.499 -343c130.667 -62.667 241.334 -137 332.001 -223c9.33301 -8.66699 15 -18.5 17 -29.5s0.5 -20.5 -4.5 -28.5s-11.5 -15.167 -19.5 -21.5s-17.167 -9.33301 -27.5 -9
s-19.833 3.83301 -28.5 10.5c-66 52.667 -120.5 92.834 -163.5 120.501s-96.167 57.834 -159.5 90.501c-42 -64.667 -82.333 -115 -121 -151c-36 -33.333 -80.333 -54 -133 -62s-101.834 -5 -147.501 9s-84.334 38 -116.001 72s-46.5 72.667 -44.5 116
c2 44.667 14.333 82.5 37 113.5s50.834 53.5 84.501 67.5s71 22.833 112 26.5s81 2.33398 120 -3.99902s75.167 -16.166 108.5 -29.499c20 -8 39 -16 57 -24c43.333 77.333 85.5 170.333 126.5 279s72.167 209.667 93.5 303c8.66699 39.333 15.334 76.5 20.001 111.5
s6.83398 72.333 6.50098 112s-5 74.334 -14 104.001s-24.333 55.834 -46 78.501s-49.5 37.334 -83.5 44.001c-60 12 -121 11.167 -183 -2.5s-117.833 -36.5 -167.5 -68.5s-94.167 -68.833 -133.5 -110.5s-70 -85.167 -92 -130.5c-13.333 -26.667 -34 -36 -62 -28
c-24 7.33301 -40.333 23 -49 47c-8 22 -5 43.667 9 65zM754.999 243.992c-1.33301 0 -3 0.665039 -5 1.99805c-28.667 14 -61 25.333 -97 34s-72 13.167 -108 13.5s-67.833 -7.16699 -95.5 -22.5s-45.5 -38.666 -53.5 -69.999c-7.33301 -30 1.66699 -55.167 27 -75.5
s56.833 -31.166 94.5 -32.499s75.167 4.66699 112.5 18c34 14.667 75.667 59 125 133z" />
    <glyph glyph-name="three" unicode="3" horiz-adv-x="1050" 
d="M961 1122c-8 -57.333 -24.165 -115.5 -48.498 -174.5s-58.833 -109.5 -103.5 -151.5c44.667 -13.333 86.334 -42.166 125.001 -86.499s65 -92.5 79 -144.5c23.333 -88.667 16 -178.5 -22 -269.5s-101.667 -164.5 -191 -220.5c-73.333 -45.333 -175.333 -75.5 -306 -90.5
s-251.667 -9.83301 -363 15.5c-24 5.33301 -38.333 20.5 -43 45.5s0.333008 47.167 15 66.5s34 25 58 17c78.667 -24.667 163.334 -35.334 254.001 -32.001s175 19 253 47c51.333 18.667 98.166 48.834 140.499 90.501s73 89.167 92 142.5s18.5 108 -1.5 164
c-12.667 33.333 -29.834 61.5 -51.501 84.5s-44.667 40.333 -69 52s-51.333 20 -81 25s-57.834 7 -84.501 6s-54.334 -4.16699 -83.001 -9.5c-24 -4.66699 -41.333 5.66602 -52 30.999c-11.333 25.333 -9.33301 48.333 6 69c10 13.333 24.333 21 43 23
c31.333 3.33301 58.833 7.66602 82.5 12.999s47.667 13.5 72 24.5s45.5 24.833 63.5 41.5s35.167 38.167 51.5 64.5s30.166 57.5 41.499 93.5c6.66699 20 11.834 41 15.501 63s5.16699 47 4.5 75s-5.16699 53.333 -13.5 76s-23.333 43.5 -45 62.5s-49.5 31.833 -83.5 38.5
c-60 12 -120.833 11.167 -182.5 -2.5s-117.5 -36.5 -167.5 -68.5s-94.667 -68.833 -134 -110.5s-70 -85.167 -92 -130.5c-13.333 -26.667 -34 -36 -62 -28c-24 7.33301 -40.333 23 -49 47c-8 22 -5 43.667 9 65c31.333 48.667 70.5 94.334 117.5 137.001
s99.5 80.167 157.5 112.5s122.167 55.833 192.5 70.5s140.5 17 210.5 7c37.333 -5.33301 70.666 -14.833 99.999 -28.5s52.833 -29.834 70.5 -48.501s32.834 -39.5 45.501 -62.5s21 -46.5 25 -70.5s6.83301 -48.167 8.5 -72.5s0.166992 -47.166 -4.5 -68.499z" />
    <glyph glyph-name="four" unicode="4" horiz-adv-x="1042" 
d="M240 1440c6.66699 22 21.165 34.9951 43.498 38.9951s42 -0.666992 59 -14s22.167 -30.666 15.5 -51.999c-140.667 -442 -206.667 -669 -198 -681c10 -13.333 53.333 -21.333 130 -24s149.334 -2.33398 218.001 0.999023s126 7.33301 172 12c0 34 -2.33301 84.667 -7 152
c-2 27.333 7.83301 46.5 29.5 57.5s43.667 11.667 66 2s33.166 -26.5 32.499 -50.5v-61.5c0 -7.66699 1 -24.667 3 -51s3.33301 -41.833 4 -46.5l150 15c12.667 2 23.834 -0.666992 33.501 -8s16.334 -16.666 20.001 -27.999s5.33398 -23 5.00098 -35
s-4.5 -22.5 -12.5 -31.5s-18.667 -13.833 -32 -14.5c-24 -2 -44.167 -3.5 -60.5 -4.5s-33.166 -2.16699 -50.499 -3.5s-33 -2.66602 -47 -3.99902c0.666992 -79.333 0.666992 -148.166 0 -206.499s-0.666992 -120.166 0 -185.499s2.33398 -123.666 5.00098 -174.999
c1.33301 -26.667 -8.5 -45.5 -29.5 -56.5s-42.5 -10.833 -64.5 0.5s-33.333 31 -34 59c-2 65.333 -3.5 127 -4.5 185s-1.83301 122.833 -2.5 194.5s-1.33398 133.167 -2.00098 184.5c-20.667 -0.666992 -55.834 -3.5 -105.501 -8.5s-95.167 -9.16699 -136.5 -12.5
s-90.833 -4.83301 -148.5 -4.5s-110.834 3.83301 -159.501 10.5c-32 4.66699 -59 17.167 -81 37.5s-30 43.833 -24 70.5c16 70.667 34.167 143.5 54.5 218.5s37.333 134.667 51 179l57.5 183.5z" />
    <glyph glyph-name="five" unicode="5" horiz-adv-x="1146" 
d="M1049 1386c-106 0 -205.836 -2.49805 -299.503 -7.49805s-198.5 -11.833 -314.5 -20.5s-215.333 -15.334 -298 -20.001l36 -345c10 2.66699 25.333 7 46 13l82.5 21.5c19 5 46.833 11.833 83.5 20.5s66.334 14.5 89.001 17.5s51.334 6.33301 86.001 10
s64.167 4.33398 88.5 2.00098s51.833 -6 82.5 -11s58 -12.833 82 -23.5s48.5 -24.5 73.5 -41.5s48.167 -36.833 69.5 -59.5c70 -76.667 118.333 -163.834 145 -261.501s28 -195.167 4 -292.5s-72.667 -181.666 -146 -252.999c-48 -46 -101.333 -82.5 -160 -109.5
s-117.667 -43.833 -177 -50.5s-121 -6 -185 2s-125.167 21.833 -183.5 41.5s-115.166 44.5 -170.499 74.5c-18 9.33301 -27.833 25.333 -29.5 48s4.66602 41.334 18.999 56.001s31.833 17 52.5 7c55.333 -28 108.333 -51 159 -69s103.334 -31.667 158.001 -41
s106.167 -11.833 154.5 -7.5s96.833 17.166 145.5 38.499s94 51.666 136 90.999c46 43.333 79.667 94.666 101 153.999s30 119 26 179s-19.833 119.333 -47.5 178s-65.167 109.334 -112.5 152.001c-24.667 22 -51.167 39.667 -79.5 53s-55.666 23 -81.999 29
s-56.166 8.66699 -89.499 8s-62.833 -2.83398 -88.5 -6.50098s-56.334 -10.334 -92.001 -20.001s-64.834 -18.167 -87.501 -25.5l-87.5 -29.5c-35.667 -12.333 -62.5 -21.166 -80.5 -26.499c-23.333 -7.33301 -44.833 -1.33301 -64.5 18s-30.167 42.333 -31.5 69
c-6 102 -18 237 -36 405c-2.66699 24.667 2.5 46.834 15.5 66.501s30.833 30.5 53.5 32.5c314.667 24.667 628.667 34.667 942 30c21.333 -0.666992 36.833 -8.83398 46.5 -24.501s11 -31.5 4 -47.5s-19.833 -24 -38.5 -24z" />
    <glyph glyph-name="six" unicode="6" horiz-adv-x="1110" 
d="M191 504c-6 -36.667 -8.33398 -72.8369 -7.00098 -108.504s9 -70 23 -103s31.5 -62.5 52.5 -88.5s48.167 -47.167 81.5 -63.5s70.333 -26.166 111 -29.499c59.333 -4.66699 118 3.33301 176 24s109.667 49.834 155 87.501s84 82.334 116 134.001s53 105.834 63 162.501
c9.33301 51.333 12.333 97.833 9 139.5s-12.166 76.5 -26.499 104.5s-33 52.167 -56 72.5s-49.333 34.666 -79 42.999s-61.5 13.833 -95.5 16.5s-69.333 0.333984 -106 -6.99902c-101.333 -16.667 -185.833 -57 -253.5 -121s-122.167 -151.667 -163.5 -263zM391.999 1413
c-29.333 -45.333 -54.998 -87.165 -76.998 -125.498s-45.167 -83.5 -69.5 -135.5s-43.833 -102.5 -58.5 -151.5s-26.667 -103.667 -36 -164s-13 -121.166 -11 -182.499c19.333 35.333 39.166 67.333 59.499 96s44.833 57.5 73.5 86.5s59 53.833 91 74.5
s69.5 38.667 112.5 54s88.833 25.666 137.5 30.999c50 5.33301 97.167 5.16602 141.5 -0.500977s83.166 -16 116.499 -31s63.666 -33.833 90.999 -56.5s49.333 -48.167 66 -76.5s30.167 -59 40.5 -92s15.5 -67 15.5 -102s-3 -70.5 -9 -106.5
c-16.667 -81.333 -44.834 -157.333 -84.501 -228s-87.667 -131 -144 -181s-122.333 -86.333 -198 -109s-154.5 -27 -236.5 -13c-271.333 45.333 -400.333 286.333 -387 723c2 70 12.333 142.333 31 217s42.334 144.167 71.001 208.5s57.834 122.5 87.501 174.5
s59.5 98 89.5 138c12.667 16.667 29 24.667 49 24s33.833 -7.83398 41.5 -21.501s6.5 -30.5 -3.5 -50.5z" />
    <glyph glyph-name="seven" unicode="7" horiz-adv-x="1047" 
d="M28 1491c38 -2 75.1631 -3.83398 111.496 -5.50098s68.333 -3 96 -4s59.334 -1.66699 95.001 -2s63 -0.666016 82 -0.999023s47.5 -0.166016 85.5 0.500977s63.833 1 77.5 1s42.334 0.666992 86.001 2l82 2.5l95 3c52.333 1.66699 85.166 2.83398 98.499 3.50098
c40.667 1.33301 69.667 -11.834 87 -39.501s19.333 -55.5 6 -83.5l-114 -231l-108 -219l-91 -196.5c-36.667 -81.667 -66.5 -153.667 -89.5 -216s-47.667 -135.833 -74 -220.5s-50.5 -172.667 -72.5 -264c-6 -23.333 -21.667 -37.833 -47 -43.5s-48.166 -1.5 -68.499 12.5
s-27.166 32.667 -20.499 56c26 94.667 54 186 84 274s59.167 167.5 87.5 238.5s65.666 155.833 111.999 254.5l125 258.5l159.5 314.5c-298 -19.333 -595 -21.333 -891 -6c-12 0.666992 -22 5 -30 13s-12.667 17.5 -14 28.5s-0.666016 21.833 2.00098 32.5
s8.33398 19.667 17.001 27s19 10.666 31 9.99902z" />
    <glyph glyph-name="eight" unicode="8" horiz-adv-x="921" 
d="M440 837c18.667 1.33301 35.333 -2.33105 50 -10.998c44 3.33301 82.833 13.666 116.5 30.999s59.834 38.5 78.501 63.5s32 51.667 40 80s10.333 56.833 7 85.5c-8.66699 87.333 -42.167 155.5 -100.5 204.5s-134.166 69.833 -227.499 62.5h-2h-2
c-26.667 -5.33301 -50.834 -11.5 -72.501 -18.5s-44.334 -17.5 -68.001 -31.5s-43.167 -30.167 -58.5 -48.5s-27.5 -41.833 -36.5 -70.5s-12.833 -61.334 -11.5 -98.001c3.33301 -72 24.333 -130.333 63 -175s94.667 -72 168 -82c19.333 4 38 6.66699 56 8zM437.999 1485
c25.333 1.33301 45.665 -5.33105 60.998 -19.998c46 -1.33301 89.5 -11.333 130.5 -30s76 -42.667 105 -72s53 -62.5 72 -99.5s31.167 -75.167 36.5 -114.5c10.667 -74.667 1.33398 -145.834 -27.999 -213.501s-72.666 -122.834 -129.999 -165.501
c51.333 -26 94.5 -60 129.5 -102s58.167 -87.667 69.5 -137c11.333 -56.667 14.5 -111.167 9.5 -163.5s-19.167 -101.666 -42.5 -147.999s-51.833 -86.833 -85.5 -121.5s-74 -62.334 -121 -83.001s-96.5 -31.667 -148.5 -33c-45.333 -1.33301 -89.5 2 -132.5 10
s-84.667 21.833 -125 41.5s-75.833 44.334 -106.5 74.001s-55.667 66.834 -75 111.501s-30 94.667 -32 150c-2.66699 82.667 14.5 157.5 51.5 224.5s86.167 121.833 147.5 164.5c-103.333 61.333 -165 160.666 -185 297.999c-7.33301 51.333 -4.33301 99.666 9 144.999
s33.5 84.5 60.5 117.5s59 61.833 96 86.5s75.333 43.5 115 56.5s79.167 20.833 118.5 23.5zM387.998 702.006c-30 -8 -58.834 -20.5 -86.501 -37.5s-53 -38 -76 -63s-41.167 -55.667 -54.5 -92s-19.333 -75.166 -18 -116.499c1.33301 -39.333 9.83301 -76.666 25.5 -111.999
s37.334 -66.5 65.001 -93.5s62.667 -48 105 -63s88.833 -21.5 139.5 -19.5c48 2 92 13.667 132 35s72 48 96 80s41.333 67.333 52 106s12.667 76 6 112c-13.333 75.333 -40.333 134.666 -81 177.999s-101 70.666 -181 81.999c-11.333 -1.33301 -23 -2 -35 -2
c-30 -0.666992 -59.667 1.33301 -89 6z" />
    <glyph glyph-name="nine" unicode="9" horiz-adv-x="892" 
d="M694 52c-18 118.667 -24.665 289.001 -19.998 511.001c-54 -37.333 -110 -62.833 -168 -76.5s-112.167 -16.334 -162.5 -8.00098s-96.833 24.333 -139.5 48s-78.334 54.167 -107.001 91.5s-48 78 -58 122c-12.667 64.667 -16.334 127.834 -11.001 189.501
s20.833 121 46.5 178s57.667 108.667 96 155s84.5 86.5 138.5 120.5s111.667 58.333 173 73c104 24.667 189.667 21.667 257 -9s109 -85.334 125 -164.001c6.66699 -29.333 5 -53.5 -5 -72.5s-23.667 -31.833 -41 -38.5c-13.333 -135.333 -21.833 -278.5 -25.5 -429.5
s-4 -280.5 -1 -388.5s7.83301 -203.333 14.5 -286c2 -25.333 0.166992 -46.333 -5.5 -63s-13.667 -27.167 -24 -31.5s-21 -5 -32 -2s-21.333 11.833 -31 26.5s-16.167 32.667 -19.5 54zM724.002 1300c-38.667 40 -99.333 58.001 -182 54.001
c-34 -1.33301 -70.167 -11.833 -108.5 -31.5s-74.5 -45.167 -108.5 -76.5s-65 -68 -93 -110s-50.167 -85 -66.5 -129s-24.5 -90 -24.5 -138s10 -92.333 30 -133c16.667 -34 40.667 -62.5 72 -85.5s66.166 -38.333 104.499 -46s77.333 -9.5 117 -5.5s78.5 15.667 116.5 35
s70.333 44.666 97 75.999c6.66699 178 20.334 367.667 41.001 569c1.33301 8 3 15 5 21z" />
    <glyph glyph-name="colon" unicode=":" horiz-adv-x="299" 
d="M62 928c1.33301 12.667 7.00195 24.001 17.002 34.001s21.667 17.333 35 22s27.166 6.16699 41.499 4.5s25.833 -7.16699 34.5 -16.5c14.667 -14.667 24.334 -33.334 29.001 -56.001s3 -44 -5 -64s-21.333 -33.333 -40 -40c-28.667 -10 -55.334 -1.33301 -80.001 26
s-35.334 57.333 -32.001 90zM70.002 111.001c1.33301 12.667 7.16504 24.1699 17.498 34.5029s22 17.666 35 21.999s26.667 5.66602 41 3.99902s25.833 -7.16699 34.5 -16.5c14.667 -14.667 24.334 -33.334 29.001 -56.001s3.16699 -44 -4.5 -64s-21.167 -33.333 -40.5 -40
c-28.667 -9.33301 -55.167 -0.333008 -79.5 27s-35.166 57 -32.499 89z" />
    <glyph glyph-name="semicolon" unicode=";" horiz-adv-x="299" 
d="M96 121c2.66699 16.667 11.334 28.3301 26.001 34.9971s29.834 8.33398 45.501 5.00098s29.5 -10 41.5 -20s17.667 -21.667 17 -35c-6 -73.333 -28.167 -149.166 -66.5 -227.499s-78.833 -133.5 -121.5 -165.5c-20 -14.667 -37.833 -20.167 -53.5 -16.5
s-28.334 11.334 -38.001 23.001s-13.667 26.334 -12 44.001s10.167 32.834 25.5 45.501c11.333 9.33301 21.666 18.833 30.999 28.5s17.833 20.167 25.5 31.5l19.5 29.5c5.33301 8.33301 10.5 19.666 15.5 33.999s9 25.166 12 32.499s6.33301 19.666 10 36.999
s6.16699 29.5 7.5 36.5s3.83301 20.833 7.5 41.5s6.16699 34.334 7.5 41.001zM62 927.996c1.33301 12.667 7.00195 24.001 17.002 34.001s21.667 17.333 35 22s27.166 6.16699 41.499 4.5s25.833 -7.16699 34.5 -16.5c14.667 -14.667 24.334 -33.334 29.001 -56.001
s3 -44 -5 -64s-21.333 -33.333 -40 -40c-28.667 -10 -55.334 -1.33301 -80.001 26s-35.334 57.333 -32.001 90z" />
    <glyph glyph-name="less" unicode="&#x3c;" horiz-adv-x="918" 
d="M774 116c-92 30.667 -202.665 73.833 -331.998 129.5s-242 107.834 -338 156.501c-21.333 11.333 -36.833 30 -46.5 56s-10.334 52.5 -2.00098 79.5s25.833 46.5 52.5 58.5c221.333 103.333 447.333 198 678 284c10.667 4 22.167 4 34.5 0s22.333 -10.667 30 -20
s13.167 -19.5 16.5 -30.5s1.66602 -22 -5.00098 -33s-18 -19.833 -34 -26.5c-232.667 -88.667 -443.334 -179.334 -632.001 -272.001c76.667 -42.667 177 -90.667 301 -144s232.333 -94 325 -122c27.333 -8 42.333 -23.5 45 -46.5s-5.66602 -42.5 -24.999 -58.5
s-42 -19.667 -68 -11z" />
    <glyph glyph-name="equal" unicode="=" horiz-adv-x="959" 
d="M832 617c-94.667 2 -213.169 3.33105 -355.502 3.99805s-252.5 0 -330.5 -2c-44.667 -1.33301 -74.167 10.334 -88.5 35.001s-12.166 49 6.50098 73s45.334 34.667 80.001 32c84 -6 198 -10 342 -12s258 0 342 6c26 2.66699 47.833 -7.66602 65.5 -30.999
s21.667 -46.833 12 -70.5s-34.167 -35.167 -73.5 -34.5zM825.998 262.998c-94.667 2 -213.169 3.33105 -355.502 3.99805s-252.5 0 -330.5 -2c-44.667 -1.33301 -74.167 10.334 -88.5 35.001s-12.166 49 6.50098 73s45.334 34.667 80.001 32c84 -6 198 -10 342 -12
s258 0 342 6c26 2.66699 47.833 -7.66602 65.5 -30.999s21.667 -46.833 12 -70.5s-34.167 -35.167 -73.5 -34.5z" />
    <glyph glyph-name="greater" unicode="&#x3e;" horiz-adv-x="918" 
d="M144 104c-26 -8.66699 -48.667 -4.99902 -68 11.001s-27.666 35.5 -24.999 58.5s17.667 38.5 45 46.5c93.333 28 202 68.667 326 122s224 101.333 300 144c-188.667 92.667 -399.334 183.334 -632.001 272.001c-16 6 -27.333 14.667 -34 26s-8.33398 22.5 -5.00098 33.5
s8.83301 21.167 16.5 30.5s17.667 16 30 20s23.833 4 34.5 0c230.667 -86 456.667 -180.667 678 -284c26.667 -12 44.334 -31.667 53.001 -59s8.16699 -53.833 -1.5 -79.5s-25.5 -44.167 -47.5 -55.5c-95.333 -48.667 -207.833 -100.834 -337.5 -156.501
s-240.5 -98.834 -332.5 -129.501z" />
    <glyph glyph-name="question" unicode="?" horiz-adv-x="877" 
d="M303 311c-2 32.667 -4 82.835 -6 150.502s-5.33301 125.5 -10 173.5c-2 22.667 6.5 45.167 25.5 67.5s43.167 32.5 72.5 30.5c101.333 -7.33301 177 2.16699 227 28.5s85.333 75.166 106 146.499c13.333 44.667 21 88.167 23 130.5s-1.66699 82.666 -11 120.999
s-26.5 72.5 -51.5 102.5s-56.833 53 -95.5 69c-47.333 20 -92.833 31.167 -136.5 33.5s-86.834 -4.33398 -129.501 -20.001s-83.5 -36.5 -122.5 -62.5s-82.167 -59.667 -129.5 -101c-16 -14 -32.5 -16.333 -49.5 -7s-27.333 23.833 -31 43.5s1.16602 38.834 14.499 57.501
c48 54 106.833 99.167 176.5 135.5s144.5 58.833 224.5 67.5s157.667 -4 233 -38c58 -26 105.5 -62.333 142.5 -109s61.833 -97.667 74.5 -153s16.667 -112.5 12 -171.5s-17.667 -116.5 -39 -172.5c-31.333 -82 -81.166 -140.333 -149.499 -175
s-155.166 -51.334 -260.499 -50.001c-1.33301 -36 0.5 -89.667 5.5 -161s7.83301 -117.666 8.5 -138.999c0.666992 -30.667 -9 -50.167 -29 -58.5s-40.5 -5.83301 -61.5 7.5s-32.167 31 -33.5 53zM289 106.001c1.33301 12.667 7.16797 24.1699 17.501 34.5029
s22 17.666 35 21.999s26.667 5.66602 41 3.99902s25.833 -7.16699 34.5 -16.5c14.667 -14.667 24.334 -33.334 29.001 -56.001s3.16699 -44 -4.5 -64s-21.167 -33.333 -40.5 -40c-28.667 -10 -55.334 -1.33301 -80.001 26s-35.334 57.333 -32.001 90z" />
    <glyph glyph-name="at" unicode="@" horiz-adv-x="1471" 
d="M1190 163c43.333 -2.66699 78.3389 28.6641 105.006 93.9971c32 79.333 41.333 177.333 28 294c-16.667 149.333 -67 273.333 -151 372c-116 136 -277 194.667 -483 176c-60 -5.33301 -115.667 -17.5 -167 -36.5s-95.333 -42 -132 -69s-69.667 -58.5 -99 -94.5
s-53.166 -73.167 -71.499 -111.5s-33.5 -78.666 -45.5 -120.999s-20.167 -82.833 -24.5 -121.5s-6.5 -77 -6.5 -115c0.666992 -61.333 12 -121 34 -179s51 -109.667 87 -155s76.667 -85.333 122 -120s92.833 -61.167 142.5 -79.5s97.834 -27.5 144.501 -27.5
c20 0 37.5 -4 52.5 -12s24.833 -17.667 29.5 -29s5.66699 -22.666 3 -33.999s-11.5 -21.166 -26.5 -29.499s-34.833 -12.833 -59.5 -13.5c-54.667 -2 -110.834 5.83301 -168.501 23.5s-113.667 45.167 -168 82.5s-103.5 81.666 -147.5 132.999s-80.5 112.833 -109.5 184.5
s-46.167 147.834 -51.5 228.501c-3.33301 54.667 -2.5 108.334 2.5 161.001s15.167 104.834 30.5 156.501s35.166 100.667 59.499 147s55.166 89.666 92.499 129.999s79.166 75.666 125.499 105.999s100.166 55.666 161.499 75.999s127.666 33.5 198.999 39.5
c245.333 21.333 435.333 -46 570 -202c97.333 -112.667 155 -256 173 -430c15.333 -142.667 2 -271 -40 -385c-36.667 -97.333 -85.667 -156.666 -147 -177.999c-14.667 -5.33301 -29.667 -8 -45 -8c-100 0 -166 69 -198 207
c-36.667 -63.333 -79.834 -114.166 -129.501 -152.499s-99.5 -62.666 -149.5 -72.999s-100.667 -11.333 -152 -3s-97.5 24.666 -138.5 48.999s-76.333 54.5 -106 90.5s-49.167 74.667 -58.5 116c-13.333 64.667 -18 127.5 -14 188.5s17.667 119.5 41 175.5
s53.333 106.667 90 152s81.167 84.666 133.5 117.999s109.5 57.333 171.5 72c40 10 76.5 15.667 109.5 17s61 -0.666992 84 -6s43.333 -14 61 -26s32 -25.5 43 -40.5s20.5 -32.5 28.5 -52.5c6 -15.333 3.66699 -31 -7 -47c18.667 -7.33301 29 -23 31 -47
c10 -175.333 27.167 -317 51.5 -425s54.166 -163.333 89.499 -166zM938.006 769.998c-9.33301 2.66699 -17.1699 7.33496 -23.5029 14.002s-12.166 13.667 -17.499 21s-12.5 14.333 -21.5 21s-23.5 12 -43.5 16s-45 5 -75 3c-34.667 -1.33301 -70.167 -11.333 -106.5 -30
s-70.333 -42.834 -102 -72.501s-60 -64.5 -85 -104.5s-44.333 -81.333 -58 -124s-19.834 -87.5 -18.501 -134.5s12 -91.167 32 -132.5c16.667 -34.667 39.834 -63.834 69.501 -87.501s63.334 -38.667 101.001 -45s76 -4.83301 115 4.5s77.833 30.5 116.5 63.5
s72.667 75.833 102 128.5c12.667 23.333 20.834 58.5 24.501 105.5s3.83398 96.5 0.500977 148.5s-9 106.333 -17 163c-2.66699 15.333 -0.333984 29.333 6.99902 42z" />
    <glyph glyph-name="A" unicode="A" horiz-adv-x="1179" 
d="M29 98l80 239.499l113 335.5c-13.333 10.667 -22.333 24.167 -27 40.5s-1.66699 31.333 9 45s29 20.834 55 21.501l90 254.5c18 50.333 43.833 119 77.5 206s62.834 156.167 87.501 207.5c10.667 21.333 30 37.333 58 48s55.833 11.5 83.5 2.5s45.167 -27.167 52.5 -54.5
l55 -202l71.5 -259.5c21.667 -75.667 42.834 -145.167 63.501 -208.5c59.333 4.66699 128.666 11.667 207.999 21c27.333 3.33301 40.666 -2 39.999 -16c-0.666992 -15.333 -13.667 -31 -39 -47c-10.667 -6.66699 -22 -11.667 -34 -15
c-48.667 -14.667 -96.334 -27 -143.001 -37c76.667 -227.333 150.334 -433 221.001 -617c4.66699 -10.667 4.16699 -22.167 -1.5 -34.5s-14.167 -22.333 -25.5 -30s-23.5 -13.334 -36.5 -17.001s-25.667 -2.16699 -38 4.5s-21.5 18.334 -27.5 35.001l-212 640
c-66 -8 -139.667 -12 -221 -12s-165 2.33301 -251 7c-66.667 -194.667 -131 -396.667 -193 -606c-8 -27.333 -23.5 -42.5 -46.5 -45.5s-42.5 5.33301 -58.5 25s-19.667 42.5 -11 68.5zM380 776.999c24.667 -1.33301 63.6689 -3 117.002 -5s86.333 -3.16699 99 -3.5
s42.667 -1 90 -2s77.333 -0.5 90 1.5c-16 49.333 -43.333 140.333 -82 273s-69.667 232.667 -93 300c-20.667 -42 -45.334 -98.833 -74.001 -170.5s-51.834 -131.667 -69.501 -180z" />
    <glyph glyph-name="B" unicode="B" horiz-adv-x="1104" 
d="M69 1482c16 13.333 35.667 16.001 59 8.00098c161.333 18.667 291.5 15.667 390.5 -9s163.167 -69.667 192.5 -135c9.33301 -19.333 14.166 -39.833 14.499 -61.5s-3.66699 -43.667 -12 -66s-20.166 -44.333 -35.499 -66s-35.166 -42.667 -59.499 -63
s-51.833 -39.333 -82.5 -57s-65.834 -33.334 -105.501 -47.001s-82.167 -24.834 -127.5 -33.501c94 -21.333 176.667 -45 248 -71s138.166 -57.667 200.499 -95s117.333 -81.5 165 -132.5s89.834 -110.167 126.501 -177.5c22.667 -41.333 34.667 -85.666 36 -132.999
s-6.33398 -91.833 -23.001 -133.5s-41.667 -79.834 -75 -114.501s-72 -60.334 -116 -77.001c-58.667 -22.667 -119 -37.167 -181 -43.5s-121.833 -4.66602 -179.5 5.00098s-112.334 23.834 -164.001 42.501s-102.167 42 -151.5 70c0 -9.33301 0.333008 -17 1 -23
c2.66699 -34.667 -8.16602 -61.167 -32.499 -79.5s-48.666 -20.333 -72.999 -6s-35.833 43.5 -34.5 87.5c2 74.667 2.66699 279 2 613s-2 566.333 -4 697c-12 6 -19.5 16.167 -22.5 30.5s-0.5 28.5 7.5 42.5s20 23.333 36 28zM182 1389
c-3.33301 -58.667 -4.99609 -174.333 -4.99609 -347c49.333 6.66699 98.5 16.5 147.5 29.5s95.5 29 139.5 48s79.167 42.167 105.5 69.5s38.166 56.333 35.499 87c-2.66699 39.333 -21.834 69 -57.501 89s-84.334 31 -146.001 33s-134.834 -1 -219.501 -9zM177.004 858.002
c1.33301 -254.667 3.99805 -470.667 7.99805 -648c226.667 -137.333 436 -170 628 -98c37.333 14 68.5 36.167 93.5 66.5s41.667 64 50 101s6.33301 77 -6 120s-35.5 83.167 -69.5 120.5c-26.667 30 -51.667 56.333 -75 79s-47.666 43.667 -72.999 63
s-48.666 35.833 -69.999 49.5s-46.5 26.834 -75.5 39.501s-55.667 23.167 -80 31.5s-55.833 17.166 -94.5 26.499s-74.5 17.333 -107.5 24z" />
    <glyph glyph-name="C" unicode="C" horiz-adv-x="1306" 
d="M1019 1220c-12 4 -23.9951 10.6689 -35.9951 20.002s-22.667 18.666 -32 27.999s-21.333 18.666 -36 27.999s-30.5 16.666 -47.5 21.999s-39.5 7.66602 -67.5 6.99902s-59.667 -5 -95 -13c-83.333 -19.333 -157.833 -47.166 -223.5 -83.499s-119 -77 -160 -122
s-74.833 -94 -101.5 -147s-44.834 -106.5 -54.501 -160.5s-13.834 -107.667 -12.501 -161s7.83301 -103 19.5 -149s26.5 -87.667 44.5 -125c16.667 -33.333 38.5 -64.666 65.5 -93.999s57.833 -55.666 92.5 -78.999s72.834 -42 114.501 -56s84.834 -23.167 129.501 -27.5
s91.167 -1 139.5 10s95.666 28.667 141.999 53s93 59.333 140 105s90.5 100.167 130.5 163.5c15.333 18 32.666 24.667 51.999 20s35.166 -18 47.499 -40s13.166 -41.667 2.49902 -59c-43.333 -73.333 -93.166 -136.333 -149.499 -189s-113.833 -92.334 -172.5 -119.001
s-119.5 -45 -182.5 -55s-124 -11 -183 -3s-116 22.167 -171 42.5s-104.667 46 -149 77s-82.5 66 -114.5 105s-55.333 79.5 -70 121.5c-16 47.333 -28.833 96 -38.5 146s-15.167 105.333 -16.5 166s3.16699 119.5 13.5 176.5s30 115.167 59 174.5s66.167 114 111.5 164
s105.166 96.667 179.499 140s159.5 79 255.5 107c70 19.333 135.667 25.333 197 18s114 -23.166 158 -47.499s72.333 -52.5 85 -84.5c8 -18.667 3.66699 -38.334 -13 -59.001s-34.334 -27.667 -53.001 -21z" />
    <glyph glyph-name="D" unicode="D" horiz-adv-x="1377" 
d="M363 1349c-4 -121.333 -5.83301 -319.832 -5.5 -595.499s2.5 -477.167 6.5 -604.5c63.333 -15.333 120.333 -26 171 -32s103.334 -7.33301 158.001 -4s109 14.333 163 33s108.667 45.334 164 80.001c62.667 38.667 112.167 91.167 148.5 157.5s57.333 137.333 63 213
s-2.83301 154.667 -25.5 237s-58.667 158.5 -108 228.5c-26.667 37.333 -56.334 70.666 -89.001 99.999s-68.167 53.833 -106.5 73.5s-77.333 36.5 -117 50.5s-84 25.167 -133 33.5s-95.5 14.666 -139.5 18.999s-94 7.83301 -150 10.5zM228 184.001
c4.66699 545.333 5.66699 937.336 3 1176c-16 7.33301 -26.5 19.666 -31.5 36.999s-3.16699 33.666 5.5 48.999s23 24.333 43 27c11.333 11.333 24.833 16.666 40.5 15.999s30.5 -6 44.5 -16c78.667 -1.33301 150.334 -5.5 215.001 -12.5s128.834 -18.833 192.501 -35.5
s122 -38.334 175 -65.001s104.333 -60.667 154 -102s95.167 -89.666 136.5 -144.999c46 -61.333 81.5 -128.833 106.5 -202.5s38.333 -145.834 40 -216.501s-4.5 -139.167 -18.5 -205.5s-35.833 -126.166 -65.5 -179.499s-64.5 -96.333 -104.5 -129
c-50.667 -41.333 -102.5 -75.333 -155.5 -102s-104 -46.334 -153 -59.001s-101.833 -19.834 -158.5 -21.501s-110.334 0.333008 -161.001 6s-107.334 14.5 -170.001 26.5c-6 -17.333 -16.333 -31 -31 -41s-29.5 -14.667 -44.5 -14s-28.5 8.33398 -40.5 23.001
s-18.667 35.334 -20 62.001l-85 20l-82 19c-22.667 5.33301 -35.667 18.833 -39 40.5s3 41.167 19 58.5s35.333 23.333 58 18z" />
    <glyph glyph-name="E" unicode="E" horiz-adv-x="1162" 
d="M90 1410c-0.666992 28 5.50098 48.6699 18.501 62.0029s28 19 45 17s32.5 -9.33301 46.5 -22c68 0 150.5 -0.666992 247.5 -2l222.5 -3c51.333 -0.666992 116.5 -0.333984 195.5 0.999023s160.5 4 244.5 8c16.667 1.33301 23 -9.66699 19 -33
c-4 -24.667 -14.333 -43.334 -31 -56.001c-5.33301 -4 -10.666 -6.33301 -15.999 -7c-49.333 -6 -100 -11 -152 -15s-94.833 -7 -128.5 -9s-82.334 -3.16699 -146.001 -3.5s-106 -0.5 -127 -0.5s-72.833 0.666992 -155.5 2s-133 2 -151 2
c-4.66699 -80.667 -10 -208.334 -16 -383.001c8.66699 5.33301 18.667 7.66602 30 6.99902c165.333 -6 290 -8 374 -6s208 9.33301 372 22c32 2.66699 50.667 -8.66602 56 -33.999c4.66699 -23.333 -2.66602 -44.666 -21.999 -63.999
c-12 -12.667 -26.667 -19.334 -44 -20.001c-74 -4 -143.333 -7 -208 -9s-116.667 -3.16699 -156 -3.5l-174 -1.5c-76.667 -0.666992 -143.334 -1.33398 -200.001 -2.00098c-12 0 -22.333 3.66699 -31 11c-12.667 -389.333 -17.334 -640.333 -14.001 -753
c295.333 -10.667 577.666 -5.66699 846.999 15c32 2.66699 50.667 -8.66602 56 -33.999c4.66699 -23.333 -2.33301 -44.666 -21 -63.999c-12.667 -12.667 -27.667 -19.334 -45 -20.001c-91.333 -4.66699 -190.833 -7.83398 -298.5 -9.50098s-205 -2.16699 -292 -1.5
s-186.833 0.333984 -299.5 -0.999023c-22 -7.33301 -42 -3.33301 -60 12s-26.667 42 -26 80c0.666992 21.333 4.83398 136.833 12.501 346.5s14.5 411 20.5 604s8.33301 315.5 7 367.5z" />
    <glyph glyph-name="F" unicode="F" horiz-adv-x="1209" 
d="M50 1410c-0.666992 28 5.50195 48.6699 18.502 62.0029s28 19 45 17s32.5 -9.33301 46.5 -22c69.333 0 156.333 -0.833008 261 -2.5s187.167 -2.83398 247.5 -3.50098s134 -0.333984 221 0.999023s172.167 4 255.5 8c16.667 0.666992 23 -10.666 19 -33.999
c-4 -24.667 -14.333 -43 -31 -55c-5.33301 -4 -10.666 -6.33301 -15.999 -7c-48.667 -6 -100.834 -11 -156.501 -15s-102.834 -7 -141.501 -9s-93 -3.16699 -163 -3.5s-118.333 -0.333008 -145 0s-82.834 1.16602 -168.501 2.49902s-138.5 2 -158.5 2
c-0.666992 -72.667 2.33301 -198 9 -376h3c148.667 -7.33301 260.667 -10.833 336 -10.5s186.666 6.16602 333.999 17.499c32 2.66699 50.667 -8.66602 56 -33.999c5.33301 -23.333 -1.66699 -44.666 -21 -63.999c-12.667 -12.667 -27.667 -19.334 -45 -20.001
c-92 -4.66699 -168 -7.33398 -228 -8.00098s-127.333 -0.5 -202 0.5s-151 1.16699 -229 0.5c14.667 -352 27.334 -607.667 38.001 -767c2.66699 -34.667 -8 -61.167 -32 -79.5s-48.167 -20.333 -72.5 -6s-36.166 43.5 -35.499 87.5c2 57.333 -4.83301 285 -20.5 683
s-23.834 609.667 -24.501 635z" />
    <glyph glyph-name="G" unicode="G" horiz-adv-x="1394" 
d="M1024 1220c-12 4 -24.1689 10.6719 -36.502 20.0049s-23 18.666 -32 27.999s-20.833 18.666 -35.5 27.999s-30.5 16.666 -47.5 21.999s-39.5 7.66602 -67.5 6.99902s-59.667 -5 -95 -13c-73.333 -17.333 -140.333 -41.5 -201 -72.5s-111.834 -65.833 -153.501 -104.5
s-77.667 -81.167 -108 -127.5s-53.166 -93.666 -68.499 -141.999s-26 -97 -32 -146s-6.66699 -96.167 -2 -141.5s13.334 -87.666 26.001 -126.999s29 -73.666 49 -102.999c32.667 -48 70.667 -90.667 114 -128s88.833 -67.333 136.5 -90s97.334 -38 149.001 -46
s102.167 -8.66699 151.5 -2s97.166 22.834 143.499 48.501s88 59 125 100s68.833 93.5 95.5 157.5s45.334 136 56.001 216c-142 2 -261.667 -8.33301 -359 -31c-24.667 -6 -44 0.166992 -58 18.5s-17.5 38.666 -10.5 60.999s23.833 35.833 50.5 40.5
c41.333 7.33301 79.333 13.333 114 18s69.167 8.16699 103.5 10.5s60.5 3.83301 78.5 4.5s46.333 1.33398 85 2.00098s64.667 1 78 1c23.333 0.666992 41.833 -6.33301 55.5 -21s22 -31 25 -49s3.16699 -36.667 0.5 -56c-18 -106.667 -26.5 -197.167 -25.5 -271.5
s14.5 -183.833 40.5 -328.5c4 -21.333 -5 -35.333 -27 -42c-24 -6.66699 -46.667 -1 -68 17c-12.667 10.667 -21 25 -25 43c-24.667 108 -36 204 -34 288c-26.667 -72 -62 -133.167 -106 -183.5s-92 -87.833 -144 -112.5s-107.833 -40.834 -167.5 -48.501
s-119 -6.33398 -178 3.99902s-117.167 26.833 -174.5 49.5s-109.5 50.5 -156.5 83.5s-88.333 70 -124 111s-61.834 83.5 -78.501 127.5c-18 46 -32.167 94.167 -42.5 144.5s-16.166 105.666 -17.499 165.999s3.16699 119.166 13.5 176.499s30.333 115.666 60 174.999
s67.5 114 113.5 164s106.167 96.833 180.5 140.5s159.833 79.5 256.5 107.5c70 19.333 135.5 25.333 196.5 18s113.5 -23.166 157.5 -47.499s72.667 -52.5 86 -84.5c7.33301 -18.667 2.83301 -38.334 -13.5 -59.001s-33.833 -27.667 -52.5 -21z" />
    <glyph glyph-name="H" unicode="H" horiz-adv-x="1183" 
d="M65 1390c-0.666992 39.333 10.832 63.8291 34.499 73.4961s47.167 5.83398 70.5 -11.499s33.666 -39.333 30.999 -66c-4.66699 -44 -7 -168 -7 -372c175.333 -17.333 316.833 -28.666 424.5 -33.999s239.834 -8 396.501 -8c4 218.667 5.33301 356 4 412
c-0.666992 39.333 10.833 64 34.5 74s47.167 6.16699 70.5 -11.5s33.666 -39.834 30.999 -66.501c-4.66699 -49.333 -9.33398 -185.666 -14.001 -408.999c13.333 -2 23.833 -9.5 31.5 -22.5s11.334 -27.167 11.001 -42.5s-4.5 -29.666 -12.5 -42.999
s-19 -20.666 -33 -21.999c-6.66699 -411.333 -7 -658.666 -1 -741.999c2 -34 -9 -60.333 -33 -79s-48.167 -20.834 -72.5 -6.50098s-35.833 43.5 -34.5 87.5c4.66699 179.333 10 424.333 16 735c-134.667 -3.33301 -259.167 -2.5 -373.5 2.5s-262.833 17.167 -445.5 36.5
c0.666992 -436 4.33398 -704.667 11.001 -806c2.66699 -34.667 -8 -61.167 -32 -79.5s-48.167 -20.333 -72.5 -6s-36.166 43.5 -35.499 87.5c2.66699 93.333 3.66699 369 3 827c-12.667 13.333 -18.667 31 -18 53s6.66699 40.333 18 55
c-0.666992 199.333 -1.66699 327.333 -3 384z" />
    <glyph glyph-name="I" unicode="I" horiz-adv-x="420" 
d="M140 1419c-0.666992 39.333 11.001 64.001 35.001 74.001s47.5 6.16699 70.5 -11.5s33.167 -39.834 30.5 -66.501c-6 -78 -8.16699 -302.167 -6.5 -672.5s5.16699 -594.833 10.5 -673.5c2.66699 -34.667 -8 -61.167 -32 -79.5s-48.333 -20.333 -73 -6
s-36.334 43.5 -35.001 87.5c2 73.333 3 294 3 662s-1 596.667 -3 686z" />
    <glyph glyph-name="J" unicode="J" horiz-adv-x="1132" 
d="M70 1356c69.333 6 162.167 12.667 278.5 20s215.833 15.333 298.5 24s182.334 22 299.001 40c30.667 4.66699 57 -3.5 79 -24.5s33.667 -46.833 35 -77.5c3.33301 -62.667 8.33301 -136 15 -220l17.5 -213.5c5 -58.333 9.16699 -123.166 12.5 -194.499
s3.33301 -135 0 -191s-9.66602 -113.667 -18.999 -173s-24.5 -116 -45.5 -170s-47.5 -105.667 -79.5 -155c-47.333 -72.667 -100.5 -132.5 -159.5 -179.5s-122.833 -81.667 -191.5 -104s-143.667 -35.666 -225 -39.999s-168.333 -0.5 -261 11.5
c-38.667 4.66699 -62.667 21 -72 49c-8 22.667 -4 41 12 55c10.667 9.33301 24.667 12.666 42 9.99902c73.333 -12.667 143.666 -18.334 210.999 -17.001s130.5 9.83301 189.5 25.5s115.667 41.5 170 77.5s105.166 82.333 152.499 139c25.333 30 47.166 61 65.499 93
s33.5 68.833 45.5 110.5s21.833 79.5 29.5 113.5s12.334 80 14.001 138s2.66699 106.333 3 145s-2.16699 96.5 -7.5 173.5s-10 138.667 -14 185l-19 215.5l-9 98c-158.667 -22.667 -298.167 -39.334 -418.5 -50.001s-260.833 -19 -421.5 -25
c-32.667 -1.33301 -55 11.334 -67 38.001c-10 23.333 -7.33301 43 8 59c8 8 18.667 12.667 32 14z" />
    <glyph glyph-name="K" unicode="K" horiz-adv-x="1027" 
d="M55 1364c-2 24 0.831055 43.3252 8.49805 57.9922s17.834 22.834 30.501 24.501s25.5 0.333984 38.5 -3.99902s24.333 -12.833 34 -25.5s14.834 -27 15.501 -43l5 -83c2 -33.333 3.66699 -60.166 5 -80.499s2.66602 -50.5 3.99902 -90.5s2.33301 -86 3 -138l308 223.5
l324 233.5c27.333 19.333 51.666 18 72.999 -4c18.667 -20 24.334 -44.667 17.001 -74c-5.33301 -21.333 -18.333 -38.666 -39 -51.999c-12 -8.66699 -30 -20.667 -54 -36l-182 -121.5l-148 -104.5c-58 -42 -106.667 -80.167 -146 -114.5s-74 -68.833 -104 -103.5
c-4 -4.66699 -6.66699 -10.167 -8 -16.5s-0.666016 -12.166 2.00098 -17.499c32 -46.667 67.667 -96.167 107 -148.5s86.5 -110 141.5 -173s108.833 -119.167 161.5 -168.5s107.667 -91.166 165 -125.499s108 -52.5 152 -54.5c25.333 -0.666992 43.666 -14.667 54.999 -42
c12 -28.667 9.33301 -53.667 -8 -75c-27.333 -33.333 -78 -36.333 -152 -9c-58.667 22 -130.5 68.167 -215.5 138.5s-166.667 148.5 -245 234.5s-145.833 169.333 -202.5 250c0 -271.333 -2.33301 -459.333 -7 -564c-0.666992 -20.667 -5.66699 -39 -15 -55
s-20.166 -26.5 -32.499 -31.5s-24.666 -6.16699 -36.999 -3.5s-22.333 12.334 -30 29.001s-10.834 38.334 -9.50098 65.001c9.33301 227.333 12.333 461 9 701s-11.333 440.333 -24 601z" />
    <glyph glyph-name="L" unicode="L" horiz-adv-x="1003" 
d="M77 1411c0 39.333 11.834 63.833 35.501 73.5s47 5.66699 70 -12s33.167 -39.5 30.5 -65.5c-3.33301 -34 -7.83301 -152.5 -13.5 -355.5s-10.667 -408.167 -15 -615.5s-6.83301 -315 -7.5 -323c92 -12.667 213.667 -10.5 365 6.5s276.666 38.833 375.999 65.5
c35.333 10 58.333 2 69 -24c8.66699 -22.667 4.66699 -45.667 -12 -69c-11.333 -15.333 -26.333 -25 -45 -29c-96 -24 -217.167 -43.667 -363.5 -59s-265.166 -23 -356.499 -23c-30 0 -54 1.5 -72 4.5s-34.333 9 -49 18s-24.834 22.333 -30.501 40
s-8.16699 41.167 -7.5 70.5c18 710 26.667 1142.33 26 1297z" />
    <glyph glyph-name="M" unicode="M" horiz-adv-x="1586" 
d="M73 0c3.33301 96 5.00586 187.496 5.00586 274.496s-0.833008 163.667 -2.5 230s-4.5 138.5 -8.5 216.5s-8 146.167 -12 204.5l-15 224.5c-6 91.333 -11 174 -15 248c-2 40 12 66 42 78c23.333 9.33301 48.333 4.33301 75 -15c15.333 6 31.5 5.83301 48.5 -0.5
s30.833 -17.166 41.5 -32.499c53.333 -76 111.666 -168.333 174.999 -277l170.5 -300.5l148 -264c48.333 -84.333 91.5 -151.833 129.5 -202.5s68.333 -77.667 91 -81c12.667 -2 28.167 12.833 46.5 44.5s38.666 80.167 60.999 145.5s44.5 141.833 66.5 229.5
s43.167 193.167 63.5 316.5s37.166 252 50.499 386c2 20.667 10.667 36.334 26 47.001s31.666 15.834 48.999 15.501s33.666 -4.83301 48.999 -13.5s24 -20 26 -34l22 -124l59.5 -353.5c12.333 -76.333 26.333 -171 42 -284s27.334 -220.167 35.001 -321.5
s13.834 -215.333 18.501 -342c1.33301 -24 -6.66699 -41.333 -24 -52s-34.833 -12.167 -52.5 -4.5s-27.167 21.5 -28.5 41.5c-9.33301 192.667 -22.833 359.667 -40.5 501s-46.167 329.333 -85.5 564l-45 -192l-44.5 -190c-11.667 -47.333 -26 -100.833 -43 -160.5
s-36 -113.834 -57 -162.501s-44.833 -94.667 -71.5 -138c-14 -23.333 -31.667 -40.833 -53 -52.5s-45.333 -15.334 -72 -11.001s-53 17.5 -79 39.5c-45.333 39.333 -97.333 101.333 -156 186s-112.667 170.667 -162 258l-184.5 322c-73.667 127.333 -138.167 234 -193.5 320
c2.66699 -85.333 7.16699 -175.666 13.5 -270.999s12.166 -178.833 17.499 -250.5s10.166 -147.167 14.499 -226.5s6.16602 -162.666 5.49902 -249.999s-4.66699 -177.666 -12 -270.999c-1.33301 -16.667 -13.333 -30 -36 -40s-45 -12.833 -67 -8.5s-32.667 15.5 -32 33.5z
" />
    <glyph glyph-name="N" unicode="N" horiz-adv-x="1184" 
d="M1074 45c-17.333 -38 -45.501 -59.9961 -84.501 -65.9961s-78.833 8 -119.5 42c-46 39.333 -97.833 107.666 -155.5 204.999s-110.667 197.666 -159 300.999l-180.5 380.5c-72 150.333 -135.333 275.833 -190 376.5c0.666992 -100.667 3.5 -212.167 8.5 -334.5
s9.5 -223.833 13.5 -304.5s5 -177.334 3 -290.001s-8.66699 -226 -20 -340c-2 -16.667 -14.333 -30 -37 -40s-44.834 -12.833 -66.501 -8.5s-32.167 15.5 -31.5 33.5c7.33301 234.667 12 408.5 14 521.5s1.83301 243.667 -0.5 392s-8.5 310.166 -18.5 485.499
c-1.33301 20 4.83398 38.167 18.501 54.5s29.167 25.166 46.5 26.499c4 0.666992 8.33301 0.666992 13 0s8 -1 10 -1s4.33301 -0.666992 7 -2s4.33398 -2.33301 5.00098 -3s2 -1.83398 4 -3.50098s3.33301 -2.5 4 -2.5c40.667 5.33301 70.667 -8 90 -40
c52.667 -88.667 110.167 -196 172.5 -322l167.5 -348.5l145 -306c47.333 -97.667 89.666 -175.5 126.999 -233.5s67.666 -88.667 90.999 -92c10 -1.33301 18.5 10.5 25.5 35.5s12.833 65.833 17.5 122.5s8.33398 118.667 11.001 186s4.33398 154.5 5.00098 261.5
s1 210.5 1 310.5s-0.333008 223.667 -1 371c0 16.667 4.16699 30.834 12.5 42.501s18.666 18.834 30.999 21.501s24.5 2.66699 36.5 0s22.333 -9.83398 31 -21.501s13 -25.834 13 -42.501c0 -159.333 -0.166992 -277.166 -0.5 -353.499s-1 -174.166 -2 -293.499
s-2.66699 -209 -5 -269s-5.66602 -125.5 -9.99902 -196.5s-10 -126 -17 -165s-15.5 -69.167 -25.5 -90.5z" />
    <glyph glyph-name="O" unicode="O" horiz-adv-x="1314" 
d="M671 1462c23.333 4 44.002 -2.33496 62.002 -19.002c86 -3.33301 164.667 -24 236 -62s130.666 -88.5 177.999 -151.5s83.666 -137.167 108.999 -222.5s36.666 -176.333 33.999 -273c-2 -82.667 -10.333 -158.667 -25 -228s-33.834 -129 -57.501 -179
s-52.167 -94.5 -85.5 -133.5s-68.333 -70.833 -105 -95.5s-77.167 -45.167 -121.5 -61.5s-87.666 -28.166 -129.999 -35.499s-86.833 -11.666 -133.5 -12.999c-54.667 -2 -109 5.66699 -163 23s-105.167 44 -153.5 80s-91.666 79.5 -129.999 130.5s-70 111.833 -95 182.5
s-39.833 146.334 -44.5 227.001c-3.33301 44 -2.83301 89 1.5 135s13 94.167 26 144.5s30 98.833 51 145.5s48.5 92.334 82.5 137.001s72.5 84.667 115.5 120s94.333 66.166 154 92.499s124.5 45.166 194.5 56.499zM649.002 1330
c-59.333 -11.333 -113.333 -29.335 -162 -54.002s-89.5 -52.5 -122.5 -83.5s-62.167 -66 -87.5 -105s-45.166 -77.167 -59.499 -114.5s-26 -76.333 -35 -117s-14.833 -76.5 -17.5 -107.5s-3.66699 -61.167 -3 -90.5c0.666992 -76.667 14.667 -149.5 42 -218.5
s62.833 -127.667 106.5 -176s93.834 -86.666 150.501 -114.999s114 -42.5 172 -42.5c37.333 0 73 2.5 107 7.5s68.667 13.833 104 26.5s67.833 28.834 97.5 48.501s58 45.334 85 77.001s50.167 68.167 69.5 109.5s35 90.666 47 147.999s19.333 120.333 22 189
c4 122.667 -11.833 230.5 -47.5 323.5s-91.334 166.333 -167.001 220s-167.167 81.5 -274.5 83.5c-0.666992 0 -5.33398 -1.5 -14.001 -4.5z" />
    <glyph glyph-name="P" unicode="P" horiz-adv-x="1030" 
d="M86 1408c0 24 4.66406 42.6689 13.9971 56.002s20.833 20.666 34.5 21.999s27.5 -1.33398 41.5 -8.00098s25.333 -16 34 -28c144 34.667 285.667 35.667 425 3c52.667 -12 100.5 -31.667 143.5 -59s78.5 -58.666 106.5 -93.999s51.5 -73.5 70.5 -114.5
s32.333 -82.333 40 -124s11 -81.667 10 -120s-6.16699 -73.166 -15.5 -104.499c-18.667 -59.333 -49 -108.833 -91 -148.5s-89.833 -67.167 -143.5 -82.5s-111.5 -22.333 -173.5 -21s-123.5 11 -184.5 29s-118.5 42.333 -172.5 73
c0.666992 -128.667 0.666992 -232.834 0 -312.501s-1 -143.834 -1 -192.501s0.666992 -83.334 2 -104.001c2.66699 -34.667 -8 -61.167 -32 -79.5s-48.167 -20.333 -72.5 -6s-36.166 43.5 -35.499 87.5c0.666992 2.66699 1.83398 30 3.50098 82s3 100.167 4 144.5
s2.16699 110.5 3.5 198.5s2 179.667 2 275c-22.667 21.333 -41.667 43.333 -57 66c-13.333 23.333 -18.666 45.833 -15.999 67.5s11.5 39 26.5 52s30.167 15.167 45.5 6.5c0 56.667 -0.833008 115.334 -2.5 176.001s-3.5 116 -5.5 166s-3.33301 81.333 -4 94zM218.997 1315
c-2.66699 -114 -1 -270 5 -468c52.667 -41.333 109.834 -74 171.501 -98s121 -38 178 -42s109.667 4.5 158 25.5s84.833 53.833 109.5 98.5c26 46 38.167 95.167 36.5 147.5s-12.167 102 -31.5 149s-46.333 88.667 -81 125s-72.334 61.5 -113.001 75.5
c-35.333 12 -71 20.167 -107 24.5s-73.5 4.5 -112.5 0.5s-73.167 -8.66699 -102.5 -14s-66.333 -13.333 -111 -24z" />
    <glyph glyph-name="Q" unicode="Q" horiz-adv-x="1428" 
d="M650 1311c-58.667 -11.333 -112.83 -30.167 -162.497 -56.5s-91.667 -56.5 -126 -90.5s-64.833 -72.167 -91.5 -114.5s-47.834 -84 -63.501 -125s-28.5 -83 -38.5 -126s-16.833 -81.167 -20.5 -114.5s-5.16699 -64.333 -4.5 -93c0.666992 -50.667 15.667 -105 45 -163
s66.666 -110.5 111.999 -157.5s98 -86.167 158 -117.5s118.333 -47 175 -47c140 0 250 30.667 330 92c-30 32.667 -59.667 69.334 -89 110.001c-21.333 29.333 -25 57.666 -11 84.999c11.333 22 28 31.333 50 28c12.667 -2 25 -9.66699 37 -23c36.667 -42 70 -78 100 -108
c53.333 76.667 89.333 179 108 307c15.333 103.333 14.5 199.833 -2.5 289.5s-47.167 165.834 -90.5 228.501s-98.5 112.167 -165.5 148.5s-141.167 55.166 -222.5 56.499c-0.666992 0 -5.33398 -1.5 -14.001 -4.5zM673.004 1443c22.667 4 42.999 -2.33398 60.999 -19.001
c87.333 -3.33301 167.5 -25.666 240.5 -66.999s134.333 -96.833 184 -166.5s85.834 -154 108.501 -253s28.334 -205.167 17.001 -318.5c-18.667 -176 -65.334 -314 -140.001 -414c62.667 -51.333 143.334 -103.666 242.001 -156.999c20.667 -11.333 23.667 -24.333 9 -39
c-15.333 -16 -38 -22.333 -68 -19c-4.66699 0 -9 0.666992 -13 2c-96.667 22.667 -183 63.334 -259 122.001c-98.667 -78 -239.667 -120 -423 -126c-66.667 -2 -135.334 12.833 -206.001 44.5s-134.167 73.834 -190.5 126.501s-103.833 115 -142.5 187
s-60.667 144.667 -66 218c-3.33301 43.333 -2.66602 89.166 2.00098 137.499s14.167 98.833 28.5 151.5s32.666 104.167 54.999 154.5s51.333 99.333 87 147s75.667 90.667 120 129s96.833 71.666 157.5 99.999s126 48.166 196 59.499z" />
    <glyph glyph-name="R" unicode="R" horiz-adv-x="1124" 
d="M242 1380c-2.66699 -94.667 -0.00292969 -300.33 7.99707 -616.997c28 -2.66699 62.833 -6.66699 104.5 -12l102.5 -13c26.667 -3.33301 57.834 -6 93.501 -8s66.834 -1.5 93.501 1.5s55.167 8.16699 85.5 15.5s59.333 18.833 87 34.5s54.834 35.167 81.501 58.5
c32.667 28.667 54.5 64.167 65.5 106.5s12 84.666 3 126.999s-26.333 83.166 -52 122.499s-57.167 70.666 -94.5 93.999c-46 29.333 -93.333 52.666 -142 69.999s-97.667 28.5 -147 33.5s-96.833 6.33301 -142.5 4s-94.5 -8.16602 -146.5 -17.499zM109.997 1353
c-3.33301 -0.666992 -7.66992 -1.66406 -13.0029 -2.99707c-23.333 -6 -42.166 -0.5 -56.499 16.5s-19.333 36 -15 57s16.166 33.5 35.499 37.5l58 11c8.66699 15.333 21.667 24 39 26s33.333 -2 48 -12c62 9.33301 120.5 15 175.5 17s113.833 0 176.5 -6
s124.5 -19.833 185.5 -41.5s118.5 -50.834 172.5 -87.501c61.333 -42 108.333 -95.833 141 -161.5s46.667 -134.834 42 -207.501s-28.667 -138.667 -72 -198c-29.333 -40.667 -64.166 -74.834 -104.499 -102.501s-81.833 -48.167 -124.5 -61.5s-88.667 -22 -138 -26
s-96.5 -3.83301 -141.5 0.5s-91.5 11.5 -139.5 21.5l113 -123l108.5 -119.5c28.333 -30.333 62.833 -65.166 103.5 -104.499s85.167 -77.666 133.5 -114.999s102.5 -75.333 162.5 -114c18 -11.333 22.333 -26.333 13 -45c-12 -22 -34 -32.667 -66 -32
c-29.333 0 -60.666 10.667 -93.999 32c-48.667 31.333 -92.834 61.833 -132.501 91.5s-73.167 56.167 -100.5 79.5s-57.166 52 -89.499 86l-79 85.5l-91.5 105.5l-105 121c8 -272.667 14.333 -443.334 19 -512.001c2.66699 -34.667 -8 -61.167 -32 -79.5
s-48.167 -20.333 -72.5 -6s-36.166 43.5 -35.499 87.5c2.66699 79.333 -5.33301 506.666 -24 1282z" />
    <glyph glyph-name="S" unicode="S" 
d="M828 1289c-36.667 18 -84.001 28.833 -142.001 32.5s-116.333 1 -175 -8s-114 -21.167 -166 -36.5s-94 -33.5 -126 -54.5s-47.333 -41.5 -46 -61.5c3.33301 -30.667 18.166 -65.334 44.499 -104.001s60.166 -77.5 101.499 -116.5s86.666 -79.167 135.999 -120.5
l150.5 -123l142.5 -117.5c44 -37.667 82.333 -74.834 115 -111.501s54 -69 64 -97c14.667 -38.667 22.667 -74.667 24 -108s-3 -62.666 -13 -87.999s-23.833 -48.333 -41.5 -69s-39 -38 -64 -52s-51 -26.167 -78 -36.5s-55.833 -18.5 -86.5 -24.5s-59.667 -10.333 -87 -13
s-54.333 -4 -81 -4c-101.333 0 -190.166 17.5 -266.499 52.5s-136.833 87.5 -181.5 157.5c-25.333 40 -26.666 78.667 -3.99902 116c16 26 36 39.667 60 41c28 2 46 -15 54 -51v-2c13.333 -63.333 61 -114.333 143 -153c82.667 -38 172 -53.333 268 -46
c98.667 8.66699 168 40.334 208 95.001c24.667 34 34 75 28 123c-2.66699 23.333 -17.167 50.833 -43.5 82.5s-60.166 64.834 -101.499 99.501l-136.5 110l-152.5 121c-52 42 -100.833 83.333 -146.5 124s-86.167 82.834 -121.5 126.501s-60.333 84.5 -75 122.5
c-4.66699 13.333 -7 28.666 -7 45.999s3 36.166 9 56.499s17.333 41.166 34 62.499s37.667 40.333 63 57c53.333 34.667 115.833 62.5 187.5 83.5s141.167 34 208.5 39s129.833 5.5 187.5 1.5s104.834 -12 141.501 -24c35.333 -11.333 54.333 -33 57 -65
c2.66699 -27.333 -6 -47.666 -26 -60.999c-17.333 -12 -37 -12.667 -59 -2z" />
    <glyph glyph-name="T" unicode="T" horiz-adv-x="1346" 
d="M88 1494c60.667 -2 119.498 -3.66406 176.498 -4.99707s105.5 -2.33301 145.5 -3s89 -0.666992 147 0s99.333 1 124 1s70.334 1.16699 137.001 3.5s108.667 3.66602 126 3.99902s67.833 2.16602 151.5 5.49902s135.834 5.33301 156.501 6c30.667 1.33301 52 -11 64 -37
c10 -22.667 7.66699 -41.667 -7 -57c-7.33301 -8 -17.333 -12.667 -30 -14c-204.667 -17.333 -389.667 -27.333 -555 -30c-4.66699 -117.333 -6 -347.5 -4 -690.5s5.33301 -550.833 10 -623.5c2.66699 -34 -8 -60.333 -32 -79s-48.333 -20.834 -73 -6.50098
s-36.334 43.5 -35.001 87.5c2 68.667 3.16699 273 3.5 613s-0.5 572.667 -2.5 698c-126 0.666992 -293.667 5 -503 13c-24 1.33301 -42 11.666 -54 30.999s-13.167 38.333 -3.5 57s28.834 27.334 57.501 26.001z" />
    <glyph glyph-name="U" unicode="U" horiz-adv-x="1182" 
d="M34 1400c0.666992 17.333 5.83105 32.002 15.498 44.002s20.834 19.5 33.501 22.5s25.167 3 37.5 0s22.666 -10.667 30.999 -23s12.166 -27.833 11.499 -46.5c-0.666992 -14 -2 -39.333 -4 -76c-3.33301 -56 -5.66602 -101.167 -6.99902 -135.5s-2.5 -86.833 -3.5 -157.5
s0 -130 3 -178s8.5 -106.5 16.5 -175.5s18.667 -127.167 32 -174.5s31.5 -97.333 54.5 -150s49.833 -94.834 80.5 -126.501s68.167 -58.334 112.5 -80.001s93.5 -32.834 147.5 -33.501s102.833 9.33301 146.5 30s80.667 48.667 111 84s56.833 78.5 79.5 129.5
s40.334 104.333 53.001 160s22.5 116.167 29.5 181.5s11.167 128.166 12.5 188.499s0.833008 122.833 -1.5 187.5s-5.66602 121.834 -9.99902 171.501s-9.5 98.167 -15.5 145.5c-4.66699 40 8.33301 67.333 39 82c26 11.333 50.333 9.66602 73 -5.00098
c13.333 -8.66699 21 -21.334 23 -38.001c9.33301 -80.667 15.833 -162.667 19.5 -246s4 -173.166 1 -269.499s-10.5 -186.5 -22.5 -270.5s-31 -165.667 -57 -245s-58.333 -145.666 -97 -198.999c-42 -58 -90 -104.167 -144 -138.5s-109 -55.333 -165 -63
s-112.167 -6 -168.5 5s-109.5 31.833 -159.5 62.5s-94.667 68.334 -134 113.001c-148.667 172 -206.667 580 -174 1224z" />
    <glyph glyph-name="V" unicode="V" horiz-adv-x="1319" 
d="M29 1383c-8.66699 26 -5 48.832 11 68.499s35.5 28.167 58.5 25.5s38.5 -18 46.5 -46c53.333 -180.667 132.166 -407.167 236.499 -679.5s194.166 -482.833 269.499 -631.5l98 221.5l121 291.5l108 268l115.5 292l87.5 223c6.66699 16 15.667 27.333 27 34
s22.333 8.33398 33 5.00098s21 -8.83301 31 -16.5s16.667 -17.5 20 -29.5s3 -23.667 -1 -35c-251.333 -651.333 -432 -1098.67 -542 -1342c-12 -26.667 -31.667 -44.334 -59 -53.001s-54.166 -8.16699 -80.499 1.5s-44.5 25.5 -54.5 47.5
c-74.667 152.667 -162.667 362.667 -264 630s-188.666 509 -261.999 725z" />
    <glyph glyph-name="W" unicode="W" horiz-adv-x="1880" 
d="M32 1380c-11.333 26.667 -9.99805 49.3389 4.00195 68.0059s32.833 25.5 56.5 20.5s42.5 -22.5 56.5 -52.5c80.667 -182 154.667 -383.833 222 -605.5s125.333 -443.834 174 -666.501l129.5 335.5c53.667 143 99.334 260.167 137.001 351.5s70.834 158.333 99.501 201
c12 18.667 30.167 30 54.5 34s48.166 0.833008 71.499 -9.5s40.333 -25.5 51 -45.5c53.333 -101.333 111 -237 173 -407s108.333 -318.333 139 -445c56 175.333 126 417.5 210 726.5s133 484.833 147 527.5c10 32 26 42.667 48 32
c21.333 -9.33301 36.666 -30.333 45.999 -63c6 -22.667 6.66699 -44.334 2 -65.001c-64 -253.333 -182 -677.333 -354 -1272c-5.33301 -16.667 -15.333 -31.167 -30 -43.5s-31.334 -20.666 -50.001 -24.999s-37.167 -5.83301 -55.5 -4.5s-34.166 6.83301 -47.499 16.5
s-21.333 22.5 -24 38.5c-28.667 162 -63.834 307.667 -105.501 437s-104.5 272.666 -188.5 429.999c-42 -65.333 -98.833 -191.833 -170.5 -379.5s-125.834 -341.167 -162.501 -460.5c-5.33301 -16.667 -16.5 -30.834 -33.5 -42.501s-36 -18.834 -57 -21.501
s-42 -2.33398 -63 0.999023s-39.333 11.666 -55 24.999s-25.167 30 -28.5 50c-33.333 181.333 -87 394.333 -161 639s-152.333 469.667 -235 675z" />
    <glyph glyph-name="X" unicode="X" horiz-adv-x="1415" 
d="M53 1341c-32 34.667 -37.3311 67.3379 -15.998 98.0049c15.333 22 37 33 65 33c21.333 0.666992 38 -7.33301 50 -24c20.667 -28.667 95.5 -120.667 224.5 -276l305.5 -361l191 214l249 270.5l133 143.5c32 35.333 64 43.666 96 24.999
c23.333 -13.333 36.333 -33.666 39 -60.999c2.66699 -22 -4 -39.667 -20 -53c-29.333 -25.333 -118.333 -116.833 -267 -274.5s-259.667 -279.167 -333 -364.5c69.333 -78.667 175.333 -191.5 318 -338.5s227.667 -231.167 255 -252.5c28.667 -22.667 38 -50.334 28 -83.001
c-8.66699 -26.667 -25.334 -44 -50.001 -52c-32.667 -10 -64.334 2 -95.001 36l-231.5 248c-154.333 165.333 -258.166 278.666 -311.499 339.999l-174 -200l-225 -257c-65.333 -75.333 -103.333 -121 -114 -137c-19.333 -30.667 -46 -42.334 -80 -35.001
c-27.333 6 -46 21.333 -56 46c-12.667 31.333 -3.66699 63.666 27 96.999l256 278l278 310l-186 216l-229.5 269c-67.667 79.333 -109.834 127.666 -126.501 144.999z" />
    <glyph glyph-name="Y" unicode="Y" horiz-adv-x="1160" 
d="M570 16c-20.667 -40 -49.001 -55.332 -85.001 -45.999c-26 6.66699 -44.333 22 -55 46c-10.667 22.667 -8.33398 42.334 6.99902 59.001c13.333 15.333 28 35.666 44 60.999s32.167 54 48.5 86l42 83l39.5 83c14.667 32 23.334 50.667 26.001 56
c-62.667 140 -156.167 306.5 -280.5 499.5s-229.166 336.5 -314.499 430.5c-17.333 20 -21.666 43.833 -12.999 71.5s24 44.5 46 50.5s45 -3.66699 69 -29c82 -103.333 177.667 -240.833 287 -412.5s198.666 -326.167 267.999 -463.5
c71.333 170.667 135.5 333.5 192.5 488.5s87.833 255.167 92.5 300.5c4 33.333 21 54.333 51 63c29.333 8 55 1.66699 77 -19c24.667 -24 30 -57.667 16 -101c-20 -62.667 -65.167 -179.667 -135.5 -351l-219.5 -516c1.33301 -2.66699 2.33301 -5 3 -7
c13.333 -29.333 13.5 -54.333 0.5 -75s-31.167 -31.334 -54.5 -32.001l-66 -145.5c-39.333 -87 -68 -147.167 -86 -180.5z" />
    <glyph glyph-name="Z" unicode="Z" horiz-adv-x="1243" 
d="M109 1336c-28.667 -2.66699 -49.1689 6.00391 -61.502 26.0039s-14 40.5 -5 61.5s24.5 31.833 46.5 32.5c422 15.333 761.333 18.333 1018 9c28.667 -1.33301 52 -9.33301 70 -24s29 -31.834 33 -51.501s2.83301 -40.167 -3.5 -61.5s-17.5 -39 -33.5 -53
c-124.667 -108.667 -294.667 -287.334 -510 -536.001s-382.333 -458 -501 -628c136 10 302.667 15.833 500 17.5s364.333 -1.16602 501 -8.49902c14.667 -0.666992 26.834 -5.33398 36.501 -14.001s15.334 -19 17.001 -31s1.16699 -23.833 -1.5 -35.5
s-8.83398 -21.334 -18.501 -29.001s-21.5 -11.167 -35.5 -10.5c-141.333 7.33301 -311.166 11 -509.499 11s-373.5 -4 -525.5 -12c-22.667 -1.33301 -42.167 3.16699 -58.5 13.5s-27.666 23.333 -33.999 39s-8.83301 32.5 -7.5 50.5s6.66602 33.667 15.999 47
c87.333 120 190 253.333 308 400s245.333 295.667 382 447s251 266.666 343 345.999c-121.333 4.66699 -219.5 8 -294.5 10s-178.167 2.16699 -309.5 0.5s-252 -7.16699 -362 -16.5z" />
    <glyph glyph-name="bracketleft" unicode="[" horiz-adv-x="606" 
d="M46 1504c-2 77.333 35.333 117.335 112 120.002c51.333 2 177.333 -0.666992 378 -8c34.667 -1.33301 57 -12.333 67 -33s7.66699 -40.834 -7 -60.501s-34.667 -28.834 -60 -27.501c-36 2.66699 -83.833 4 -143.5 4s-110.167 -0.333008 -151.5 -1l-62 -2
c-4 -182.667 -5 -459.667 -3 -831s5.33301 -593 10 -665c0 -2 20.667 -4.16699 62 -6.5s92.333 -3.5 153 -3.5s112.334 2 155.001 6c20.667 2 36 -7.66699 46 -29s10.667 -43 2 -65s-25.334 -32.667 -50.001 -32c-10.667 0 -36.667 0.833008 -78 2.5
s-77.666 2.83398 -108.999 3.50098s-68.833 1 -112.5 1s-81.834 -1 -114.501 -3s-56.167 7.5 -70.5 28.5s-21.5 53.5 -21.5 97.5c0 943.333 -0.666992 1444.67 -2 1504z" />
    <glyph glyph-name="backslash" unicode="\" horiz-adv-x="703" 
d="M568 -60c-24.667 76 -115.502 331 -272.502 765l-285.5 783c-18 48 -13.333 82.333 14 103c20.667 16 44.334 17.333 71.001 4c23.333 -11.333 39 -31 47 -59c19.333 -72 109.333 -334.333 270 -787s255.667 -710.334 285 -773.001
c12.667 -26.667 8.33398 -51.667 -12.999 -75c-20 -21.333 -42.333 -28 -67 -20c-22 6.66699 -38.333 26.334 -49 59.001z" />
    <glyph glyph-name="bracketright" unicode="]" horiz-adv-x="606" 
d="M560 1504c-1.33301 -59.333 -1.99707 -560.669 -1.99707 -1504c0 -44 -7 -76.5 -21 -97.5s-37.5 -30.5 -70.5 -28.5s-71.333 3 -115 3s-81.167 -0.333008 -112.5 -1s-67.5 -1.83398 -108.5 -3.50098s-67.167 -2.5 -78.5 -2.5c-24.667 -0.666992 -41.334 10 -50.001 32
s-8 43.667 2 65s25.333 31 46 29c43.333 -4 95.166 -6 155.499 -6s111.166 1.16699 152.499 3.5s62 4.5 62 6.5c4.66699 72 8 293.667 10 665s1 648.333 -3 831c-156.667 4.66699 -275.667 4.33398 -357 -0.999023c-24.667 -1.33301 -44.5 7.83398 -59.5 27.501
s-17.5 39.834 -7.5 60.501s32.333 31.667 67 33c200.667 7.33301 326.667 10 378 8c76.667 -2.66699 114 -42.667 112 -120z" />
    <glyph glyph-name="asciicircum" unicode="^" horiz-adv-x="617" 
d="M31 1047c57.333 140 117.331 271.003 179.998 393.003c10.667 21.333 28.667 36.666 54 45.999s51.333 9.66602 78 0.999023s47.334 -25.667 62.001 -51c54.667 -97.333 116 -230 184 -398c4.66699 -10.667 4.5 -22.167 -0.5 -34.5s-12.833 -22.333 -23.5 -30
s-22.167 -13.167 -34.5 -16.5s-24.666 -1.66602 -36.999 5.00098s-21.5 18 -27.5 34c-44.667 113.333 -97.667 230.666 -159 351.999c-25.333 -44.667 -49.5 -91.5 -72.5 -140.5s-38.833 -84.667 -47.5 -107l-40 -101.5c-6.66699 -16 -16.167 -27.833 -28.5 -35.5
s-24.5 -10.334 -36.5 -8.00098s-23.333 7.33301 -34 15s-17.667 18.5 -21 32.5s-2 28.667 4 44z" />
    <glyph glyph-name="underscore" unicode="_" horiz-adv-x="1085" 
d="M1089 -136c-93.333 2 -278.834 2.49902 -556.501 1.49902s-455.167 -2.5 -532.5 -4.5c-44 -1.33301 -73.167 10.167 -87.5 34.5s-12.333 48.5 6 72.5s44.833 35 79.5 33c78 -5.33301 259.333 -8.5 544 -9.5s465.667 1.83301 543 8.5
c26.667 2.66699 48.834 -7.66602 66.501 -30.999s21.5 -46.833 11.5 -70.5s-34.667 -35.167 -74 -34.5z" />
    <glyph glyph-name="grave" unicode="`" horiz-adv-x="541" 
d="M43 1440c-10 9.33301 -15.833 20.833 -17.5 34.5s0.5 26.334 6.5 38.001s14 21.667 24 30s22.167 12.166 36.5 11.499s28.5 -6.66699 42.5 -18c62.667 -50.667 119.5 -92.5 170.5 -125.5s110.167 -66.5 177.5 -100.5c21.333 -14.667 32.5 -34.167 33.5 -58.5
s-9.33301 -44.833 -31 -61.5s-45.834 -18 -72.501 -4l-123 70c-30.667 18 -69.167 43.667 -115.5 77s-90.166 69 -131.499 107z" />
    <glyph glyph-name="a" unicode="a" 
d="M774 223c-36 -63.333 -78.835 -114.169 -128.502 -152.502s-99.5 -62.666 -149.5 -72.999s-100.667 -11.333 -152 -3s-97.666 24.666 -138.999 48.999s-76.833 54.5 -106.5 90.5s-49.167 74.667 -58.5 116c-12.667 64.667 -17 127.5 -13 188.5s17.667 119.5 41 175.5
s53.333 106.667 90 152s81.167 84.666 133.5 117.999s109.166 57.333 170.499 72c40.667 10 77.5 15.667 110.5 17s61 -0.666992 84 -6s43.333 -14 61 -26s31.834 -25.5 42.501 -40.5s20 -32.5 28 -52.5c6.66699 -15.333 4.66699 -31 -6 -47
c18.667 -7.33301 28.667 -23 30 -47c6 -91.333 11.667 -162.5 17 -213.5s13.833 -101.167 25.5 -150.5s26.5 -92.166 44.5 -128.499s42.333 -77.5 73 -123.5c16 -22.667 21 -53 15 -91c-4.66699 -33.333 -15.667 -50.333 -33 -51c-5.33301 0 -10.666 1.33301 -15.999 4
c-31.333 16.667 -58 40.834 -80 72.501s-50 81.834 -84 150.501zM701.998 769.997c-9.33301 2.66699 -17.166 7.33496 -23.499 14.002s-12.166 13.667 -17.499 21s-12.5 14.333 -21.5 21s-23.5 12 -43.5 16s-45.333 5 -76 3c-34 -1.33301 -69.167 -11.333 -105.5 -30
s-70.333 -42.834 -102 -72.501s-60 -64.5 -85 -104.5s-44.333 -81.333 -58 -124s-19.834 -87.5 -18.501 -134.5s11.666 -91.167 30.999 -132.5c16.667 -34.667 40 -63.834 70 -87.501s63.667 -38.667 101 -45s75.666 -4.83301 114.999 4.5s78.333 30.5 117 63.5
s72.334 75.833 101.001 128.5c12.667 23.333 21 58.5 25 105.5s4.33301 96.5 1 148.5s-9.33301 106.333 -18 163c-2 15.333 0.666992 29.333 8 42z" />
    <glyph glyph-name="b" unicode="b" horiz-adv-x="908" 
d="M154 141c17.333 -10 41.8369 -20 73.5039 -30s68.667 -17.833 111 -23.5s84.166 -7.83398 125.499 -6.50098s81.666 9.83301 120.999 25.5s70.666 38.167 93.999 67.5c50 63.333 79.833 148.833 89.5 256.5s-4.83301 201.5 -43.5 281.5
c-20.667 44.667 -49.334 78.5 -86.001 101.5s-75.167 34.667 -115.5 35s-81.166 -8.66699 -122.499 -27s-78.666 -44.5 -111.999 -78.5c-28.667 -30 -53.334 -69.333 -74.001 -118s-35.834 -97.834 -45.501 -147.501s-16.5 -98.667 -20.5 -147s-5.33301 -89.166 -4 -122.499
s4.33301 -55.666 9 -66.999zM53.0039 1401c0.666992 14.667 5.16504 26.501 13.498 35.501s18.333 14 30 15s23.167 -0.166992 34.5 -3.5s20.833 -9.83301 28.5 -19.5s11.167 -20.834 10.5 -33.501c-3.33301 -78 -5.66602 -148.833 -6.99902 -212.5
s-2.33301 -133.334 -3 -209.001s-1.66699 -141.5 -3 -197.5c39.333 55.333 88.166 100.333 146.499 135s120 55.167 185 61.5s129.5 -4.16699 193.5 -31.5c42 -18.667 78.5 -50.5 109.5 -95.5s53.833 -97 68.5 -156s22.667 -121 24 -186s-6.5 -130.333 -23.5 -196
s-42.167 -124.167 -75.5 -175.5c-27.333 -43.333 -62 -77.833 -104 -103.5s-84 -42 -126 -49s-86.667 -9.66699 -134 -8s-89 6.33398 -125 14.001l-102.5 22c-32.333 7 -53.5 10.5 -63.5 10.5c-20.667 -12.667 -38 -19 -52 -19s-24.833 5.83301 -32.5 17.5
s-13.167 24.5 -16.5 38.5s-4.66602 28.667 -3.99902 44c4.66699 154.667 8.33398 290.167 11.001 406.5s5.66699 264 9 443s6 329.833 8 452.5z" />
    <glyph glyph-name="c" unicode="c" horiz-adv-x="916" 
d="M722 768c-14.667 0 -26.332 2.83301 -34.999 8.5s-15.667 12.667 -21 21s-12.166 16.333 -20.499 24s-23 14 -44 19s-48.167 6.5 -81.5 4.5c-34 -1.33301 -69.333 -11.333 -106 -30s-70.834 -42.834 -102.501 -72.501s-60 -64.667 -85 -105s-44.333 -81.833 -58 -124.5
s-19.834 -87.334 -18.501 -134.001s12 -90.667 32 -132c18 -36 44 -66 78 -90s73.167 -39 117.5 -45s90.166 -3.66699 137.499 7s95.666 34.334 144.999 71.001s93.333 83.667 132 141c16.667 24 37.334 27.333 62.001 10c21.333 -15.333 33.333 -35.333 36 -60
c1.33301 -14.667 -2 -27 -10 -37c-39.333 -52 -81.833 -96.333 -127.5 -133s-90.334 -64 -134.001 -82s-88 -30.167 -133 -36.5s-87.333 -6.16602 -127 0.500977s-77.667 17.667 -114 33s-68.166 34.5 -95.499 57.5s-50.5 48.833 -69.5 77.5s-32.167 58.334 -39.5 89.001
c-12.667 64.667 -17 127.5 -13 188.5s17.667 119.5 41 175.5s53.333 106.667 90 152s81.167 84.666 133.5 117.999s109.166 57.333 170.499 72c40.667 10 77.5 15.667 110.5 17s61 -0.666992 84 -6s43.333 -14 61 -26s31.834 -25.5 42.501 -40.5s20 -32.5 28 -52.5
c8 -18 4.33301 -35.833 -11 -53.5s-33.666 -26.5 -54.999 -26.5z" />
    <glyph glyph-name="d" unicode="d" horiz-adv-x="918" 
d="M726 1440c0.666992 16.667 12.002 28.333 34.002 35c26.667 7.33301 48.667 1.66602 66 -17.001c12 -14 17.333 -33 16 -57c-10.667 -224 -14.834 -411.833 -12.501 -563.5s12.5 -317.834 30.5 -498.501c14 -10.667 23.5 -25.334 28.5 -44.001s2.16699 -35.667 -8.5 -51
l-9 -13c6 -57.333 13.333 -122.333 22 -195c2 -16 -0.666992 -29.667 -8 -41s-17.166 -18.666 -29.499 -21.999s-24.833 -4.33301 -37.5 -3s-23.834 6.33301 -33.501 15s-15.5 19.667 -17.5 33l-12 95c-49.333 -40 -101.333 -70.5 -156 -91.5s-106.5 -32.167 -155.5 -33.5
s-96.5 4.33398 -142.5 17.001s-86.667 31.334 -122 56.001s-65.166 53.334 -89.499 86.001s-40.833 67 -49.5 103c-12.667 64.667 -17 127.5 -13 188.5s17.667 119.5 41 175.5s53.333 106.667 90 152s81.167 84.666 133.5 117.999s109.166 57.333 170.499 72
c99.333 24 181 18.667 245 -16c1.33301 125.333 7.66602 292 18.999 500zM739.002 251.999c-20 188 -31.0029 366.667 -33.0029 536l-14.5 14.5c-7.66699 7.66699 -14.334 13.167 -20.001 16.5s-14.167 7.5 -25.5 12.5s-26 8.16699 -44 9.5s-39 1.66602 -63 0.999023
c-41.333 -2 -84.166 -14.5 -128.499 -37.5s-84.833 -53.5 -121.5 -91.5s-68 -81.667 -94 -131s-41.667 -101.5 -47 -156.5s1 -111.167 19 -168.5c12 -34.667 32.833 -64.167 62.5 -88.5s64.834 -41.166 105.501 -50.499s83.834 -12 129.501 -8s92.834 18.167 141.501 42.5
s93 57.5 133 99.5z" />
    <glyph glyph-name="e" unicode="e" horiz-adv-x="947" 
d="M130 504l-43.0039 5.99707c-28 4.66699 -47 18.5 -57 41.5s-7.83301 43.5 6.5 61.5s36.5 23.667 66.5 17c14.667 -3.33301 29.667 -6.33301 45 -9c16.667 66.667 43.667 126.334 81 179.001c24.667 34.667 53 65 85 91s64.833 46 98.5 60s68.5 24.5 104.5 31.5
s70.833 9.16699 104.5 6.5s66.334 -8 98.001 -16s60.334 -19.667 86.001 -35s47.667 -32.5 66 -51.5s32 -40.667 41 -65s11.833 -49.5 8.5 -75.5c-4.66699 -39.333 -17.167 -74.333 -37.5 -105s-47.166 -55.667 -80.499 -75s-70.333 -35.333 -111 -48
s-85.834 -21.5 -135.501 -26.5s-99.167 -7.66699 -148.5 -8s-100.666 1.83398 -153.999 6.50098c-3.33301 -66 7.5 -127.833 32.5 -185.5s65.167 -105.167 120.5 -142.5c34.667 -23.333 71.167 -37.666 109.5 -42.999s75.333 -2.5 111 8.5s68.5 25.167 98.5 42.5
s58.333 38 85 62c14.667 13.333 30.167 19.833 46.5 19.5s29 -5.83301 38 -16.5s14.333 -23.834 16 -39.501s-5.16602 -32.167 -20.499 -49.5c-32 -37.333 -75.167 -69.833 -129.5 -97.5s-115.5 -45.5 -183.5 -53.5s-134.333 3 -199 33
c-56.667 26.667 -104.667 65.334 -144 116.001s-67.5 106.667 -84.5 168s-23.833 125.333 -20.5 192zM270.996 602.997c59.333 -8 118.83 -10.666 178.497 -7.99902s113.834 8.66699 162.501 18s90.167 25 124.5 47s55.833 48.667 64.5 80c6 20.667 1.33301 41 -14 61
s-37.666 36.167 -66.999 48.5s-61.666 20.833 -96.999 25.5s-72.5 2.66699 -111.5 -6s-73.167 -24.334 -102.5 -47.001c-30.667 -23.333 -58 -54.333 -82 -93s-42.667 -80.667 -56 -126z" />
    <glyph glyph-name="f" unicode="f" horiz-adv-x="858" 
d="M753 1218c-13.333 37.333 -34.335 71.6641 -63.002 102.997s-61.5 54 -98.5 68s-75.167 13 -114.5 -3c-34.667 -15.333 -65 -38.333 -91 -69s-45.667 -64.334 -59 -101.001s-23 -71.667 -29 -105s-9.33301 -65.666 -10 -96.999v-69
c193.333 4.66699 364.333 19.667 513 45c28.667 4.66699 49 -1.66602 61 -18.999s13.333 -36.666 4 -57.999s-26 -34.666 -50 -39.999c-141.333 -31.333 -316 -49 -524 -53c4.66699 -112.667 15.167 -228 31.5 -346s40.5 -263 72.5 -435c6.66699 -34 -4 -56 -32 -66
c-25.333 -8.66699 -49.333 -4.66699 -72 12c-15.333 11.333 -24.666 26.333 -27.999 45c-50 274 -81 536.667 -93 788c-28.667 0 -58.667 0.333008 -90 1c-22.667 0 -39.167 10.833 -49.5 32.5s-10.166 42.834 0.500977 63.501s30 30.667 58 30
c24 -0.666992 49.333 -1 76 -1c0 18 -0.333008 36.333 -1 55c0 39.333 2.16699 78 6.5 116s12.5 77.667 24.5 119s27.333 78.5 46 111.5s43.5 63 74.5 90s66.5 46.5 106.5 58.5c48.667 16 93.834 23.167 135.501 21.5s78.667 -8.33398 111 -20.001s61.666 -29 87.999 -52
s48.5 -47.833 66.5 -74.5s33.333 -56 46 -88c16 -41.333 11.667 -73.333 -13 -96c-20 -18 -42 -21.667 -66 -11c-17.333 7.33301 -30 22 -38 44z" />
    <glyph glyph-name="g" unicode="g" horiz-adv-x="851" 
d="M615 800c-0.666992 9.33301 0.331055 17.999 2.99805 25.999c-26.667 20 -69.667 28 -129 24c-43.333 -3.33301 -89.333 -23.166 -138 -59.499s-90.834 -82.666 -126.501 -138.999s-60 -119.5 -73 -189.5s-5.16699 -140 23.5 -210
c10.667 -26 27.334 -49.167 50.001 -69.5s48.334 -36.333 77.001 -48s59.667 -18.167 93 -19.5s65.833 3.16699 97.5 13.5s62 28.666 91 54.999s52.833 59.5 71.5 99.5c-3.33301 48 -7.16602 100.333 -11.499 157l-15 191zM665.998 102.999
c-33.333 -35.333 -71.1719 -62.3291 -113.505 -80.9961s-84.5 -28.334 -126.5 -29.001s-84.333 5.16602 -127 17.499s-81.167 30.166 -115.5 53.499s-64.166 51.666 -89.499 84.999s-42.333 69 -51 107c-20 84.667 -23 165.667 -9 243s39.667 147 77 209
s83.833 114.5 139.5 157.5s115.167 71.833 178.5 86.5c179.333 42.667 292.666 6 339.999 -110c5.33301 -14 4.33301 -28 -3 -42s-18.333 -23.667 -33 -29c29.333 -269.333 46.166 -505.833 50.499 -709.5s-2.5 -380.834 -20.5 -531.501
c-7.33301 -66.667 -22.666 -125.834 -45.999 -177.501s-51.166 -92.667 -83.499 -123s-68.666 -54.5 -108.999 -72.5s-81.666 -28 -123.999 -30s-84.666 1.33301 -126.999 10s-81.833 22.334 -118.5 41.001s-69.334 41.834 -98.001 69.501s-51 57.834 -67 90.501
c-5.33301 12.667 -7.33301 24.667 -6 36s5.66602 20.333 12.999 27s15.5 11.5 24.5 14.5s18.5 2.66699 28.5 -1s18.333 -10.5 25 -20.5c19.333 -29.333 44 -55.333 74 -78s62.333 -40.834 97 -54.501s70.834 -21 108.501 -22s73.334 4.33301 107.001 16s64.667 33 93 64
s50.5 69.833 66.5 116.5c24.667 74.667 40.334 171 47.001 289s6 244 -2 378z" />
    <glyph glyph-name="h" unicode="h" horiz-adv-x="876" 
d="M713 50l5.99512 79.9951c12.667 150.667 18.834 268.334 18.501 353.001s-10.5 160.334 -30.5 227.001c-14 47.333 -36.5 83.833 -67.5 109.5s-65 39.167 -102 40.5s-76 -7.66699 -117 -27s-78.167 -47.666 -111.5 -84.999c-16 -18 -30.5 -37 -43.5 -57
s-24.333 -42 -34 -66s-18.167 -46.167 -25.5 -66.5s-13.5 -45.166 -18.5 -74.499l-12.5 -71c-3.33301 -18 -6.33301 -43.333 -9 -76s-4.5 -56.167 -5.5 -70.5s-2.16699 -38.333 -3.5 -72s-2.33301 -55.167 -3 -64.5c0.666992 -12 0.833984 -25.667 0.500977 -41
s-1 -29.666 -2 -42.999s-5 -25.333 -12 -36s-17.167 -17.667 -30.5 -21c-16 -4 -30 -3.83301 -42 0.5s-21 11.833 -27 22.5s-10.333 22.334 -13 35.001s-3.66699 26.334 -3 41.001c5.33301 177.333 15 615 29 1313c0.666992 14.667 5.16699 26.5 13.5 35.5s18.333 14 30 15
s23.167 -0.166992 34.5 -3.5s20.833 -9.83301 28.5 -19.5s11.167 -20.834 10.5 -33.501c-3.33301 -78 -5.66602 -148.833 -6.99902 -212.5s-2.33301 -133.334 -3 -209.001s-1.66699 -141.5 -3 -197.5c40 56 88.5 102.167 145.5 138.5s117.833 59 182.5 68
s129 -0.5 193 -28.5c24.667 -11.333 46.5 -26.166 65.5 -44.499s34.667 -41.833 47 -70.5s22.833 -56.334 31.5 -83.001s14.834 -61.834 18.501 -105.501s6.5 -81 8.5 -112s2.33301 -73.833 1 -128.5s-2.66602 -97.5 -3.99902 -128.5s-3.66602 -76.833 -6.99902 -137.5
c-2 -37.333 -3.66699 -65.333 -5 -84c-1.33301 -33.333 -16.333 -55.333 -45 -66c-25.333 -9.33301 -46.333 -5.66602 -63 11.001c-10.667 11.333 -15.334 26.333 -14.001 45z" />
    <glyph glyph-name="i" unicode="i" horiz-adv-x="440" 
d="M140 1356c1.33301 12.667 7.16504 24.001 17.498 34.001s22 17.333 35 22s26.667 6.16699 41 4.5s25.833 -7.16699 34.5 -16.5c14.667 -14.667 24.334 -33.334 29.001 -56.001s3.16699 -44 -4.5 -64s-21.167 -33.333 -40.5 -40c-28.667 -10 -55.167 -1.33301 -79.5 26
s-35.166 57.333 -32.499 90zM149.999 930.001c-0.666992 39.333 10.998 64 34.998 74s47.5 6.16699 70.5 -11.5s33.167 -39.834 30.5 -66.501c-6.66699 -68 -10.167 -210.667 -10.5 -428s1.83398 -360.666 6.50098 -429.999c2.66699 -34.667 -8 -61.167 -32 -79.5
s-48.167 -20.333 -72.5 -6s-36.166 43.5 -35.499 87.5c2.66699 92.667 5.16699 239.167 7.5 439.5s2.5 340.5 0.5 420.5z" />
    <glyph glyph-name="j" unicode="j" horiz-adv-x="440" 
d="M140 1356c1.33301 12.667 7.16504 24.001 17.498 34.001s22 17.333 35 22s26.667 6.16699 41 4.5s25.833 -7.16699 34.5 -16.5c14.667 -14.667 24.334 -33.334 29.001 -56.001s3.16699 -44 -4.5 -64s-21.167 -33.333 -40.5 -40c-28.667 -10 -55.167 -1.33301 -79.5 26
s-35.166 57.333 -32.499 90zM149.999 930.001c-0.666992 39.333 11.001 64.001 35.001 74.001s47.5 6.16699 70.5 -11.5s33.167 -39.834 30.5 -66.501c-6 -78 -8 -356.5 -6 -835.5s5.66699 -757.833 11 -836.5c2.66699 -34.667 -8 -61.167 -32 -79.5s-48.333 -20.333 -73 -6
s-36.334 43.5 -35.001 87.5c2 73.333 2.83301 348.333 2.5 825s-1.5 759.667 -3.5 849z" />
    <glyph glyph-name="k" unicode="k" horiz-adv-x="891" 
d="M26 1365c-2 24 0.835938 43.3281 8.50293 57.9951s17.667 22.834 30 24.501s25 0.333984 38 -3.99902s24.333 -12.833 34 -25.5s15.167 -27 16.5 -43c6.66699 -124.667 11.667 -312 15 -562c124 119.333 282.667 210.333 476 273c34 11.333 63 5.33301 87 -18
c20.667 -20 25.667 -41 15 -63c-7.33301 -14.667 -21.333 -25.667 -42 -33c-110 -39.333 -202.333 -82.5 -277 -129.5s-144.334 -107.833 -209.001 -182.5c-4.66699 -4.66699 -7.66699 -10.167 -9 -16.5s-0.333008 -12.166 3 -17.499
c30.667 -46 62.834 -90.833 96.501 -134.5s73.167 -89.5 118.5 -137.5s89.333 -88.167 132 -120.5s87.667 -56.333 135 -72s90.666 -17.5 129.999 -5.5c21.333 6.66699 34.666 -1.66602 39.999 -24.999c7.33301 -28 1 -56 -19 -84c-31.333 -44.667 -78.666 -60 -141.999 -46
c-11.333 2.66699 -23 6.33398 -35 11.001c-90.667 33.333 -175.334 85.166 -254.001 155.499s-160 165.5 -244 285.5c0 -183.333 -1.66699 -314.666 -5 -393.999c-0.666992 -20.667 -5.66699 -39 -15 -55s-20.333 -26.5 -33 -31.5s-25 -6.33301 -37 -4
s-21.833 11.833 -29.5 28.5s-10.834 38.667 -9.50098 66c9.33301 227.333 12.333 461 9 701s-11.333 440.333 -24 601z" />
    <glyph glyph-name="l" unicode="l" horiz-adv-x="421" 
d="M140 1390c-0.666992 39.333 10.834 63.832 34.501 73.499s47.167 5.83398 70.5 -11.499s33.666 -39.333 30.999 -66c-6.66699 -78.667 -9 -298 -7 -658s6 -579.667 12 -659c2 -34.667 -9 -61.167 -33 -79.5s-48.167 -20.333 -72.5 -6s-35.833 43.5 -34.5 87.5
c2 73.333 2.83301 289 2.5 647s-1.5 582 -3.5 672z" />
    <glyph glyph-name="m" unicode="m" horiz-adv-x="1546" 
d="M718 60c0 75.333 1.16309 152.995 3.49609 232.995s4 139 5 177s0.166992 78.333 -2.5 121s-8.33398 82.334 -17.001 119.001c-11.333 48 -33.166 84.833 -65.499 110.5s-68.333 38.834 -108 39.501s-81.334 -8.83301 -125.001 -28.5s-82.167 -48.167 -115.5 -85.5
c-20 -22.667 -37.667 -47.5 -53 -74.5s-27.666 -56 -36.999 -87s-17 -60.667 -23 -89s-10.5 -60.5 -13.5 -96.5s-5 -66.5 -6 -91.5s-2 -56.167 -3 -93.5s-2.16699 -65.333 -3.5 -84c0.666992 -12 0.833984 -25.667 0.500977 -41s-1 -29.666 -2 -42.999s-5 -25.333 -12 -36
s-17.167 -17.667 -30.5 -21c-16 -4 -30 -3.83301 -42 0.5s-21 11.833 -27 22.5s-10.333 22.334 -13 35.001s-3.66699 26.334 -3 41.001c1.33301 34.667 2.83301 81 4.5 139s2.83398 97.667 3.50098 119s1.5 52.333 2.5 93s1.66699 68.667 2 84s0.666016 37.5 0.999023 66.5
s0.5 51 0.5 66v57.5c0 23.333 -0.333008 45 -1 65s-1.33398 42 -2.00098 66s-1.66699 51 -3 81c-0.666992 24 8.33301 39.833 27 47.5s37.834 5.83398 57.501 -5.49902s30.5 -27.333 32.5 -48c1.33301 -14.667 2.33301 -29.334 3 -44.001s1 -31.667 1 -51
s0.333008 -35.333 1 -48c39.333 55.333 87.833 101.333 145.5 138s119.167 59.5 184.5 68.5s130 -0.5 194 -28.5c67.333 -30 116 -91.667 146 -185c43.333 58 94.333 105.833 153 143.5s119.834 60.834 183.501 69.501s126.167 -0.333008 187.5 -27
c24.667 -10.667 46.5 -25.167 65.5 -43.5s34.667 -42 47 -71s22.833 -56.833 31.5 -83.5s14.834 -61.834 18.501 -105.501s6.5 -81 8.5 -112s2.33301 -73.833 1 -128.5s-2.66602 -97.5 -3.99902 -128.5s-3.66602 -76.833 -6.99902 -137.5
c-2 -37.333 -3.66699 -65.333 -5 -84c-1.33301 -33.333 -16.333 -55.333 -45 -66c-25.333 -9.33301 -46 -5.66602 -62 11.001c-11.333 11.333 -16.333 26.333 -15 45l6 80c12.667 150.667 18.834 268.334 18.501 353.001s-10.5 160.334 -30.5 227.001
c-14 47.333 -37.333 83.666 -70 108.999s-68.5 38.666 -107.5 39.999s-79.833 -7.83398 -122.5 -27.501s-80.667 -48.167 -114 -85.5c-44.667 -50 -77.667 -114 -99 -192c2.66699 -34 4.66699 -73.167 6 -117.5s2.16602 -80.166 2.49902 -107.499s0.333008 -71.833 0 -133.5
s-0.5 -101.834 -0.5 -120.501c0 -28.667 -12.833 -50.167 -38.5 -64.5s-51.334 -17 -77.001 -8s-38.5 27.833 -38.5 56.5z" />
    <glyph glyph-name="n" unicode="n" horiz-adv-x="896" 
d="M733 50l5.99805 79.999c12.667 150.667 18.834 268.334 18.501 353.001s-10.5 160.334 -30.5 227.001c-13.333 47.333 -35.333 83.666 -66 108.999s-64.5 38.5 -101.5 39.5s-75.833 -8 -116.5 -27s-78.667 -46.833 -114 -83.5c-22.667 -24 -42.834 -50.167 -60.501 -78.5
s-31.834 -58.333 -42.501 -90s-19.334 -61.5 -26.001 -89.5s-11.667 -60.167 -15 -96.5s-5.66602 -66.666 -6.99902 -90.999s-2.5 -55.333 -3.5 -93s-2.16699 -65.5 -3.5 -83.5c0 -3.33301 -0.166992 -11.833 -0.5 -25.5s-0.833008 -23.5 -1.5 -29.5s-2 -14.667 -4 -26
s-4.66699 -20 -8 -26s-8.16602 -12 -14.499 -18s-14.166 -10 -23.499 -12c-30.667 -7.33301 -52.667 -0.666016 -66 20.001s-19.666 47 -18.999 79l4 104.5l4 102.5c0.666992 16.667 1.5 46.667 2.5 90s1.5 75.5 1.5 96.5s-0.333008 51.333 -1 91
s-1.83398 74.667 -3.50098 105s-3.83398 65.833 -6.50098 106.5s-6 82.667 -10 126c-1.33301 18.667 3.66699 34 15 46s24.333 19.167 39 21.5s29 -1 43 -10s22.333 -22.833 25 -41.5c2.66699 -16 5 -32.5 7 -49.5s4.16699 -36.833 6.5 -59.5
s4.16602 -41.334 5.49902 -56.001c38 60.667 87 110.667 147 150s123.167 63.166 189.5 71.499s131.833 -1.16699 196.5 -28.5c24.667 -11.333 46.5 -26.166 65.5 -44.499s34.667 -41.833 47 -70.5s22.833 -56.334 31.5 -83.001s15 -61.834 19 -105.501
s6.83301 -81 8.5 -112s1.83398 -73.833 0.500977 -128.5s-2.66602 -97.5 -3.99902 -128.5s-3.66602 -76.833 -6.99902 -137.5c-2 -37.333 -3.66699 -65.333 -5 -84c-1.33301 -33.333 -16.333 -55.333 -45 -66c-25.333 -9.33301 -46 -5.66602 -62 11.001
c-11.333 11.333 -16.333 26.333 -15 45z" />
    <glyph glyph-name="o" unicode="o" horiz-adv-x="1012" 
d="M467 988c24.667 2 45.001 -4.32812 61.001 -18.9951c121.333 -12 222 -51.833 302 -119.5s129 -153.5 147 -257.5c10 -54 13.167 -106.333 9.5 -157s-12.167 -98.334 -25.5 -143.001s-32.833 -85.667 -58.5 -123s-55.167 -69.5 -88.5 -96.5s-72.166 -48.5 -116.499 -64.5
s-91.833 -24.667 -142.5 -26c-68 -2 -132.833 7.16699 -194.5 27.5s-116.334 50.166 -164.001 89.499s-86.5 89.166 -116.5 149.499s-47.667 127.5 -53 201.5c-5.33301 72.667 2.16699 141.167 22.5 205.5s50.5 119.666 90.5 165.999s88.167 84.166 144.5 113.499
s117.166 47 182.499 53zM429.001 856.005c-84 -25.333 -151.003 -72.832 -201.003 -142.499s-74.333 -149.5 -73 -239.5c0.666992 -68 18.834 -130.833 54.501 -188.5s83.667 -102.834 144 -135.501s124.833 -47.667 193.5 -45c64.667 2 123.334 22 176.001 60
s92.167 87.167 118.5 147.5s34.833 122.5 25.5 186.5c-8 56 -20.833 104.333 -38.5 145s-43 77.167 -76 109.5s-76.167 57 -129.5 74s-116.666 26.5 -189.999 28.5h-4z" />
    <glyph glyph-name="p" unicode="p" horiz-adv-x="1045" 
d="M96 927c-0.666992 24 3.66797 42.6719 13.001 56.0049s20.833 20.666 34.5 21.999s27.5 -1.33398 41.5 -8.00098s25.333 -16 34 -28c144 34.667 286 35.667 426 3c63.333 -14.667 119.666 -40.834 168.999 -78.501s89 -82.5 119 -134.5s52.667 -109.5 68 -172.5
s21.833 -128.333 19.5 -196s-12.5 -134.834 -30.5 -201.501c-16.667 -60 -45.667 -110 -87 -150s-89 -67.5 -143 -82.5s-112.333 -21.833 -175 -20.5s-124.834 11.166 -186.501 29.499s-119.5 42.833 -173.5 73.5c2 -477.333 5.66699 -754 11 -830
c2 -34.667 -9 -61.167 -33 -79.5s-48.167 -20.333 -72.5 -6s-35.833 43.5 -34.5 87.5c2 79.333 3 386 3 920c-22.667 22 -41.667 44.333 -57 67c-13.333 22.667 -18.666 45 -15.999 67s11.5 39.5 26.5 52.5s30.167 15.167 45.5 6.5c0 336 -0.666992 537 -2 603z
M228.002 834.005c-3.33301 -124 -4.66211 -335.666 -3.99512 -634.999c52.667 -41.333 110.167 -74.333 172.5 -99s122.166 -39 179.499 -43s110.166 4.66699 158.499 26s83.833 54.666 106.5 99.999c30.667 60 50.167 121.333 58.5 184s6.66602 119.5 -5.00098 170.5
s-29.334 98.167 -53.001 141.5s-51.334 79.333 -83.001 108s-64.167 48.667 -97.5 60c-35.333 12 -71 20.167 -107 24.5s-73.5 4.5 -112.5 0.5s-73.167 -8.66699 -102.5 -14s-66.333 -13.333 -111 -24z" />
    <glyph glyph-name="q" unicode="q" horiz-adv-x="915" 
d="M1082 -738c-34.667 -49.333 -70.0029 -87.834 -106.003 -115.501s-69.5 -43 -100.5 -46s-59.167 3.33301 -84.5 19s-46 41.834 -62 78.501s-26.333 81 -31 133c-20 256.667 -28 504 -24 742c-54 -37.333 -110 -62.833 -168 -76.5s-112.167 -16.334 -162.5 -8.00098
s-96.833 24.333 -139.5 48s-78.334 54.167 -107.001 91.5s-48 78 -58 122c-12.667 64.667 -16.334 127.834 -11.001 189.501s20.833 121 46.5 178s57.667 108.667 96 155s84.5 86.5 138.5 120.5s111.667 58.333 173 73c104.667 25.333 191.334 22 260.001 -10
s115 -90.667 139 -176c8.66699 -28.667 8.16699 -52.5 -1.5 -71.5s-23.167 -31.833 -40.5 -38.5c-13.333 -134.667 -23.166 -241.334 -29.499 -320.001s-12 -173.5 -17 -284.5s-5.5 -219.5 -1.5 -325.5s12 -218.333 24 -337c4.66699 -44.667 12.834 -79.834 24.501 -105.501
s27 -41.667 46 -48s42.833 0.833984 71.5 21.501s61.334 54.667 98.001 102c26 33.333 45.833 43.333 59.5 30s13.834 -39 0.500977 -77c-6.66699 -21.333 -17.667 -42.666 -33 -63.999zM723.997 809.999c-38.667 40 -99.333 58.001 -182 54.001
c-34 -1.33301 -70.167 -11.833 -108.5 -31.5s-74.5 -45.167 -108.5 -76.5s-65 -68 -93 -110s-50.167 -85 -66.5 -129s-24.5 -90 -24.5 -138s10 -92.333 30 -133c16.667 -34 40.667 -62.5 72 -85.5s66.166 -38.333 104.499 -46s77.333 -9.5 117 -5.5s78.5 15.667 116.5 35
s70.333 44.666 97 75.999c6.66699 178 20.334 367.667 41.001 569c1.33301 8 3 15 5 21z" />
    <glyph glyph-name="r" unicode="r" horiz-adv-x="816" 
d="M726 856c-185.333 12.667 -328.669 -58.001 -430.002 -212.001c-13.333 -20.667 -25.5 -42 -36.5 -64s-20 -42.167 -27 -60.5s-13.333 -40.166 -19 -65.499s-10 -46 -13 -62s-5.83301 -38.333 -8.5 -67s-4.33398 -50 -5.00098 -64s-1.83398 -37.167 -3.50098 -69.5
l-3.5 -68.5c0 -3.33301 -0.166992 -11.833 -0.5 -25.5s-0.666016 -23.5 -0.999023 -29.5s-1.66602 -14.667 -3.99902 -26s-5.16602 -20 -8.49902 -26s-8.16602 -12 -14.499 -18s-14.166 -10 -23.499 -12c-31.333 -7.33301 -55 0 -71 22s-23.667 48.667 -23 80l4 104.5
l4 102.5c0.666992 16.667 1.5 46.667 2.5 90s1.5 75.5 1.5 96.5s-0.333008 51.333 -1 91s-1.83398 74.667 -3.50098 105s-3.83398 65.833 -6.50098 106.5s-6 82.667 -10 126c-1.33301 18.667 3.66699 34 15 46s24.333 19.167 39 21.5s29 -1 43 -10s22.333 -22.833 25 -41.5
c2.66699 -16 4.83398 -37.333 6.50098 -64s3.5 -60 5.5 -100s3.66699 -72 5 -96c28.667 60 63.5 111.833 104.5 155.5s85.333 77.334 133 101.001s96.5 40.5 146.5 50.5s102 13.667 156 11c39.333 -1.33301 66.333 -17 81 -47c12 -24.667 10 -46 -6 -64
c-12 -12.667 -29.667 -18.334 -53 -17.001z" />
    <glyph glyph-name="s" unicode="s" horiz-adv-x="780" 
d="M657 834c-32.667 14 -70.999 23.332 -114.999 27.999s-86.833 4.66699 -128.5 0s-80.834 -12 -117.501 -22s-66.167 -22.667 -88.5 -38s-33.833 -31.333 -34.5 -48c-0.666992 -18 11.5 -38.167 36.5 -60.5s56.667 -44 95 -65l128 -71l133.5 -77
c42 -25 79.5 -53.167 112.5 -84.5s54.5 -62 64.5 -92c8 -29.333 12.167 -58.5 12.5 -87.5s-5.66699 -56.5 -18 -82.5s-28.5 -49 -48.5 -69s-46 -35.833 -78 -47.5s-67.333 -17.5 -106 -17.5c-104.667 0 -190.334 13.833 -257.001 41.5s-121.667 75.834 -165 144.501
c-25.333 40 -26 78.667 -2 116c16.667 26.667 37.334 40.667 62.001 42c26.667 2 43 -14 49 -48c0 -2 0.333008 -4 1 -6c6 -45.333 40.333 -86 103 -122c64 -37.333 129 -55 195 -53c70.667 2.66699 113.667 30 129 82c4 13.333 5.66699 28.333 5 45
c-0.666992 23.333 -18.667 49.333 -54 78s-79.166 57.334 -131.499 86.001l-160 89c-54.333 30.667 -105 64.834 -152 102.501s-78.5 74.5 -94.5 110.5c-6.66699 11.333 -9.33398 25.166 -8.00098 41.499s5.5 33 12.5 50s19.667 34.833 38 53.5s40.833 35.667 67.5 51
c44.667 26 101 46.167 169 60.5s135.5 21.166 202.5 20.499s123.833 -8.33398 170.5 -23.001c35.333 -11.333 54.333 -32.666 57 -63.999c2.66699 -26.667 -6.33301 -47 -27 -61c-16.667 -11.333 -36 -12.333 -58 -3z" />
    <glyph glyph-name="t" unicode="t" horiz-adv-x="928" 
d="M393 1368c-1.33301 39.333 9.99902 64.0068 33.999 74.0068s47.667 6.16699 71 -11.5s33.666 -39.834 30.999 -66.501c-4 -42 -6.33301 -155.667 -7 -341c76.667 2.66699 182.334 7 317.001 13c29.333 1.33301 49 -8.33398 59 -29.001s8.5 -41.834 -4.5 -63.501
s-33.167 -33.5 -60.5 -35.5c-119.333 -8 -223 -13.667 -311 -17c0.666992 -440.667 4.66699 -714.667 12 -822c2.66699 -34.667 -8.16602 -61.167 -32.499 -79.5s-48.666 -20.333 -72.999 -6s-35.833 43.5 -34.5 87.5c2.66699 93.333 3.33398 365.666 2.00098 816.999
c-88.667 -0.666992 -191.667 0.666016 -309 3.99902c-16 0.666992 -29.333 5.5 -40 14.5s-17.167 19.667 -19.5 32s-2.33301 24.666 0 36.999s8.66602 22.833 18.999 31.5s23.166 13 38.499 13c123.333 -0.666992 227 -0.333984 311 0.999023
c-0.666992 178 -1.66699 293.667 -3 347z" />
    <glyph glyph-name="u" unicode="u" horiz-adv-x="1029" 
d="M29 837c0.666992 17.333 5.66797 32.001 15.001 44.001s20.5 19.333 33.5 22s25.667 2.66699 38 0s22.666 -10.167 30.999 -22.5s12.166 -27.833 11.499 -46.5c-2 -38 -3.16699 -71.5 -3.5 -100.5s0 -64 1 -105s3.5 -77.5 7.5 -109.5s10 -66.667 18 -104
s17.833 -69.833 29.5 -97.5s27 -55.167 46 -82.5s40.5 -49.5 64.5 -66.5s52.667 -30.667 86 -41s70.333 -15.5 111 -15.5c50.667 0.666992 95.667 9.33398 135 26.001s72.166 39 98.499 67s48.333 62.5 66 103.5s30.667 84 39 129s13.333 95.167 15 150.5
s1 109.166 -2 161.499s-8.16699 107.833 -15.5 166.5c-5.33301 40 7.66699 67 39 81c26 12 50 10.667 72 -4c14 -9.33301 22 -22 24 -38c8.66699 -78.667 13.834 -153.667 15.501 -225s-1 -142.166 -8 -212.499s-18.667 -134.333 -35 -192s-39.166 -111 -68.499 -160
s-64.333 -88.833 -105 -119.5c-32.667 -24.667 -73.167 -43.334 -121.5 -56.001s-98.5 -18.167 -150.5 -16.5s-104.667 12.167 -158 31.5s-100 47 -140 83c-35.333 31.333 -65.5 68.666 -90.5 111.999s-44.333 89 -58 137s-24.5 100 -32.5 156s-12 112.333 -12 169
s1.33301 115 4 175z" />
    <glyph glyph-name="v" unicode="v" horiz-adv-x="991" 
d="M29 906c-8.66699 26 -5.00195 48.833 10.998 68.5s35.5 28 58.5 25s38.5 -18.167 46.5 -45.5c25.333 -84 49.833 -159.667 73.5 -227s51.834 -137.5 84.501 -210.5s60.334 -132.5 83.001 -178.5l109 -218c80 170.667 143.333 310 190 418s102.667 244.667 168 410
c6.66699 16 15.667 27.333 27 34s22.333 8.33398 33 5.00098s21 -8.83301 31 -16.5s16.667 -17.667 20 -30s3 -23.833 -1 -34.5c-64.667 -168 -120.167 -306.5 -166.5 -415.5l-203.5 -458.5c-12 -26.667 -31.667 -44.334 -59 -53.001s-54 -8.16699 -80 1.5
s-44.333 25.5 -55 47.5c-92 190 -162.667 342.5 -212 457.5s-102 255.167 -158 420.5z" />
    <glyph glyph-name="w" unicode="w" horiz-adv-x="1468" 
d="M28 901c-6.66699 28.667 -2.16895 52.4961 13.498 71.4961s34.667 25.833 57 20.5s37.833 -24 46.5 -56l52 -206.5c22 -89.667 39.167 -157.334 51.5 -203.001s31.333 -105.5 57 -179.5s55.167 -147.667 88.5 -221c22.667 51.333 49.834 118.5 81.501 201.5
s60.334 153.5 86.001 211.5s52.834 108.333 81.501 151c12 18.667 30.833 30.334 56.5 35.001s50.334 1.83398 74.001 -8.49902s39.167 -26.166 46.5 -47.499l41.5 -134.5l38.5 -126c9.33301 -29.667 22.833 -65.5 40.5 -107.5s37.5 -82.333 59.5 -121l35 110l47 149
l40 117.5c16.667 47.667 30.167 82.167 40.5 103.5l39.5 78c16 30.667 31.5 54.167 46.5 70.5s32.333 33.5 52 51.5s41.5 34.333 65.5 49c31.333 20 54.333 18 69 -6c13.333 -22.667 12.666 -50.334 -2.00098 -83.001c-6 -14 -14.333 -26.333 -25 -37
c-17.333 -17.333 -32.833 -33.666 -46.5 -48.999s-27 -33.5 -40 -54.5l-32.5 -54c-8.66699 -15 -19.167 -38.167 -31.5 -69.5l-29.5 -76.5c-7.33301 -19.667 -18 -52.667 -32 -99l-34 -114l-42 -143.5l-21 -75c-8 -28 -25.667 -48.5 -53 -61.5s-54.833 -15.833 -82.5 -8.5
s-46.5 23.666 -56.5 48.999c-21.333 52.667 -41.833 105.834 -61.5 159.501l-66 186l-61.5 176.5c-27.333 -43.333 -53.833 -94.666 -79.5 -153.999s-45.334 -109.666 -59.001 -150.999l-56.5 -177l-9 -31c-9.33301 -28 -30.5 -47.333 -63.5 -58s-67 -9.5 -102 3.5
s-58.833 35.167 -71.5 66.5c-74 176 -157 460 -249 852z" />
    <glyph glyph-name="x" unicode="x" horiz-adv-x="987" 
d="M53 855c-32 34.667 -37.334 67.3359 -16.001 98.0029c15.333 22 37 33 65 33c21.333 0.666992 38 -7.33301 50 -24c46.667 -64.667 158 -198 334 -400l341 392c32 35.333 64 43.666 96 24.999c23.333 -13.333 36.333 -33.666 39 -60.999c2.66699 -22 -4 -39.667 -20 -53
c-53.333 -46.667 -175.666 -181.334 -366.999 -404.001c168 -190 277 -304.667 327 -344c28.667 -22.667 38 -50.334 28 -83.001c-8.66699 -26.667 -25.334 -44 -50.001 -52c-32.667 -10 -64.334 2 -95.001 36l-297 341c-148.667 -175.333 -240.667 -290 -276 -344
c-19.333 -30.667 -46 -42.334 -80 -35.001c-27.333 6 -46 21.333 -56 46c-12.667 31.333 -3.66699 63.666 27 96.999c34.667 36.667 133.334 149.334 296.001 338.001c-185.333 214 -300.666 345.333 -345.999 394z" />
    <glyph glyph-name="y" unicode="y" horiz-adv-x="1018" 
d="M217 -860c-21.333 -40 -49.6699 -55.6621 -85.0029 -46.9951c-25.333 6.66699 -43.666 21.667 -54.999 45c-10.667 23.333 -8.33398 43.666 6.99902 60.999c34.667 39.333 94.334 145.666 179.001 318.999s173.334 368.333 266.001 585
c-110 209.333 -273.333 468 -490 776c-18 25.333 -19.667 53.666 -5 84.999c12.667 27.333 30.334 41.333 53.001 42c19.333 0.666992 37.333 -10.666 54 -33.999c166.667 -240.667 317 -481.334 451 -722.001c156.667 375.333 240.334 609 251.001 701
c4 33.333 21 54.333 51 63c28.667 8 54 1.66699 76 -19c25.333 -24 31 -57.667 17 -101c-38 -118 -145.333 -377.667 -322 -779c1.33301 -2.66699 2.66602 -5 3.99902 -7c12.667 -29.333 12.5 -54.333 -0.5 -75s-30.833 -31.334 -53.5 -32.001l-246 -544
c-78 -168.667 -128.667 -274.334 -152 -317.001z" />
    <glyph glyph-name="z" unicode="z" horiz-adv-x="998" 
d="M97 841c-29.333 -2.66699 -50.168 5.99902 -62.501 25.999s-14 40.5 -5 61.5s24.833 31.833 47.5 32.5c15.333 0.666992 58.833 2.33398 130.5 5.00098s117.334 4.33398 137.001 5.00098s58.334 1.66699 116.001 3s102.5 2 134.5 2s72.167 -0.333008 120.5 -1
s95.5 -1.66699 141.5 -3c28 -1.33301 51 -9.33301 69 -24s29 -31.834 33 -51.501s2.83301 -40.167 -3.5 -61.5s-17.166 -39 -32.499 -53l-117.5 -102l-120 -104.5l-103 -93c-49.667 -45 -89.334 -82.5 -119.001 -112.5l-111.5 -114.5l-133 -143.5
c138.667 10 255 15.667 349 17s211 -1.66699 351 -9c14.667 -0.666992 26.667 -5.33398 36 -14.001s15 -19 17 -31s1.66699 -23.833 -1 -35.5s-9 -21.334 -19 -29.001s-21.667 -11.167 -35 -10.5c-144 7.33301 -262.167 11.166 -354.5 11.499s-218.833 -3.5 -379.5 -11.5
c-23.333 -1.33301 -43.333 3.33398 -60 14.001s-28.334 23.834 -35.001 39.501s-9.16699 32.5 -7.5 50.5s7.83398 33.333 18.501 46l101 121c32.667 37.333 67 74.166 103 110.499l92 92c25.333 25 59 56.167 101 93.5l97 85.5l113.5 96.5l118.5 100
c-19.333 0.666992 -57.833 2.33398 -115.5 5.00098s-95 4.16699 -112 4.5s-49 0.833008 -96 1.5s-86.333 0.333984 -118 -0.999023s-72.834 -3.5 -123.501 -6.5s-105 -6.83301 -163 -11.5z" />
    <glyph glyph-name="braceleft" unicode="{" horiz-adv-x="753" 
d="M641 1503c-24 4.66699 -45 8 -63 10s-38 3 -60 3s-41 -2.33301 -57 -7s-31.333 -12.834 -46 -24.501s-26.334 -26.5 -35.001 -44.5c-15.333 -32 -25.333 -65.5 -30 -100.5s-5.5 -67.833 -2.5 -98.5s7.33301 -62 13 -94s10.334 -63.667 14.001 -95s4.5 -62.5 2.5 -93.5
s-10.167 -63.167 -24.5 -96.5s-35.166 -65.666 -62.499 -96.999c24.667 -22.667 43.167 -48.5 55.5 -77.5s19.166 -59.333 20.499 -91s0.166016 -64.5 -3.50098 -98.5s-8 -69.5 -13 -106.5s-8.66699 -73.333 -11 -109s-0.5 -72.834 5.5 -111.501s17 -74.667 33 -108
c8 -16.667 18 -30.5 30 -41.5s26.167 -19.167 42.5 -24.5s32 -9.16602 47 -11.499s33.333 -2.5 55 -0.5s39.667 4 54 6s33.166 5 56.499 9c29.333 5.33301 49 -6 59 -34c8.66699 -27.333 5.33398 -52.666 -9.99902 -75.999c-12 -17.333 -28.333 -26.666 -49 -27.999
c-40 -4 -79.5 -5 -118.5 -3s-75.167 7 -108.5 15s-64.666 22.667 -93.999 44s-54.333 48.666 -75 81.999c-21.333 34 -36.166 69.167 -44.499 105.5s-11.333 72.333 -9 108s6.16602 70.334 11.499 104.001s10 71.667 14 114s4.33301 81.5 1 117.5
c-2 22.667 -5.83301 42.5 -11.5 59.5s-14 32.667 -25 47s-26 24.666 -45 30.999s-41.5 8.5 -67.5 6.5c-13.333 -1.33301 -25.333 2.66699 -36 12s-18.167 21.166 -22.5 35.499s-6.5 28.833 -6.5 43.5s4 27.334 12 38.001s19.333 16.667 34 18
c47.333 4 84.833 12.667 112.5 26s46.167 36.666 55.5 69.999s14.166 68 14.499 104s-2.5 68.667 -8.5 98s-11.667 60.5 -17 93.5s-9.5 63.667 -12.5 92s-1 58.833 6 91.5s19.833 64 38.5 94c20.667 34 46.834 61.833 78.501 83.5s65.834 36.5 102.501 44.5
s73.834 11.5 111.501 10.5s76.167 -6.16699 115.5 -15.5c23.333 -6 40.166 -17 50.499 -33s13.666 -31.833 9.99902 -47.5s-13.5 -28.667 -29.5 -39s-35.333 -13.5 -58 -9.5z" />
    <glyph glyph-name="bar" unicode="|" horiz-adv-x="420" 
d="M142 1495c-0.666992 39.333 10.8369 63.999 34.5039 73.999s47.167 6.16699 70.5 -11.5s33.666 -39.834 30.999 -66.501c-6.66699 -77.333 -9.33398 -326 -8.00098 -746s4.66602 -669 9.99902 -747c2.66699 -34.667 -8 -61.167 -32 -79.5s-48.333 -20.333 -73 -6
s-36.334 43.5 -35.001 87.5c2 74.667 3.33301 319.834 4 735.501s0 668.834 -2 759.501z" />
    <glyph glyph-name="braceright" unicode="}" horiz-adv-x="754" 
d="M114 1495c-22.667 -4 -41.9951 -0.834961 -57.9951 9.49805s-25.833 23.333 -29.5 39s-0.333984 31.5 9.99902 47.5s27.166 27 50.499 33c39.333 9.33301 77.833 14.5 115.5 15.5s74.834 -2.5 111.501 -10.5s70.667 -22.833 102 -44.5s57.666 -49.5 78.999 -83.5
c22 -35.333 35.833 -72.666 41.5 -111.999s5.33398 -76 -0.999023 -110s-12.833 -71 -19.5 -111s-11.5 -78.667 -14.5 -116s1.83301 -78.666 14.5 -123.999c9.33301 -33.333 27.833 -56.666 55.5 -69.999s65.167 -22 112.5 -26c14 -1.33301 25.167 -7.33301 33.5 -18
s12.5 -23.334 12.5 -38.001s-2.16699 -29.167 -6.5 -43.5s-11.833 -26.166 -22.5 -35.499s-22.667 -13.333 -36 -12c-26 2 -48.5 -0.166992 -67.5 -6.5s-34 -16.666 -45 -30.999s-19.333 -30 -25 -47s-9.5 -36.833 -11.5 -59.5c-4 -42.667 -2.83301 -91.334 3.5 -146.001
s12.666 -101.167 18.999 -139.5s6.16602 -81.333 -0.500977 -129s-23 -92.5 -49 -134.5c-21.333 -33.333 -47 -60.333 -77 -81s-61.833 -34.5 -95.5 -41.5s-70.167 -11.333 -109.5 -13s-79 -0.5 -119 3.5c-29.333 2 -49 18.333 -59 49c-9.33301 29.333 -6 53.666 10 72.999
c12 14.667 28.333 20 49 16l42.5 -7.5c5.66699 -1 19.167 -3 40.5 -6s36 -4.33301 44 -4s20.833 0.5 38.5 0.5s31 1.83301 40 5.5l32 13.5c12.333 5.33301 22.666 12.666 30.999 21.999s15.5 20.333 21.5 33c22 44.667 34.667 94.834 38 150.501s1.16602 108 -6.50098 157
s-14.167 97.5 -19.5 145.5s-2.66602 93.833 8.00098 137.5s33 80.834 67 111.501c-32 36 -55.167 73.833 -69.5 113.5s-20.666 76.667 -18.999 111s5 71 10 110s10.667 75.667 17 110s7.5 72.166 3.5 113.499s-14.667 80.333 -32 117
c-10.667 22.667 -25.334 40.167 -44.001 52.5s-40.834 19.5 -66.501 21.5s-49.5 2.16699 -71.5 0.5s-48.333 -5.5 -79 -11.5z" />
    <glyph glyph-name="asciitilde" unicode="~" horiz-adv-x="947" 
d="M904 515c-14 -24 -30.501 -45.834 -49.501 -65.501s-43.167 -36.667 -72.5 -51s-60.666 -23 -93.999 -26s-72.333 2.33301 -117 16s-90.667 36.834 -138 69.501c-30.667 20.667 -58.334 35.667 -83.001 45s-49.334 13.333 -74.001 12s-48.5 -11.166 -71.5 -29.499
s-44.833 -45.5 -65.5 -81.5c-18 -30.667 -40.333 -40.334 -67 -29.001c-23.333 10 -38.333 30.333 -45 61c-5.33301 26.667 -1 53 13 79c10.667 19.333 24.834 38.166 42.501 56.499s39.834 34.833 66.501 49.5s55 24.667 85 30s63.833 3.33301 101.5 -6
s75.167 -26.666 112.5 -51.999c14 -10 25.667 -18 35 -24l37.5 -23c15.667 -9.33301 29.5 -16.333 41.5 -21s26.167 -9.16699 42.5 -13.5s31 -6.33301 44 -6s27.5 2.5 43.5 6.5s30.667 10.833 44 20.5s27 22.5 41 38.5s27.333 35.333 40 58
c13.333 24.667 32.333 33.334 57 26.001c22.667 -6.66699 37.667 -23.334 45 -50.001c8 -28 3 -58 -15 -90z" />
    <glyph glyph-name="exclamdown" unicode="&#xa1;" horiz-adv-x="299" 
d="M81 -449c2 89.333 2.99805 268.831 2.99805 538.498s-1 440.834 -3 513.501c-1.33301 44 10.334 73.167 35.001 87.5s49 12.333 73 -6s34.667 -44.833 32 -79.5c-5.33301 -80 -9 -255.167 -11 -525.5s0.333008 -445.166 7 -524.499
c2.66699 -26 -7.66602 -47.833 -30.999 -65.5s-46.833 -21.667 -70.5 -12s-35.167 34.167 -34.5 73.5zM67.998 850.998c-3.33301 32.667 7.33203 62.6699 31.999 90.0029s51.334 36 80.001 26c19.333 -6.66699 32.833 -20 40.5 -40s9.16699 -41.333 4.5 -64
s-14.334 -41.334 -29.001 -56.001c-8.66699 -9.33301 -20.167 -14.833 -34.5 -16.5s-28 -0.333984 -41 3.99902s-24.667 11.666 -35 21.999s-16.166 21.833 -17.499 34.5z" />
    <glyph glyph-name="cent" unicode="&#xa2;" horiz-adv-x="916" 
d="M722 768c-14.667 0 -26.3389 2.83301 -35.0059 8.5s-15.667 12.667 -21 21s-12.166 16.333 -20.499 24s-23 14 -44 19s-48.167 6.5 -81.5 4.5c-23.333 -0.666992 -47.333 -5.66699 -72 -15c37.333 -216.667 79.333 -446.667 126 -690
c84 36.667 156.667 100.334 218 191.001c16.667 24 37.334 27.333 62.001 10c21.333 -15.333 33.333 -35.333 36 -60c1.33301 -14.667 -2 -27 -10 -37c-82.667 -108.667 -177 -183.334 -283 -224.001c18 -88.667 30.333 -146.667 37 -174
c8 -33.333 1.83301 -61.333 -18.5 -84s-43.833 -29 -70.5 -19s-43 36.667 -49 80c-4 27.333 -13.333 83 -28 167c-68 -6.66699 -133.167 1.33301 -195.5 24s-113.666 55 -153.999 97s-66.5 88.333 -78.5 139c-28.667 130 -18.167 254.167 31.5 372.5
s128.5 208.833 236.5 271.5l-42 228c-8 38.667 -1.16699 65 20.5 79s45.5 14.333 71.5 1s40 -33.333 42 -60c2.66699 -28.667 12.334 -93.667 29.001 -195c10.667 3.33301 21.667 6.33301 33 9c40.667 10 77.5 15.667 110.5 17s61 -0.666992 84 -6s43.333 -14 61 -26
s31.834 -25.5 42.501 -40.5s20 -32.5 28 -52.5c8 -18 4.33301 -35.833 -11 -53.5s-33.666 -26.5 -54.999 -26.5zM331.995 761c-47.333 -40.667 -87.1689 -89.333 -119.502 -146s-52.666 -117.167 -60.999 -181.5s1.83398 -126.5 30.501 -186.5
c22.667 -46 58 -81.5 106 -106.5s101.333 -35.833 160 -32.5z" />
    <glyph glyph-name="sterling" unicode="&#xa3;" horiz-adv-x="1157" 
d="M963 1238c-30.667 24.667 -60.333 44.832 -89 60.499s-58.5 28.167 -89.5 37.5s-62.833 12.666 -95.5 9.99902s-65.334 -11.667 -98.001 -27c-72 -32.667 -126.333 -78.667 -163 -138s-54.334 -129 -53.001 -209c0.666992 -46.667 3.33398 -93 8.00098 -139
c144.667 -2 264 1.66699 358 11c26.667 2.66699 48.834 -7.66602 66.501 -30.999s21.5 -46.833 11.5 -70.5s-34.667 -35.167 -74 -34.5c-87.333 2 -202 1 -344 -3c7.33301 -37.333 22.833 -104.5 46.5 -201.5s36.834 -169.833 39.501 -218.5l53 -42l54 -42l52.5 -38.5
c21 -15 39.167 -26.667 54.5 -35s33.333 -17 54 -26s39.5 -14.667 56.5 -17s36 -3.33301 57 -3s41.167 4 60.5 11s39.833 17.333 61.5 31s43.5 30.5 65.5 50.5c18 16.667 37 16.667 57 0c20 -18 27.333 -40.667 22 -68c-4 -21.333 -16.333 -39.666 -37 -54.999
c-32 -24 -64.833 -42.833 -98.5 -56.5s-65.834 -22.167 -96.501 -25.5s-62.334 -2.5 -95.001 2.5s-63 12.333 -91 22s-57.167 22.5 -87.5 38.5s-57.166 31.833 -80.499 47.5s-48.333 33.5 -75 53.5c-11.333 -37.333 -31.5 -67.833 -60.5 -91.5
s-60.833 -38.834 -95.5 -45.501s-70.5 -6.16699 -107.5 1.5s-69.167 22.5 -96.5 44.5c-36 28.667 -57.833 69.834 -65.5 123.501s0.833008 103.667 25.5 150s61 73.166 109 80.499c51.333 8 104.333 0.333008 159 -23c-4 20.667 -15.333 69 -34 145s-32.334 137 -41.001 183
c-20 -0.666992 -37.333 -1.33398 -52 -2.00098c-44 -0.666992 -73.167 11.166 -87.5 35.499s-12.166 48.5 6.50098 72.5s45 34.667 79 32l35 -2c-4 48 -4.66699 93.333 -2 136c13.333 229.333 115.333 385 306 467c170.667 73.333 337.667 33 501 -121
c16.667 -15.333 22.667 -34.166 18 -56.499s-16.667 -36.666 -36 -42.999s-43.333 -0.166016 -72 18.501zM358.001 222.998c-50 38.667 -84.335 58.334 -103.002 59.001c-22.667 0.666992 -42.334 -6.83301 -59.001 -22.5s-25.5 -32.5 -26.5 -50.5s4.5 -33.667 16.5 -47
c14.667 -12.667 29.334 -22.667 44.001 -30s30.334 -12 47.001 -14s31.834 3.66699 45.501 17s24.167 34.333 31.5 63c2 7.33301 3.33301 15.666 4 24.999z" />
    <glyph glyph-name="yen" unicode="&#xa5;" horiz-adv-x="1160" 
d="M570 16c-20.667 -40 -49.0049 -55.3389 -85.0049 -46.0059c-26 6.66699 -44.333 22 -55 46c-10.667 22.667 -8.33398 42.334 6.99902 59.001c35.333 40 80.666 117.667 135.999 233c-136.667 -0.666992 -234 -2 -292 -4c-44 -1.33301 -73.167 10.334 -87.5 35.001
s-12.333 49 6 73s44.833 34.667 79.5 32c68.667 -4.66699 186.334 -7.66699 353.001 -9c2 3.33301 3.66699 6.33301 5 9c-12.667 28.667 -27 59 -43 91c-148 -0.666992 -253 -2 -315 -4c-44 -1.33301 -73.167 10.334 -87.5 35.001s-12.333 49 6 73s44.833 34.667 79.5 32
c49.333 -3.33301 132.333 -6 249 -8c-74 131.333 -157.167 265 -249.5 401s-170.5 239.333 -234.5 310c-17.333 20 -21.666 43.833 -12.999 71.5s24 44.5 46 50.5s45 -3.66699 69 -29c74.667 -94 161.834 -218.167 261.501 -372.5s185.5 -298.5 257.5 -432.5
c22 -0.666992 43.667 -1 65 -1c66.667 161.333 124.834 311 174.501 449s76.834 228 81.501 270c4 33.333 21 54.333 51 63c29.333 8 55 1.66699 77 -19c24.667 -24 30 -57.667 16 -101c-33.333 -106 -122 -326.333 -266 -661c108 0.666992 183 3.33398 225 8.00098
c26.667 2.66699 48.834 -7.66602 66.501 -30.999s21.5 -47 11.5 -71s-34.667 -35.333 -74 -34c-60.667 1.33301 -155 2 -283 2l-35 -80c1.33301 -2.66699 2.33301 -5 3 -7c2.66699 -4.66699 5 -9.66699 7 -15c150.667 0.666992 252.667 3.66699 306 9
c26.667 2.66699 48.834 -7.66602 66.501 -30.999s21.5 -47 11.5 -71s-34.667 -35.333 -74 -34c-79.333 1.33301 -208 2 -386 2l-43 -95l-53.5 -117.5c-14.333 -31 -27.833 -57.833 -40.5 -80.5z" />
    <glyph glyph-name="section" unicode="&#xa7;" horiz-adv-x="1161" 
d="M636 795l-37.0078 28.0039l-96.5 76.5l-90.5 74c-38 31.667 -68.333 58.667 -91 81l-73.5 75c-26.333 27.667 -47.666 54.334 -63.999 80.001s-28.833 50.5 -37.5 74.5c-5.33301 13.333 -7.83301 28.666 -7.5 45.999s3.33301 36.166 9 56.499
s16.834 41.166 33.501 62.499s37.667 40.333 63 57c53.333 34.667 116 62.5 188 83.5s141.667 33.833 209 38.5s130 5.16699 188 1.5s105 -11.5 141 -23.5c34.667 -11.333 53.334 -33 56.001 -65c2.66699 -26.667 -6 -47 -26 -61c-17.333 -12 -36.666 -12.667 -57.999 -2
c-37.333 18 -85 29 -143 33s-116.333 1.5 -175 -7.5s-114 -21.167 -166 -36.5s-94 -33.666 -126 -54.999s-47.333 -42 -46 -62c3.33301 -30.667 18.333 -65.334 45 -104.001s60.5 -77.5 101.5 -116.5s86.167 -79 135.5 -120l150.5 -123l142.5 -118
c44 -37.667 82.333 -74.834 115 -111.501s54 -69 64 -97c16.667 -44 24.834 -85 24.501 -123s-7.16602 -70.833 -20.499 -98.5s-31.833 -52.834 -55.5 -75.501s-50 -41.167 -79 -55.5s-60.333 -26.5 -94 -36.5s-66.334 -17 -98.001 -21s-62.834 -6 -93.501 -6
c-8.66699 0 -18 1 -28 3l78 -64l81 -65.5l72 -60c29.333 -25 52.5 -45.833 69.5 -62.5l54 -55c19 -20 34.167 -38.5 45.5 -55.5s20 -33.167 26 -48.5c14 -38.667 21.667 -74.667 23 -108s-3 -62.5 -13 -87.5s-23.833 -47.833 -41.5 -68.5s-39 -38.167 -64 -52.5
s-51 -26.666 -78 -36.999s-55.833 -18.5 -86.5 -24.5s-59.667 -10.333 -87 -13s-54.333 -4 -81 -4c-101.333 0 -190.166 17.5 -266.499 52.5s-136.833 87.5 -181.5 157.5c-25.333 40 -26.666 78.667 -3.99902 116c16 26 36.333 40 61 42c27.333 1.33301 45 -16 53 -52v-2
c13.333 -63.333 61 -114.333 143 -153c82.667 -38 172 -53 268 -45c98.667 8 168 39.333 208 94c24.667 34 34.334 75 29.001 123c-3.33301 23.333 -18.166 50.833 -44.499 82.5s-60 64.834 -101 99.501l-136.5 110l-153 121c-52 42 -100.833 83.333 -146.5 124
s-86.167 82.834 -121.5 126.501s-60.333 84.5 -75 122.5c-4.66699 13.333 -6.83398 28.666 -6.50098 45.999s3.33301 36.166 9 56.499s16.834 41.166 33.501 62.499s38 40.333 64 57c97.333 64 234 101.667 410 113zM422.992 296.004
c73.333 -18 141.496 -25.167 204.496 -21.5s117.333 14.5 163 32.5s80.334 43.833 104.001 77.5s32.834 71.5 27.501 113.5c-4.66699 43.333 -57 107.333 -157 192c-70.667 2.66699 -145.667 -4 -225 -20s-145.166 -37.5 -197.499 -64.5s-77.166 -53.5 -74.499 -79.5
c5.33301 -59.333 57 -136 155 -230z" />
    <glyph glyph-name="dieresis" unicode="&#xa8;" horiz-adv-x="502" 
d="M297 1561c1.33301 12.667 7.00391 24.1699 17.0039 34.5029s21.667 17.666 35 21.999s27.166 5.66602 41.499 3.99902s25.833 -7.16699 34.5 -16.5c14 -14.667 23.333 -33.334 28 -56.001s3.16699 -44 -4.5 -64s-20.834 -33.333 -39.501 -40
c-28.667 -9.33301 -55.334 -0.333008 -80.001 27s-35.334 57 -32.001 89zM34.0039 1557c1.33301 12.667 7.00195 24.001 17.002 34.001s21.667 17.333 35 22s27.166 6.16699 41.499 4.5s25.833 -7.16699 34.5 -16.5c14.667 -14.667 24.334 -33.334 29.001 -56.001
s3 -44 -5 -64s-21.333 -33.333 -40 -40c-28.667 -10 -55.334 -1.33301 -80.001 26s-35.334 57.333 -32.001 90z" />
    <glyph glyph-name="copyright" unicode="&#xa9;" horiz-adv-x="2013" 
 />
    <glyph glyph-name="ordfeminine" unicode="&#xaa;" horiz-adv-x="533" 
d="M485 977c-57.333 -4.66699 -89.002 13.001 -95.002 53.001c-40.667 -30.667 -88.5 -49.334 -143.5 -56.001s-103.833 0.5 -146.5 21.5s-67 52.833 -73 95.5c-4 31.333 -1.66699 61.5 7 90.5s21.5 54.167 38.5 75.5s37.5 41.166 61.5 59.499s47.5 33.333 70.5 45
s46.5 21.5 70.5 29.5c46.667 15.333 85 20.666 115 15.999c0 2.66699 0.166992 6.16699 0.5 10.5s0.666016 7.5 0.999023 9.5s0.166016 4.33301 -0.500977 7c-1.33301 6.66699 -5.66602 13 -12.999 19s-17.833 10.333 -31.5 13s-29 2.83398 -46 0.500977
s-37.167 -9.66602 -60.5 -21.999s-47 -29.166 -71 -50.499c-18 -16 -37.167 -20.167 -57.5 -12.5s-32.166 21.667 -35.499 42s4.33398 41.833 23.001 64.5c21.333 22 47 40.833 77 56.5s60.167 26.5 90.5 32.5s60.5 8 90.5 6s56.333 -8.66699 79 -20
c20 -10.667 34.5 -27.334 43.5 -50.001s12.833 -47 11.5 -73c-4.66699 -86.667 -6.16699 -153.834 -4.5 -201.501s7.83398 -108.5 18.501 -182.5c8 -51.333 1.33301 -77.666 -20 -78.999zM377.998 1294c-12 1.33301 -34.667 -1.66504 -68 -8.99805
c-19.333 -4.66699 -39 -11.667 -59 -21s-39 -20.833 -57 -34.5s-31.167 -30.334 -39.5 -50.001s-9.5 -40.167 -3.5 -61.5c10 -30.667 40 -42.334 90 -35.001s96.333 29 139 65c-2 47.333 -2.66699 96 -2 146z" />
    <glyph glyph-name="guillemotleft" unicode="&#xab;" horiz-adv-x="976" 
d="M847 182c-67.333 38.667 -142.002 84.501 -224.002 137.501s-132.667 85.167 -152 96.5c-20.667 12.667 -35.167 30.667 -43.5 54s-8.5 48.166 -0.5 74.499s24 48.166 48 65.499c30.667 22.667 90 59.334 178 110.001s156.667 92.667 206 126
c16.667 11.333 35.334 9.83301 56.001 -4.5s32.5 -32.333 35.5 -54s-7.16699 -41.5 -30.5 -59.5c-30.667 -19.333 -72.167 -42.833 -124.5 -70.5s-97.666 -53 -135.999 -76s-70.5 -46.167 -96.5 -69.5c65.333 -34 177.333 -98.667 336 -194c30 -18 42.667 -44.667 38 -80
c-4 -29.333 -17 -49.333 -39 -60c-16 -7.33301 -33 -6 -51 4zM442.998 196.001l-203.501 113.998l-164.5 92c-21.333 12.667 -36.166 30.834 -44.499 54.501s-8.33301 48.5 0 74.5s24.5 47.667 48.5 65c106.667 79.333 232 167.333 376 264
c16.667 11.333 35.334 9.83301 56.001 -4.5s32.5 -32.166 35.5 -53.499s-7.16699 -41.333 -30.5 -60c-160.667 -98.667 -277 -180 -349 -244c6.66699 -3.33301 49.167 -23.5 127.5 -60.5s145.166 -72.167 200.499 -105.5c29.333 -18 42 -44.667 38 -80
c-4 -29.333 -17 -49 -39 -59c-16 -8 -33 -7 -51 3z" />
    <glyph glyph-name="logicalnot" unicode="&#xac;" horiz-adv-x="1085" 
d="M928 120c0 54 -0.334961 109.999 -1.00195 167.999s-1 112 -1 162c-434 -0.666992 -694.667 -2.33398 -782 -5.00098c-44.667 -1.33301 -74.167 10.334 -88.5 35.001s-12.166 49 6.50098 73s45.334 34.667 80.001 32c78.667 -5.33301 213.667 -8.5 405 -9.5
s326 1.83301 404 8.5c61.333 6 93 -15.333 95 -64c1.33301 -16 2 -84.833 2 -206.5v-201.5c0.666992 -27.333 -9 -46.833 -29 -58.5s-40.167 -11.167 -60.5 1.5s-30.5 34.334 -30.5 65.001z" />
    <glyph glyph-name="uni00AD" unicode="&#xad;" horiz-adv-x="1085" 
d="M955 448c-92.667 1.33301 -231.835 1.66602 -417.502 0.999023s-316.834 -2 -393.501 -4c-44.667 -1.33301 -74.167 10.334 -88.5 35.001s-12.166 49 6.50098 73s45.334 34.667 80.001 32c78.667 -5.33301 213.667 -8.5 405 -9.5s326 1.83301 404 8.5
c26.667 2 48.834 -8.5 66.501 -31.5s21.667 -46.5 12 -70.5s-34.5 -35.333 -74.5 -34z" />
    <glyph glyph-name="registered" unicode="&#xae;" horiz-adv-x="1461" 
d="M708 1488c24 3.33301 44.6689 -3.00098 62.002 -19.001c85.333 -0.666992 164.5 -14 237.5 -40s135.833 -61.833 188.5 -107.5s97.667 -99.167 135 -160.5s64.666 -128.166 81.999 -200.499s25 -147.166 23 -224.499c-2 -83.333 -11 -159.5 -27 -228.5
s-36.833 -128.5 -62.5 -178.5s-56.834 -94.333 -93.501 -133s-75.167 -70.167 -115.5 -94.5s-84.5 -44.333 -132.5 -60s-95 -26.5 -141 -32.5s-94.333 -9 -145 -9c-66.667 0 -132.5 9.5 -197.5 28.5s-126.167 47.333 -183.5 85s-108.5 82.667 -153.5 135
s-81.5 114.166 -109.5 185.499s-44 147.333 -48 228c-3.33301 55.333 -2.5 109 2.5 161s14.667 103.833 29 155.5s33.333 100.167 57 145.5s54 88.333 91 129s79 76.667 126 108s102.5 58 166.5 80s133.667 37.667 209 47zM685.002 1356
c-361.333 -24 -541.998 -246.334 -541.998 -667.001c0 -76.667 16 -150.667 48 -222s74.333 -132.5 127 -183.5s114.167 -91.5 184.5 -121.5s142.5 -44.667 216.5 -44c39.333 0.666992 77 3.33398 113 8.00098s73.833 13 113.5 25s76 27.5 109 46.5s65.167 44 96.5 75
s58 66.5 80 106.5s40.167 88.5 54.5 145.5s22.833 119.833 25.5 188.5c2 74 -4.16699 143.5 -18.5 208.5s-37.5 124.5 -69.5 178.5s-71.667 100.5 -119 139.5s-104.333 69.5 -171 91.5s-140.334 33.333 -221.001 34l-13 -4.5c-8.66699 -3 -13.334 -4.5 -14.001 -4.5z
M524.004 1068c-0.666992 -19.333 -0.5 -42.168 0.5 -68.501s2.5 -62.333 4.5 -108s3.66699 -90.167 5 -133.5l27 -3c39.333 -5.33301 69.333 -8.83301 90 -10.5s46.834 -2.5 78.501 -2.5s60 3.5 85 10.5s48.833 17.5 71.5 31.5c28 17.333 46.167 39.5 54.5 66.5
s6.16602 55.333 -6.50098 85s-34.667 55.834 -66 78.501c-81.333 60 -196 78 -344 54zM409.004 1076c-0.666992 0 -1.99609 -0.335938 -3.99609 -1.00293s-3.66699 -1 -5 -1c-22.667 -4 -38.334 1.16699 -47.001 15.5s-10 30.166 -4 47.499s16 27.333 30 30s27 5 39 7
c6 10 20.5 16.333 43.5 19s39.167 1 48.5 -5c52 6 101.5 9.33301 148.5 10s96.167 -6.33301 147.5 -21s101.333 -37.667 150 -69c41.333 -26.667 73 -61 95 -103s31.5 -86.167 28.5 -132.5s-19.167 -88.5 -48.5 -126.5c-82.667 -106 -205.667 -144 -369 -114
c28 -28 56.5 -58.5 85.5 -91.5l69.5 -79c17.333 -19.667 43 -44.167 77 -73.5s74.667 -60.666 122 -93.999c17.333 -12 18.333 -27.333 3 -46c-17.333 -21.333 -42 -31.666 -74 -30.999c-20 0 -39 5.66699 -57 17l-60 37.5c-18 11.667 -34.833 23.834 -50.5 36.501l-39.5 32
c-10.667 8.66699 -22.334 20.167 -35.001 34.5l-29.5 33.5c-7 8 -16.667 21 -29 39l-28 41.5l-32.5 51c-15.333 24.333 -27.666 43.166 -36.999 56.499c5.33301 -173.333 9.66602 -282 12.999 -326c2 -22 -8.33301 -38.167 -31 -48.5s-45.334 -10.166 -68.001 0.500977
s-33.667 30.334 -33 59.001c1.33301 24.667 0.666016 87 -2.00098 187s-6 218.167 -10 354.5s-6.33301 220.833 -7 253.5z" />
    <glyph glyph-name="macron" unicode="&#xaf;" horiz-adv-x="695" 
d="M592 1511c-119.333 2.66699 -276.669 1.33105 -472.002 -4.00195c-44 -1.33301 -73.167 10.334 -87.5 35.001s-12.166 49 6.50098 73s45 34.667 79 32c184 -12.667 340.667 -12.667 470 0c26.667 2.66699 48.834 -7.66602 66.501 -30.999s21.5 -46.833 11.5 -70.5
s-34.667 -35.167 -74 -34.5z" />
    <glyph glyph-name="degree" unicode="&#xb0;" horiz-adv-x="520" 
d="M187 1382c-21.333 -16 -35.8311 -35.999 -43.498 -59.999s-9.16699 -47 -4.5 -69s14.667 -41.833 30 -59.5s34 -28.834 56 -33.501c37.333 -8 71.666 -1.33301 102.999 20s49.666 52.666 54.999 93.999c2.66699 23.333 -2.5 45.333 -15.5 66s-29.5 36.334 -49.5 47.001
s-42.333 16 -67 16s-46 -7 -64 -21zM33.002 1360c8.66699 42 30.168 76.333 64.501 103s72.333 43.167 114 49.5s84.334 3.33301 128.001 -9s78.834 -33.5 105.501 -63.5c26 -30 41.667 -66.667 47 -110s1.66602 -84.833 -11.001 -124.5s-33.834 -75.167 -63.501 -106.5
s-63.834 -51 -102.501 -59c-40.667 -7.33301 -80.334 -5.33301 -119.001 6s-72.167 30.333 -100.5 57s-48.666 62.667 -60.999 108s-12.833 95 -1.5 149z" />
    <glyph glyph-name="plusminus" unicode="&#xb1;" horiz-adv-x="1085" 
d="M952 3c-93.333 1.33301 -232.834 1.66504 -418.501 0.998047s-316.834 -2 -393.501 -4c-44.667 -1.33301 -74.167 10.334 -88.5 35.001s-12.166 49 6.50098 73s45.334 34.667 80.001 32c78.667 -5.33301 213.667 -8.5 405 -9.5s326.333 1.83301 405 8.5
c26 2.66699 47.833 -7.66602 65.5 -30.999s21.667 -47 12 -71s-34.167 -35.333 -73.5 -34zM948.999 619.999c-70.667 2 -183.666 2.66699 -338.999 2c2 -154.667 5.33301 -264 10 -328c2 -34.667 -9 -61.167 -33 -79.5s-48.167 -20.333 -72.5 -6s-35.833 43.5 -34.5 87.5
c1.33301 64 2.66602 172.667 3.99902 326c-163.333 -0.666992 -279 -2 -347 -4c-44.667 -1.33301 -74.167 10.167 -88.5 34.5s-12.166 48.5 6.50098 72.5s45.334 35 80.001 33c67.333 -4.66699 183.666 -8 348.999 -10c0.666992 165.333 0 285.333 -2 360
c-0.666992 39.333 10.833 64 34.5 74s47.167 6.16699 70.5 -11.5s33.666 -39.834 30.999 -66.501c-6 -60 -8.66699 -178.667 -8 -356c166 0 277.667 2.66699 335 8c26 2.66699 47.833 -7.66602 65.5 -30.999s21.667 -46.833 12 -70.5s-34.167 -35.167 -73.5 -34.5z" />
    <glyph glyph-name="uni00B2" unicode="&#xb2;" horiz-adv-x="536" 
d="M36 1444c29.333 43.333 71.167 78.835 125.5 106.502s111.166 37.5 170.499 29.5c49.333 -6.66699 85.166 -28.5 107.499 -65.5s29.5 -80.833 21.5 -131.5c-7.33301 -44.667 -20.5 -94.334 -39.5 -149.001s-39.833 -101.667 -62.5 -141
c54 -25.333 99.667 -54.333 137 -87c14.667 -13.333 19.167 -29 13.5 -47s-17 -29.833 -34 -35.5s-35.5 -3.16699 -55.5 7.5c-48 32.667 -87.333 56.667 -118 72c-0.666992 -0.666992 -3.16699 -3.33398 -7.5 -8.00098l-13.5 -14
c-4.66699 -4.66699 -11.334 -9.83398 -20.001 -15.501s-17.667 -9.83398 -27 -12.501c-21.333 -7.33301 -44 -10.5 -68 -9.5s-46 4.5 -66 10.5s-36.333 16.667 -49 32s-18 34 -16 56c1.33301 30 9 54.167 23 72.5s31 30 51 35s40.167 6.83301 60.5 5.5
s39.833 -5.66602 58.5 -12.999c9.33301 -3.33301 18 -6.66602 26 -9.99902c45.333 77.333 75 142 89 194c10.667 36 14.834 64.833 12.501 86.5s-14.166 37.834 -35.499 48.501c-32 15.333 -65.333 14.166 -100 -3.50098s-64.667 -45.167 -90 -82.5
c-8 -11.333 -18 -18.666 -30 -21.999s-23.167 -2.66602 -33.5 2.00098s-19.666 11.167 -27.999 19.5s-12.833 18.666 -13.5 30.999s3 25.166 11 38.499z" />
    <glyph glyph-name="uni00B3" unicode="&#xb3;" horiz-adv-x="499" 
d="M440 1418c0 -20 -5.49609 -41.8301 -16.4961 -65.4971s-26.167 -44.167 -45.5 -61.5c19.333 -5.33301 38.166 -17 56.499 -35s30.166 -36.667 35.499 -56c10 -35.333 5.33301 -78.666 -14 -129.999s-47 -87.666 -83 -108.999
c-18.667 -11.333 -46.834 -17.5 -84.501 -18.5s-75.834 1.83301 -114.501 8.5s-73.334 15.667 -104.001 27c-25.333 9.33301 -40 24.5 -44 45.5s1.5 38.333 16.5 52s33.167 16.5 54.5 8.5c4 -1.33301 12.667 -4.66602 26 -9.99902l28 -11
c5.33301 -2 13.666 -4.83301 24.999 -8.5s20.666 -6 27.999 -7s15.833 -2 25.5 -3s18.834 -0.833008 27.501 0.5s17.334 3.33301 26.001 6c30 10 51.667 22.833 65 38.5s20.666 35.167 21.999 58.5c1.33301 21.333 -9.83398 38.166 -33.501 50.499s-50.5 17.833 -80.5 16.5
c-18 -0.666992 -32.333 7 -43 23s-14.167 32.833 -10.5 50.5s13.834 27.5 30.501 29.5c28 3.33301 50.833 11.166 68.5 23.499s29.834 26.833 36.501 43.5c7.33301 16 6.33301 31.667 -3 47s-21.666 24.333 -36.999 27c-27.333 4.66699 -56.5 -1 -87.5 -17
s-56.167 -40.333 -75.5 -73c-7.33301 -12.667 -16.5 -20.834 -27.5 -24.501s-21.167 -3.16699 -30.5 1.5s-17.833 11 -25.5 19s-12 17.667 -13 29s1.16699 22 6.5 32c26.667 41.333 65.5 75 116.5 101s104.5 35 160.5 27c22.667 -2.66699 42.167 -8.83398 58.5 -18.501
s28.5 -21.334 36.5 -35.001s13.833 -27.334 17.5 -41.001s5.5 -27.5 5.5 -41.5z" />
    <glyph glyph-name="acute" unicode="&#xb4;" horiz-adv-x="541" 
d="M491 1417c-41.333 -38 -85.1689 -73.667 -131.502 -107s-84.833 -59 -115.5 -77l-123 -70c-26.667 -14.667 -50.667 -13.5 -72 3.5s-31.666 37.667 -30.999 62s11.667 43.833 33 58.5c68 34 127.333 67.5 178 100.5s107.334 74.833 170.001 125.5
c14 11.333 28.333 17.333 43 18s27 -3.16602 37 -11.499s18 -18.333 24 -30s8 -24.334 6 -38.001s-8 -25.167 -18 -34.5z" />
    <glyph glyph-name="uni00B5" unicode="&#xb5;" horiz-adv-x="1133" 
d="M230 915c-1.33301 -37.333 -2.1709 -71.999 -2.50391 -103.999s0.166992 -69.833 1.5 -113.5s3.83301 -83.834 7.5 -120.501s9.66699 -75.834 18 -117.501s18.666 -78.834 30.999 -111.501s28 -64.667 47 -96s40.5 -57.333 64.5 -78s52.833 -37.167 86.5 -49.5
s70.834 -18.166 111.501 -17.499c50 0 94.833 8.33301 134.5 25s72.667 39 99 67s48.333 62.5 66 103.5s30.5 84.167 38.5 129.5s13 95.666 15 150.999s1.5 109 -1.5 161s-8.16699 107.667 -15.5 167c-5.33301 40 7.66699 67 39 81c26 12 50 10.667 72 -4
c14 -9.33301 22 -22 24 -38c8.66699 -78.667 13.834 -153.667 15.501 -225s-1 -142.166 -8 -212.499s-18.667 -134.5 -35 -192.5s-39.166 -111.333 -68.499 -160s-64.333 -88.334 -105 -119.001c-32.667 -25.333 -73.167 -44.166 -121.5 -56.499s-98.5 -17.833 -150.5 -16.5
s-104.833 11.833 -158.5 31.5s-100.167 47.5 -139.5 83.5c-33.333 29.333 -62.333 67 -87 113c2.66699 -401.333 7 -642.333 13 -723c2 -34.667 -9 -61.167 -33 -79.5s-48.167 -20.5 -72.5 -6.5s-35.833 43.333 -34.5 88c0.666992 96 0.833984 228.333 0.500977 397
s-1.16602 374.834 -2.49902 618.501s-2 383.167 -2 418.5c0 30.667 13.167 54.5 39.5 71.5s52.333 19.833 78 8.5s37.5 -36 35.5 -74z" />
    <glyph glyph-name="paragraph" unicode="&#xb6;" horiz-adv-x="961" 
d="M761 52c-8 100 -9.33496 275 -4.00195 525c-25.333 -4.66699 -50 -8.66699 -74 -12c0.666992 -280 3.33398 -451.333 8.00098 -514c2 -34.667 -9 -61.167 -33 -79.5s-48.167 -20.333 -72.5 -6s-35.833 43.5 -34.5 87.5c1.33301 64.667 3 230.667 5 498
c-58 -3.33301 -111.667 -3 -161 1s-95.833 13.333 -139.5 28s-81.167 34.167 -112.5 58.5s-57.166 55.666 -77.499 93.999s-32.833 82.5 -37.5 132.5c-8 82.667 0 159.167 24 229.5s60.333 130 109 179s106 89.167 172 120.5s138 52 216 62c110.667 14 198 7.66699 262 -19
s104 -78 120 -154c5.33301 -33.333 6 -56.833 2 -70.5s-12.667 -26.5 -26 -38.5c-10.667 -193.333 -17 -405 -19 -635s-0.666992 -389.333 4 -478c0.666992 -30.667 -5.33301 -54.5 -18 -71.5s-27 -25.333 -43 -25s-31.167 8.33301 -45.5 24s-22.5 36.834 -24.5 63.501z
M557.998 1328c-0.666992 6 -0.667969 11.333 -0.000976562 16c-42 -6 -83.5 -17.167 -124.5 -33.5s-80.333 -38.666 -118 -66.999s-69.667 -60.5 -96 -96.5s-45.333 -78.833 -57 -128.5s-12.5 -102.167 -2.5 -157.5c6 -35.333 21.333 -65.833 46 -91.5
s55.834 -45.167 93.501 -58.5s78 -22.5 121 -27.5s88.5 -6.5 136.5 -4.5c2 349.333 2.33301 565.666 1 648.999zM682.997 693c28 4.66699 54.667 10.332 80 16.999c12 316 19.667 505.667 23 569c0.666992 6.66699 2.33398 13.667 5.00098 21c-22 22.667 -55 37.667 -99 45
c2 -7.33301 2.66699 -14.333 2 -21c-6.66699 -67.333 -10.334 -277.666 -11.001 -630.999z" />
    <glyph glyph-name="periodcentered" unicode="&#xb7;" horiz-adv-x="299" 
d="M70 556c1.33301 12.667 7.16504 24.1699 17.498 34.5029s22 17.666 35 21.999s26.667 5.66602 41 3.99902s25.833 -7.16699 34.5 -16.5c14.667 -14.667 24.334 -33.334 29.001 -56.001s3.16699 -44 -4.5 -64s-21.167 -33.333 -40.5 -40
c-28.667 -9.33301 -55.167 -0.333008 -79.5 27s-35.166 57 -32.499 89z" />
    <glyph glyph-name="cedilla" unicode="&#xb8;" horiz-adv-x="578" 
d="M154 37c0 13.333 8.83594 24.8359 26.5029 34.5029s35.5 13.667 53.5 12s27.333 -9.16699 28 -22.5c1.33301 -18.667 2.66602 -39 3.99902 -61s3.16602 -48 5.49902 -78s4.16602 -54.667 5.49902 -74c22 5.33301 43.667 9 65 11s44.333 2.16699 69 0.5
s47 -8.33398 67 -20.001s35 -27.834 45 -48.501c18 -36.667 28.167 -74.834 30.5 -114.501s-5.16699 -76.667 -22.5 -111s-43.666 -58.5 -78.999 -72.5c-78.667 -29.333 -155.5 -34 -230.5 -14s-136.5 59 -184.5 117c-13.333 16.667 -16.333 33 -9 49
c7.33301 14.667 18.666 17 33.999 7l2 -2c26 -20.667 54 -37.5 84 -50.5s58.833 -21.667 86.5 -26s54 -5.83301 79 -4.5s47.167 5.33301 66.5 12c28 9.33301 48.167 28.333 60.5 57s10.166 54.334 -6.50098 77.001c-12 16 -26.833 26.333 -44.5 31s-35.667 5 -54 1
s-39.833 -11.333 -64.5 -22c-22 -10 -45.167 -9.33301 -69.5 2s-38.166 28.666 -41.499 51.999c-2 17.333 -3.5 38.833 -4.5 64.5s-1.5 47 -1.5 64v73v56.5z" />
    <glyph glyph-name="uni00B9" unicode="&#xb9;" horiz-adv-x="240" 
d="M50 1489c-0.666992 39.333 11.001 63.999 35.001 73.999s47.5 6.16699 70.5 -11.5s33.167 -39.834 30.5 -66.501c-4 -51.333 -5.5 -119.666 -4.5 -204.999s4.16699 -165.666 9.5 -240.999c2.66699 -34.667 -8 -61.167 -32 -79.5s-48.333 -20.333 -73 -6
s-36.334 43.5 -35.001 87.5c1.33301 52 1 201.333 -1 448z" />
    <glyph glyph-name="ordmasculine" unicode="&#xba;" horiz-adv-x="556" 
d="M196 1378c-25.333 -15.333 -42.333 -37.167 -51 -65.5s-9.83398 -55.833 -3.50098 -82.5s18.166 -51 35.499 -73s37 -35 59 -39c53.333 -10.667 95.5 -1.66699 126.5 27s49.5 67 55.5 115c2.66699 23.333 -2.5 46 -15.5 68s-30.667 38.833 -53 50.5
s-47.166 18.5 -74.499 20.5s-53.666 -5 -78.999 -21zM33 1360c8 33.333 25.332 62.5029 51.999 87.5029s57.834 42.833 93.501 53.5s72.5 16.167 110.5 16.5s74.167 -7 108.5 -22s61.833 -36.167 82.5 -63.5c27.333 -36.667 44.166 -79.667 50.499 -129
s2.83301 -96.166 -10.5 -140.499s-38.166 -83.5 -74.499 -117.5s-80.166 -54.333 -131.499 -61c-45.333 -6.66699 -88.333 -2.33398 -129 12.999s-74.834 39.666 -102.501 72.999s-46.667 74.666 -57 123.999s-7.83301 104.666 7.5 165.999z" />
    <glyph glyph-name="guillemotright" unicode="&#xbb;" horiz-adv-x="976" 
d="M145 180c-14.667 -7.33301 -29.168 -10.001 -43.501 -8.00098s-26 8.5 -35 19.5s-15.667 23 -20 36s-3.83301 26.667 1.5 41s15.666 25.833 30.999 34.5c104 62.667 213 123.667 327 183c-26 23.333 -57.333 46.166 -94 68.499s-80.5 47.333 -131.5 75
s-91.833 50.834 -122.5 69.501c-22.667 18.667 -32.667 39.834 -30 63.501s14.334 43.834 35.001 60.501s39.334 19.334 56.001 8.00098c49.333 -33.333 118 -75.333 206 -126s147.333 -87.334 178 -110.001c24 -17.333 40 -39 48 -65s7.83301 -50.833 -0.5 -74.5
s-22.833 -41.834 -43.5 -54.501l-143.5 -89.5c-77.667 -49 -150.5 -92.833 -218.5 -131.5zM534.999 180.999c-28.667 -16 -52.668 -12.667 -72.001 10c-18 20.667 -22.333 44.334 -13 71.001c5.33301 17.333 16.666 31 33.999 41c80 48 189 108 327 180
c-27.333 24.667 -60.833 51.167 -100.5 79.5s-75 52.333 -106 72l-129.5 79.5c-22.667 18.667 -32.167 39.5 -28.5 62.5s16.334 42.167 38.001 57.5s40.5 17.333 56.5 6l127.5 -88.5l140.5 -103c53.333 -39.667 83.333 -62.167 90 -67.5c24 -17.333 40.167 -39 48.5 -65
s8.33301 -50.833 0 -74.5s-23.166 -41.834 -44.499 -54.501l-164.5 -92z" />
    <glyph glyph-name="questiondown" unicode="&#xbf;" horiz-adv-x="877" 
d="M560 647c2 -32.667 4.1709 -83 6.50391 -151s5.5 -125.667 9.5 -173c2 -22.667 -6.5 -45.167 -25.5 -67.5s-43.167 -32.5 -72.5 -30.5c-100.667 7.33301 -177.167 -2.83398 -229.5 -30.501s-88.833 -77.5 -109.5 -149.5c-12.667 -43.333 -19.5 -86.666 -20.5 -129.999
s4.16699 -84.5 15.5 -123.5s30.5 -73.833 57.5 -104.5s60.5 -54.334 100.5 -71.001c37.333 -15.333 73.833 -24.5 109.5 -27.5s69 -1.33301 100 5s63.5 18.833 97.5 37.5s66 39.167 96 61.5s64.333 50.5 103 84.5c16 14 32.667 16.333 50 7s27.666 -23.833 30.999 -43.5
s-1.66699 -38.834 -15 -57.501c-47.333 -54 -106 -99.167 -176 -135.5s-145 -59 -225 -68s-157.667 3.5 -233 37.5c-58 26.667 -105.5 63.334 -142.5 110.001s-61.833 97.5 -74.5 152.5s-16.667 112 -12 171s17.667 116.833 39 173.5c31.333 82 81.166 140.333 149.499 175
s155.166 51.334 260.499 50.001c2 35.333 0.333008 88.833 -5 160.5s-8.33301 118.167 -9 139.5c-0.666992 30 9.16602 49.167 29.499 57.5s40.833 6 61.5 -7s31.667 -30.5 33 -52.5zM574.004 852c-1.33301 -12.667 -7.00195 -24.1699 -17.002 -34.5029
s-21.667 -17.666 -35 -21.999s-27.166 -5.66602 -41.499 -3.99902s-25.833 7.16699 -34.5 16.5c-14.667 14.667 -24.334 33.334 -29.001 56.001s-3 44 5 64s21.333 33.333 40 40c28.667 9.33301 55.334 0.333008 80.001 -27s35.334 -57 32.001 -89z" />
    <glyph glyph-name="Agrave" unicode="&#xc0;" horiz-adv-x="1179" 
d="M361 1889c-10 9.33301 -15.833 20.833 -17.5 34.5s0.5 26.334 6.5 38.001s14 21.667 24 30s22.167 12.166 36.5 11.499s28.5 -6.66699 42.5 -18c62.667 -50.667 119.5 -92.5 170.5 -125.5s110.167 -66.5 177.5 -100.5c21.333 -14.667 32.5 -34.167 33.5 -58.5
s-9.33301 -44.833 -31 -61.5s-45.834 -18 -72.501 -4l-123 70c-30.667 18 -69.167 43.667 -115.5 77s-90.166 69 -131.499 107zM29 98l80 239.499l113 335.5c-13.333 10.667 -22.333 24.167 -27 40.5s-1.66699 31.333 9 45s29 20.834 55 21.501l90 254.5
c18 50.333 43.833 119 77.5 206s62.834 156.167 87.501 207.5c10.667 21.333 30 37.333 58 48s55.833 11.5 83.5 2.5s45.167 -27.167 52.5 -54.5l55 -202l71.5 -259.5c21.667 -75.667 42.834 -145.167 63.501 -208.5c59.333 4.66699 128.666 11.667 207.999 21
c27.333 3.33301 40.666 -2 39.999 -16c-0.666992 -15.333 -13.667 -31 -39 -47c-10.667 -6.66699 -22 -11.667 -34 -15c-48.667 -14.667 -96.334 -27 -143.001 -37c76.667 -227.333 150.334 -433 221.001 -617c4.66699 -10.667 4.16699 -22.167 -1.5 -34.5
s-14.167 -22.333 -25.5 -30s-23.5 -13.334 -36.5 -17.001s-25.667 -2.16699 -38 4.5s-21.5 18.334 -27.5 35.001l-212 640c-66 -8 -139.667 -12 -221 -12s-165 2.33301 -251 7c-66.667 -194.667 -131 -396.667 -193 -606c-8 -27.333 -23.5 -42.5 -46.5 -45.5
s-42.5 5.33301 -58.5 25s-19.667 42.5 -11 68.5zM380 776.999c24.667 -1.33301 63.6689 -3 117.002 -5s86.333 -3.16699 99 -3.5s42.667 -1 90 -2s77.333 -0.5 90 1.5c-16 49.333 -43.333 140.333 -82 273s-69.667 232.667 -93 300
c-20.667 -42 -45.334 -98.833 -74.001 -170.5s-51.834 -131.667 -69.501 -180z" />
    <glyph glyph-name="Aacute" unicode="&#xc1;" horiz-adv-x="1179" 
d="M870 1885c-41.333 -38 -85.1689 -73.667 -131.502 -107s-84.833 -59 -115.5 -77l-123 -70c-26.667 -14.667 -50.667 -13.5 -72 3.5s-31.666 37.667 -30.999 62s11.667 43.833 33 58.5c68 34 127.333 67.5 178 100.5s107.334 74.833 170.001 125.5
c14 11.333 28.333 17.333 43 18s27 -3.16602 37 -11.499s18 -18.333 24 -30s8 -24.334 6 -38.001s-8 -25.167 -18 -34.5zM28.9971 98l80 239.499l113 335.5c-13.333 10.667 -22.333 24.167 -27 40.5s-1.66699 31.333 9 45s29 20.834 55 21.501l90 254.5
c18 50.333 43.833 119 77.5 206s62.834 156.167 87.501 207.5c10.667 21.333 30 37.333 58 48s55.833 11.5 83.5 2.5s45.167 -27.167 52.5 -54.5l55 -202l71.5 -259.5c21.667 -75.667 42.834 -145.167 63.501 -208.5c59.333 4.66699 128.666 11.667 207.999 21
c27.333 3.33301 40.666 -2 39.999 -16c-0.666992 -15.333 -13.667 -31 -39 -47c-10.667 -6.66699 -22 -11.667 -34 -15c-48.667 -14.667 -96.334 -27 -143.001 -37c76.667 -227.333 150.334 -433 221.001 -617c4.66699 -10.667 4.16699 -22.167 -1.5 -34.5
s-14.167 -22.333 -25.5 -30s-23.5 -13.334 -36.5 -17.001s-25.667 -2.16699 -38 4.5s-21.5 18.334 -27.5 35.001l-212 640c-66 -8 -139.667 -12 -221 -12s-165 2.33301 -251 7c-66.667 -194.667 -131 -396.667 -193 -606c-8 -27.333 -23.5 -42.5 -46.5 -45.5
s-42.5 5.33301 -58.5 25s-19.667 42.5 -11 68.5zM379.997 776.999c24.667 -1.33301 63.6689 -3 117.002 -5s86.333 -3.16699 99 -3.5s42.667 -1 90 -2s77.333 -0.5 90 1.5c-16 49.333 -43.333 140.333 -82 273s-69.667 232.667 -93 300
c-20.667 -42 -45.334 -98.833 -74.001 -170.5s-51.834 -131.667 -69.501 -180z" />
    <glyph glyph-name="Acircumflex" unicode="&#xc2;" horiz-adv-x="1179" 
d="M342 1717c57.333 140 117.331 271.002 179.998 393.002c10.667 21.333 28.667 36.666 54 46c25.333 9.33301 51.333 9.66602 78 0.999023s47.334 -25.667 62.001 -51c54.667 -97.333 116 -230 184 -398c4.66699 -10.667 4.5 -22.167 -0.5 -34.5
s-12.833 -22.333 -23.5 -30s-22.167 -13.167 -34.5 -16.5s-24.666 -1.66602 -36.999 5.00098s-21.5 18 -27.5 34c-44.667 113.333 -97.667 230.666 -159 351.999c-25.333 -44.667 -49.5 -91.5 -72.5 -140.5s-38.833 -84.667 -47.5 -107l-40 -101.5
c-6.66699 -16 -16.167 -27.833 -28.5 -35.5s-24.5 -10.334 -36.5 -8.00098s-23.333 7.33301 -34 15s-17.667 18.5 -21 32.5s-2 28.667 4 44zM28.998 98.002l80 239.499l113 335.5c-13.333 10.667 -22.333 24.167 -27 40.5s-1.66699 31.333 9 45s29 20.834 55 21.501
l90 254.5c18 50.333 43.833 119 77.5 206s62.834 156.167 87.501 207.5c10.667 21.333 30 37.333 58 48s55.833 11.5 83.5 2.5s45.167 -27.167 52.5 -54.5l55 -202l71.5 -259.5c21.667 -75.667 42.834 -145.167 63.501 -208.5c59.333 4.66699 128.666 11.667 207.999 21
c27.333 3.33301 40.666 -2 39.999 -16c-0.666992 -15.333 -13.667 -31 -39 -47c-10.667 -6.66699 -22 -11.667 -34 -15c-48.667 -14.667 -96.334 -27 -143.001 -37c76.667 -227.333 150.334 -433 221.001 -617c4.66699 -10.667 4.16699 -22.167 -1.5 -34.5
s-14.167 -22.333 -25.5 -30s-23.5 -13.334 -36.5 -17.001s-25.667 -2.16699 -38 4.5s-21.5 18.334 -27.5 35.001l-212 640c-66 -8 -139.667 -12 -221 -12s-165 2.33301 -251 7c-66.667 -194.667 -131 -396.667 -193 -606c-8 -27.333 -23.5 -42.5 -46.5 -45.5
s-42.5 5.33301 -58.5 25s-19.667 42.5 -11 68.5zM379.998 777.001c24.667 -1.33301 63.6689 -3 117.002 -5s86.333 -3.16699 99 -3.5s42.667 -1 90 -2s77.333 -0.5 90 1.5c-16 49.333 -43.333 140.333 -82 273s-69.667 232.667 -93 300
c-20.667 -42 -45.334 -98.833 -74.001 -170.5s-51.834 -131.667 -69.501 -180z" />
    <glyph glyph-name="Atilde" unicode="&#xc3;" horiz-adv-x="1179" 
d="M1050 1770c-14 -24 -30.501 -45.834 -49.501 -65.501s-43.167 -36.667 -72.5 -51s-60.666 -23 -93.999 -26s-72.333 2.33301 -117 16s-90.667 36.834 -138 69.501c-30.667 20.667 -58.334 35.667 -83.001 45s-49.334 13.333 -74.001 12s-48.5 -11.166 -71.5 -29.499
s-44.833 -45.5 -65.5 -81.5c-18 -30.667 -40.333 -40.334 -67 -29.001c-23.333 10 -38.333 30.333 -45 61c-5.33301 26.667 -1 53 13 79c10.667 19.333 24.834 38.166 42.501 56.499s39.834 34.833 66.501 49.5s55 24.667 85 30s63.833 3.33301 101.5 -6
s75.167 -26.666 112.5 -51.999c14 -10 25.667 -18 35 -24l37.5 -23c15.667 -9.33301 29.5 -16.333 41.5 -21s26.167 -9.16699 42.5 -13.5s31 -6.33301 44 -6s27.5 2.5 43.5 6.5s30.667 10.833 44 20.5s27 22.5 41 38.5s27.333 35.333 40 58
c13.333 24.667 32.333 33.334 57 26.001c22.667 -6.66699 37.667 -23.334 45 -50.001c8 -28 3 -58 -15 -90zM28.999 97.999l80 239.499l113 335.5c-13.333 10.667 -22.333 24.167 -27 40.5s-1.66699 31.333 9 45s29 20.834 55 21.501l90 254.5
c18 50.333 43.833 119 77.5 206s62.834 156.167 87.501 207.5c10.667 21.333 30 37.333 58 48s55.833 11.5 83.5 2.5s45.167 -27.167 52.5 -54.5l55 -202l71.5 -259.5c21.667 -75.667 42.834 -145.167 63.501 -208.5c59.333 4.66699 128.666 11.667 207.999 21
c27.333 3.33301 40.666 -2 39.999 -16c-0.666992 -15.333 -13.667 -31 -39 -47c-10.667 -6.66699 -22 -11.667 -34 -15c-48.667 -14.667 -96.334 -27 -143.001 -37c76.667 -227.333 150.334 -433 221.001 -617c4.66699 -10.667 4.16699 -22.167 -1.5 -34.5
s-14.167 -22.333 -25.5 -30s-23.5 -13.334 -36.5 -17.001s-25.667 -2.16699 -38 4.5s-21.5 18.334 -27.5 35.001l-212 640c-66 -8 -139.667 -12 -221 -12s-165 2.33301 -251 7c-66.667 -194.667 -131 -396.667 -193 -606c-8 -27.333 -23.5 -42.5 -46.5 -45.5
s-42.5 5.33301 -58.5 25s-19.667 42.5 -11 68.5zM379.999 776.998c24.667 -1.33301 63.6689 -3 117.002 -5s86.333 -3.16699 99 -3.5s42.667 -1 90 -2s77.333 -0.5 90 1.5c-16 49.333 -43.333 140.333 -82 273s-69.667 232.667 -93 300
c-20.667 -42 -45.334 -98.833 -74.001 -170.5s-51.834 -131.667 -69.501 -180z" />
    <glyph glyph-name="Adieresis" unicode="&#xc4;" horiz-adv-x="1179" 
d="M672 1749c1.33301 12.667 7.00391 24.1699 17.0039 34.5029s21.667 17.666 35 21.999s27.166 5.66602 41.499 3.99902s25.833 -7.16699 34.5 -16.5c14 -14.667 23.333 -33.334 28 -56.001s3.16699 -44 -4.5 -64s-20.834 -33.333 -39.501 -40
c-28.667 -9.33301 -55.334 -0.333008 -80.001 27s-35.334 57 -32.001 89zM409.004 1745c1.33301 12.667 7.00195 24.001 17.002 34.001s21.667 17.333 35 22s27.166 6.16699 41.499 4.5s25.833 -7.16699 34.5 -16.5c14.667 -14.667 24.334 -33.334 29.001 -56.001
s3 -44 -5 -64s-21.333 -33.333 -40 -40c-28.667 -10 -55.334 -1.33301 -80.001 26s-35.334 57.333 -32.001 90zM29.0059 98.0039l80 239.499l113 335.5c-13.333 10.667 -22.333 24.167 -27 40.5s-1.66699 31.333 9 45s29 20.834 55 21.501l90 254.5
c18 50.333 43.833 119 77.5 206s62.834 156.167 87.501 207.5c10.667 21.333 30 37.333 58 48s55.833 11.5 83.5 2.5s45.167 -27.167 52.5 -54.5l55 -202l71.5 -259.5c21.667 -75.667 42.834 -145.167 63.501 -208.5c59.333 4.66699 128.666 11.667 207.999 21
c27.333 3.33301 40.666 -2 39.999 -16c-0.666992 -15.333 -13.667 -31 -39 -47c-10.667 -6.66699 -22 -11.667 -34 -15c-48.667 -14.667 -96.334 -27 -143.001 -37c76.667 -227.333 150.334 -433 221.001 -617c4.66699 -10.667 4.16699 -22.167 -1.5 -34.5
s-14.167 -22.333 -25.5 -30s-23.5 -13.334 -36.5 -17.001s-25.667 -2.16699 -38 4.5s-21.5 18.334 -27.5 35.001l-212 640c-66 -8 -139.667 -12 -221 -12s-165 2.33301 -251 7c-66.667 -194.667 -131 -396.667 -193 -606c-8 -27.333 -23.5 -42.5 -46.5 -45.5
s-42.5 5.33301 -58.5 25s-19.667 42.5 -11 68.5zM380.006 777.003c24.667 -1.33301 63.6689 -3 117.002 -5s86.333 -3.16699 99 -3.5s42.667 -1 90 -2s77.333 -0.5 90 1.5c-16 49.333 -43.333 140.333 -82 273s-69.667 232.667 -93 300
c-20.667 -42 -45.334 -98.833 -74.001 -170.5s-51.834 -131.667 -69.501 -180z" />
    <glyph glyph-name="Aring" unicode="&#xc5;" horiz-adv-x="1179" 
d="M539 1790c-21.333 -16 -35.8311 -35.999 -43.498 -59.999s-9.16699 -47 -4.5 -69s14.667 -41.833 30 -59.5s34 -28.834 56 -33.501c37.333 -8 71.666 -1.33301 102.999 20s49.666 52.666 54.999 93.999c2.66699 23.333 -2.5 45.333 -15.5 66s-29.5 36.334 -49.5 47.001
s-42.333 16 -67 16s-46 -7 -64 -21zM385.002 1768c8.66699 42 30.168 76.333 64.501 103s72.333 43.167 114 49.5s84.334 3.33301 128.001 -9s78.834 -33.5 105.501 -63.5c26 -30 41.667 -66.667 47 -110s1.66602 -84.833 -11.001 -124.5s-33.834 -75.167 -63.501 -106.5
s-63.834 -51 -102.501 -59c-40.667 -7.33301 -80.334 -5.33301 -119.001 6s-72.167 30.333 -100.5 57s-48.666 62.667 -60.999 108s-12.833 95 -1.5 149zM29.0029 98.001l80 239.499l113 335.5c-13.333 10.667 -22.333 24.167 -27 40.5s-1.66699 31.333 9 45
s29 20.834 55 21.501l90 254.5c18 50.333 43.833 119 77.5 206s62.834 156.167 87.501 207.5c10.667 21.333 30 37.333 58 48s55.833 11.5 83.5 2.5s45.167 -27.167 52.5 -54.5l55 -202l71.5 -259.5c21.667 -75.667 42.834 -145.167 63.501 -208.5
c59.333 4.66699 128.666 11.667 207.999 21c27.333 3.33301 40.666 -2 39.999 -16c-0.666992 -15.333 -13.667 -31 -39 -47c-10.667 -6.66699 -22 -11.667 -34 -15c-48.667 -14.667 -96.334 -27 -143.001 -37c76.667 -227.333 150.334 -433 221.001 -617
c4.66699 -10.667 4.16699 -22.167 -1.5 -34.5s-14.167 -22.333 -25.5 -30s-23.5 -13.334 -36.5 -17.001s-25.667 -2.16699 -38 4.5s-21.5 18.334 -27.5 35.001l-212 640c-66 -8 -139.667 -12 -221 -12s-165 2.33301 -251 7c-66.667 -194.667 -131 -396.667 -193 -606
c-8 -27.333 -23.5 -42.5 -46.5 -45.5s-42.5 5.33301 -58.5 25s-19.667 42.5 -11 68.5zM380.003 777c24.667 -1.33301 63.6689 -3 117.002 -5s86.333 -3.16699 99 -3.5s42.667 -1 90 -2s77.333 -0.5 90 1.5c-16 49.333 -43.333 140.333 -82 273s-69.667 232.667 -93 300
c-20.667 -42 -45.334 -98.833 -74.001 -170.5s-51.834 -131.667 -69.501 -180z" />
    <glyph glyph-name="AE" unicode="&#xc6;" horiz-adv-x="1826" 
d="M861 115c294.667 -10.667 577.003 -5.66699 847.003 15c32 2.66699 50.667 -8.66602 56 -33.999c4.66699 -23.333 -2.66602 -44.666 -21.999 -63.999c-12.667 -12.667 -27.334 -19.334 -44.001 -20.001c-91.333 -4.66699 -191 -7.83398 -299 -9.50098
s-205.333 -2.16699 -292 -1.5s-186.334 0.333984 -299.001 -0.999023c-22.667 -7.33301 -43 -3.33301 -61 12s-26.333 42 -25 80c0.666992 22 2.33398 71.5 5.00098 148.5l10 288.5l11 307c-54.667 0 -100.667 -0.333008 -138 -1
c-59.333 -115.333 -123.666 -232.5 -192.999 -351.5l-276 -459.5c-8 -12.667 -18.5 -21.334 -31.5 -26.001s-25.167 -5.33398 -36.5 -2.00098s-21.833 9.33301 -31.5 18s-15 19.834 -16 33.501s2.5 27.834 10.5 42.501l433 759c-14 8.66699 -22.667 20.5 -26 35.5
s-2 29.333 4 43s17 25.167 33 34.5s34 13.333 54 12c1.33301 0 2.33301 -0.333008 3 -1c99.333 184.667 174.666 338.334 225.999 461.001c3.33301 20.667 11.5 35.5 24.5 44.5s27.167 12.167 42.5 9.5s29.333 -9.66699 42 -21c67.333 0 149.666 -0.666992 246.999 -2
l222.5 -3c51 -0.666992 116.167 -0.333984 195.5 0.999023s161 4 245 8c16.667 1.33301 23 -9.66699 19 -33c-4.66699 -24.667 -15.334 -43.334 -32.001 -56.001c-5.33301 -4 -10.333 -6.33301 -15 -7c-50 -6 -100.833 -11 -152.5 -15s-94.334 -7 -128.001 -9
s-82.5 -3.16699 -146.5 -3.5s-106.333 -0.5 -127 -0.5s-72.334 0.666992 -155.001 2s-133 2 -151 2c-2 -32.667 -6.33301 -161.334 -13 -386.001c380 -4 614.333 -1.66699 703 7c26.667 2.66699 48.834 -7.66602 66.501 -30.999s21.5 -46.833 11.5 -70.5
s-34.667 -35.167 -74 -34.5c-116 2.66699 -353 3 -711 1c-12.667 -424 -18 -664.667 -16 -722zM757.003 1135l-79 -167c23.333 0 48 -0.333008 74 -1c2 62 3.66699 118 5 168z" />
    <glyph glyph-name="Ccedilla" unicode="&#xc7;" horiz-adv-x="1306" 
d="M1019 1220c-12 4 -24.001 10.6689 -36.001 20.002s-22.667 18.666 -32 27.999s-21.333 18.666 -36 27.999s-30.5 16.666 -47.5 21.999s-39.5 7.66602 -67.5 6.99902s-59.667 -5 -95 -13c-83.333 -19.333 -158.166 -47.166 -224.499 -83.499
s-120.333 -77.166 -162 -122.499s-76.334 -94.666 -104.001 -147.999s-46.5 -107.166 -56.5 -161.499s-14.833 -108.333 -14.5 -162s6 -103.5 17 -149.5s25.833 -87.667 44.5 -125c16.667 -32.667 39 -63.667 67 -93s60.167 -55.5 96.5 -78.5s76.333 -41.333 120 -55
s88.834 -22.334 135.501 -26.001s95.167 0.333008 145.5 12s99.5 30 147.5 55s96 60.333 144 106s92 100.167 132 163.5c15.333 24 34 28.333 56 13c19.333 -14 30 -34.333 32 -61c0.666992 -13.333 -2 -25.333 -8 -36c-46 -77.333 -98.833 -142.833 -158.5 -196.5
s-120.167 -93.667 -181.5 -120s-125.666 -43.166 -192.999 -50.499c0.666992 -13.333 2.16699 -36 4.5 -68l5.5 -77c22 5.33301 43.667 9 65 11s44.333 2.16699 69 0.5s47 -8.33398 67 -20.001s35 -27.834 45 -48.501c18 -36.667 28.167 -74.834 30.5 -114.501
s-5.16699 -76.667 -22.5 -111s-43.666 -58.5 -78.999 -72.5c-78.667 -29.333 -155.5 -34 -230.5 -14s-136.5 59 -184.5 117c-13.333 16.667 -16.333 33 -9 49c7.33301 14.667 18.666 17 33.999 7l2 -2c26 -20.667 54 -37.5 84 -50.5s58.833 -21.667 86.5 -26
s54 -5.83301 79 -4.5s47.167 5.33301 66.5 12c28 9.33301 48.167 28.333 60.5 57s10.166 54.334 -6.50098 77.001c-12 16 -26.833 26.333 -44.5 31s-35.667 5 -54 1s-39.833 -11.333 -64.5 -22c-22 -10 -45.167 -9.33301 -69.5 2s-38.166 28.666 -41.499 51.999
c-4.66699 40.667 -6.66699 111.334 -6 212.001c-126 7.33301 -240.667 44.5 -344 111.5s-170.666 146.167 -201.999 237.5c-16 47.333 -28.833 96 -38.5 146s-15.167 105.333 -16.5 166s3.16699 119.5 13.5 176.5s30 115.167 59 174.5s66.167 114 111.5 164
s105.166 96.667 179.499 140s159.5 79 255.5 107c70 19.333 135.667 25.333 197 18s114 -23.166 158 -47.499s72.333 -52.5 85 -84.5c8 -18.667 3.66699 -38.334 -13 -59.001s-34.334 -27.667 -53.001 -21z" />
    <glyph glyph-name="Egrave" unicode="&#xc8;" horiz-adv-x="1162" 
d="M296 1854c-10 9.33301 -15.833 20.833 -17.5 34.5s0.5 26.334 6.5 38.001s14 21.667 24 30s22.167 12.166 36.5 11.499s28.5 -6.66699 42.5 -18c62.667 -50.667 119.5 -92.5 170.5 -125.5s110.167 -66.5 177.5 -100.5c21.333 -14.667 32.5 -34.167 33.5 -58.5
s-9.33301 -44.833 -31 -61.5s-45.834 -18 -72.501 -4l-123 70c-30.667 18 -69.167 43.667 -115.5 77s-90.166 69 -131.499 107zM90 1410c-0.666992 28 5.50098 48.6699 18.501 62.0029s28 19 45 17s32.5 -9.33301 46.5 -22c68 0 150.5 -0.666992 247.5 -2l222.5 -3
c51.333 -0.666992 116.5 -0.333984 195.5 0.999023s160.5 4 244.5 8c16.667 1.33301 23 -9.66699 19 -33c-4 -24.667 -14.333 -43.334 -31 -56.001c-5.33301 -4 -10.666 -6.33301 -15.999 -7c-49.333 -6 -100 -11 -152 -15s-94.833 -7 -128.5 -9
s-82.334 -3.16699 -146.001 -3.5s-106 -0.5 -127 -0.5s-72.833 0.666992 -155.5 2s-133 2 -151 2c-4.66699 -80.667 -10 -208.334 -16 -383.001c8.66699 5.33301 18.667 7.66602 30 6.99902c165.333 -6 290 -8 374 -6s208 9.33301 372 22
c32 2.66699 50.667 -8.66602 56 -33.999c4.66699 -23.333 -2.66602 -44.666 -21.999 -63.999c-12 -12.667 -26.667 -19.334 -44 -20.001c-74 -4 -143.333 -7 -208 -9s-116.667 -3.16699 -156 -3.5l-174 -1.5c-76.667 -0.666992 -143.334 -1.33398 -200.001 -2.00098
c-12 0 -22.333 3.66699 -31 11c-12.667 -389.333 -17.334 -640.333 -14.001 -753c295.333 -10.667 577.666 -5.66699 846.999 15c32 2.66699 50.667 -8.66602 56 -33.999c4.66699 -23.333 -2.33301 -44.666 -21 -63.999c-12.667 -12.667 -27.667 -19.334 -45 -20.001
c-91.333 -4.66699 -190.833 -7.83398 -298.5 -9.50098s-205 -2.16699 -292 -1.5s-186.833 0.333984 -299.5 -0.999023c-22 -7.33301 -42 -3.33301 -60 12s-26.667 42 -26 80c0.666992 21.333 4.83398 136.833 12.501 346.5s14.5 411 20.5 604s8.33301 315.5 7 367.5z" />
    <glyph glyph-name="Eacute" unicode="&#xc9;" horiz-adv-x="1162" 
d="M853 1878c-41.333 -38 -85.1689 -73.667 -131.502 -107s-84.833 -59 -115.5 -77l-123 -70c-26.667 -14.667 -50.667 -13.5 -72 3.5s-31.666 37.667 -30.999 62s11.667 43.833 33 58.5c68 34 127.333 67.5 178 100.5s107.334 74.833 170.001 125.5
c14 11.333 28.333 17.333 43 18s27 -3.16602 37 -11.499s18 -18.333 24 -30s8 -24.334 6 -38.001s-8 -25.167 -18 -34.5zM89.9971 1410c-0.666992 28 5.50098 48.6699 18.501 62.0029s28 19 45 17s32.5 -9.33301 46.5 -22c68 0 150.5 -0.666992 247.5 -2l222.5 -3
c51.333 -0.666992 116.5 -0.333984 195.5 0.999023s160.5 4 244.5 8c16.667 1.33301 23 -9.66699 19 -33c-4 -24.667 -14.333 -43.334 -31 -56.001c-5.33301 -4 -10.666 -6.33301 -15.999 -7c-49.333 -6 -100 -11 -152 -15s-94.833 -7 -128.5 -9
s-82.334 -3.16699 -146.001 -3.5s-106 -0.5 -127 -0.5s-72.833 0.666992 -155.5 2s-133 2 -151 2c-4.66699 -80.667 -10 -208.334 -16 -383.001c8.66699 5.33301 18.667 7.66602 30 6.99902c165.333 -6 290 -8 374 -6s208 9.33301 372 22
c32 2.66699 50.667 -8.66602 56 -33.999c4.66699 -23.333 -2.66602 -44.666 -21.999 -63.999c-12 -12.667 -26.667 -19.334 -44 -20.001c-74 -4 -143.333 -7 -208 -9s-116.667 -3.16699 -156 -3.5l-174 -1.5c-76.667 -0.666992 -143.334 -1.33398 -200.001 -2.00098
c-12 0 -22.333 3.66699 -31 11c-12.667 -389.333 -17.334 -640.333 -14.001 -753c295.333 -10.667 577.666 -5.66699 846.999 15c32 2.66699 50.667 -8.66602 56 -33.999c4.66699 -23.333 -2.33301 -44.666 -21 -63.999c-12.667 -12.667 -27.667 -19.334 -45 -20.001
c-91.333 -4.66699 -190.833 -7.83398 -298.5 -9.50098s-205 -2.16699 -292 -1.5s-186.833 0.333984 -299.5 -0.999023c-22 -7.33301 -42 -3.33301 -60 12s-26.667 42 -26 80c0.666992 21.333 4.83398 136.833 12.501 346.5s14.5 411 20.5 604s8.33301 315.5 7 367.5z" />
    <glyph glyph-name="Ecircumflex" unicode="&#xca;" horiz-adv-x="1162" 
d="M319 1707c57.333 140 117.331 271.002 179.998 393.002c10.667 21.333 28.667 36.666 54 46c25.333 9.33301 51.333 9.66602 78 0.999023s47.334 -25.667 62.001 -51c54.667 -97.333 116 -230 184 -398c4.66699 -10.667 4.5 -22.167 -0.5 -34.5
s-12.833 -22.333 -23.5 -30s-22.167 -13.167 -34.5 -16.5s-24.666 -1.66602 -36.999 5.00098s-21.5 18 -27.5 34c-44.667 113.333 -97.667 230.666 -159 351.999c-25.333 -44.667 -49.5 -91.5 -72.5 -140.5s-38.833 -84.667 -47.5 -107l-40 -101.5
c-6.66699 -16 -16.167 -27.833 -28.5 -35.5s-24.5 -10.334 -36.5 -8.00098s-23.333 7.33301 -34 15s-17.667 18.5 -21 32.5s-2 28.667 4 44zM89.998 1410c-0.666992 28 5.50098 48.6699 18.501 62.0029s28 19 45 17s32.5 -9.33301 46.5 -22c68 0 150.5 -0.666992 247.5 -2
l222.5 -3c51.333 -0.666992 116.5 -0.333984 195.5 0.999023s160.5 4 244.5 8c16.667 1.33301 23 -9.66699 19 -33c-4 -24.667 -14.333 -43.334 -31 -56.001c-5.33301 -4 -10.666 -6.33301 -15.999 -7c-49.333 -6 -100 -11 -152 -15s-94.833 -7 -128.5 -9
s-82.334 -3.16699 -146.001 -3.5s-106 -0.5 -127 -0.5s-72.833 0.666992 -155.5 2s-133 2 -151 2c-4.66699 -80.667 -10 -208.334 -16 -383.001c8.66699 5.33301 18.667 7.66602 30 6.99902c165.333 -6 290 -8 374 -6s208 9.33301 372 22
c32 2.66699 50.667 -8.66602 56 -33.999c4.66699 -23.333 -2.66602 -44.666 -21.999 -63.999c-12 -12.667 -26.667 -19.334 -44 -20.001c-74 -4 -143.333 -7 -208 -9s-116.667 -3.16699 -156 -3.5l-174 -1.5c-76.667 -0.666992 -143.334 -1.33398 -200.001 -2.00098
c-12 0 -22.333 3.66699 -31 11c-12.667 -389.333 -17.334 -640.333 -14.001 -753c295.333 -10.667 577.666 -5.66699 846.999 15c32 2.66699 50.667 -8.66602 56 -33.999c4.66699 -23.333 -2.33301 -44.666 -21 -63.999c-12.667 -12.667 -27.667 -19.334 -45 -20.001
c-91.333 -4.66699 -190.833 -7.83398 -298.5 -9.50098s-205 -2.16699 -292 -1.5s-186.833 0.333984 -299.5 -0.999023c-22 -7.33301 -42 -3.33301 -60 12s-26.667 42 -26 80c0.666992 21.333 4.83398 136.833 12.501 346.5s14.5 411 20.5 604s8.33301 315.5 7 367.5z" />
    <glyph glyph-name="Edieresis" unicode="&#xcb;" horiz-adv-x="1162" 
d="M651 1734c1.33301 12.667 7.00391 24.1699 17.0039 34.5029s21.667 17.666 35 21.999s27.166 5.66602 41.499 3.99902s25.833 -7.16699 34.5 -16.5c14 -14.667 23.333 -33.334 28 -56.001s3.16699 -44 -4.5 -64s-20.834 -33.333 -39.501 -40
c-28.667 -9.33301 -55.334 -0.333008 -80.001 27s-35.334 57 -32.001 89zM388.004 1730c1.33301 12.667 7.00195 24.001 17.002 34.001s21.667 17.333 35 22s27.166 6.16699 41.499 4.5s25.833 -7.16699 34.5 -16.5c14.667 -14.667 24.334 -33.334 29.001 -56.001
s3 -44 -5 -64s-21.333 -33.333 -40 -40c-28.667 -10 -55.334 -1.33301 -80.001 26s-35.334 57.333 -32.001 90zM90.0059 1410c-0.666992 28 5.50098 48.6699 18.501 62.0029s28 19 45 17s32.5 -9.33301 46.5 -22c68 0 150.5 -0.666992 247.5 -2l222.5 -3
c51.333 -0.666992 116.5 -0.333984 195.5 0.999023s160.5 4 244.5 8c16.667 1.33301 23 -9.66699 19 -33c-4 -24.667 -14.333 -43.334 -31 -56.001c-5.33301 -4 -10.666 -6.33301 -15.999 -7c-49.333 -6 -100 -11 -152 -15s-94.833 -7 -128.5 -9
s-82.334 -3.16699 -146.001 -3.5s-106 -0.5 -127 -0.5s-72.833 0.666992 -155.5 2s-133 2 -151 2c-4.66699 -80.667 -10 -208.334 -16 -383.001c8.66699 5.33301 18.667 7.66602 30 6.99902c165.333 -6 290 -8 374 -6s208 9.33301 372 22
c32 2.66699 50.667 -8.66602 56 -33.999c4.66699 -23.333 -2.66602 -44.666 -21.999 -63.999c-12 -12.667 -26.667 -19.334 -44 -20.001c-74 -4 -143.333 -7 -208 -9s-116.667 -3.16699 -156 -3.5l-174 -1.5c-76.667 -0.666992 -143.334 -1.33398 -200.001 -2.00098
c-12 0 -22.333 3.66699 -31 11c-12.667 -389.333 -17.334 -640.333 -14.001 -753c295.333 -10.667 577.666 -5.66699 846.999 15c32 2.66699 50.667 -8.66602 56 -33.999c4.66699 -23.333 -2.33301 -44.666 -21 -63.999c-12.667 -12.667 -27.667 -19.334 -45 -20.001
c-91.333 -4.66699 -190.833 -7.83398 -298.5 -9.50098s-205 -2.16699 -292 -1.5s-186.833 0.333984 -299.5 -0.999023c-22 -7.33301 -42 -3.33301 -60 12s-26.667 42 -26 80c0.666992 21.333 4.83398 136.833 12.501 346.5s14.5 411 20.5 604s8.33301 315.5 7 367.5z" />
    <glyph glyph-name="Igrave" unicode="&#xcc;" horiz-adv-x="420" 
d="M-29 1875c-10 9.33301 -15.833 20.833 -17.5 34.5s0.5 26.334 6.5 38.001s14 21.667 24 30s22.167 12.166 36.5 11.499s28.5 -6.66699 42.5 -18c62.667 -50.667 119.5 -92.5 170.5 -125.5s110.167 -66.5 177.5 -100.5c21.333 -14.667 32.5 -34.167 33.5 -58.5
s-9.33301 -44.833 -31 -61.5s-45.834 -18 -72.501 -4l-123 70c-30.667 18 -69.167 43.667 -115.5 77s-90.166 69 -131.499 107zM140 1419c-0.666992 39.333 11.001 64.001 35.001 74.001s47.5 6.16699 70.5 -11.5s33.167 -39.834 30.5 -66.501
c-6 -78 -8.16699 -302.167 -6.5 -672.5s5.16699 -594.833 10.5 -673.5c2.66699 -34.667 -8 -61.167 -32 -79.5s-48.333 -20.333 -73 -6s-36.334 43.5 -35.001 87.5c2 73.333 3 294 3 662s-1 596.667 -3 686z" />
    <glyph glyph-name="Iacute" unicode="&#xcd;" horiz-adv-x="420" 
d="M443 1875c-41.333 -38 -85.1689 -73.667 -131.502 -107s-84.833 -59 -115.5 -77l-123 -70c-26.667 -14.667 -50.667 -13.5 -72 3.5s-31.666 37.667 -30.999 62s11.667 43.833 33 58.5c68 34 127.333 67.5 178 100.5s107.334 74.833 170.001 125.5
c14 11.333 28.333 17.333 43 18s27 -3.16602 37 -11.499s18 -18.333 24 -30s8 -24.334 6 -38.001s-8 -25.167 -18 -34.5zM139.997 1419c-0.666992 39.333 11.001 64.001 35.001 74.001s47.5 6.16699 70.5 -11.5s33.167 -39.834 30.5 -66.501
c-6 -78 -8.16699 -302.167 -6.5 -672.5s5.16699 -594.833 10.5 -673.5c2.66699 -34.667 -8 -61.167 -32 -79.5s-48.333 -20.333 -73 -6s-36.334 43.5 -35.001 87.5c2 73.333 3 294 3 662s-1 596.667 -3 686z" />
    <glyph glyph-name="Icircumflex" unicode="&#xce;" horiz-adv-x="420" 
d="M-80 1711c57.333 140 117.331 271.002 179.998 393.002c10.667 21.333 28.667 36.666 54 46c25.333 9.33301 51.333 9.66602 78 0.999023s47.334 -25.667 62.001 -51c54.667 -97.333 116 -230 184 -398c4.66699 -10.667 4.5 -22.167 -0.5 -34.5
s-12.833 -22.333 -23.5 -30s-22.167 -13.167 -34.5 -16.5s-24.666 -1.66602 -36.999 5.00098s-21.5 18 -27.5 34c-44.667 113.333 -97.667 230.666 -159 351.999c-25.333 -44.667 -49.5 -91.5 -72.5 -140.5s-38.833 -84.667 -47.5 -107l-40 -101.5
c-6.66699 -16 -16.167 -27.833 -28.5 -35.5s-24.5 -10.334 -36.5 -8.00098s-23.333 7.33301 -34 15s-17.667 18.5 -21 32.5s-2 28.667 4 44zM139.998 1419c-0.666992 39.333 11.001 64.001 35.001 74.001s47.5 6.16699 70.5 -11.5s33.167 -39.834 30.5 -66.501
c-6 -78 -8.16699 -302.167 -6.5 -672.5s5.16699 -594.833 10.5 -673.5c2.66699 -34.667 -8 -61.167 -32 -79.5s-48.333 -20.333 -73 -6s-36.334 43.5 -35.001 87.5c2 73.333 3 294 3 662s-1 596.667 -3 686z" />
    <glyph glyph-name="Idieresis" unicode="&#xcf;" horiz-adv-x="420" 
d="M250 1743c1.33301 12.667 7.00391 24.1699 17.0039 34.5029s21.667 17.666 35 21.999s27.166 5.66602 41.499 3.99902s25.833 -7.16699 34.5 -16.5c14 -14.667 23.333 -33.334 28 -56.001s3.16699 -44 -4.5 -64s-20.834 -33.333 -39.501 -40
c-28.667 -9.33301 -55.334 -0.333008 -80.001 27s-35.334 57 -32.001 89zM-12.9961 1739c1.33301 12.667 7.00195 24.001 17.002 34.001s21.667 17.333 35 22s27.166 6.16699 41.499 4.5s25.833 -7.16699 34.5 -16.5c14.667 -14.667 24.334 -33.334 29.001 -56.001
s3 -44 -5 -64s-21.333 -33.333 -40 -40c-28.667 -10 -55.334 -1.33301 -80.001 26s-35.334 57.333 -32.001 90zM140.006 1419c-0.666992 39.333 11.001 64.001 35.001 74.001s47.5 6.16699 70.5 -11.5s33.167 -39.834 30.5 -66.501c-6 -78 -8.16699 -302.167 -6.5 -672.5
s5.16699 -594.833 10.5 -673.5c2.66699 -34.667 -8 -61.167 -32 -79.5s-48.333 -20.333 -73 -6s-36.334 43.5 -35.001 87.5c2 73.333 3 294 3 662s-1 596.667 -3 686z" />
    <glyph glyph-name="Eth" unicode="&#xd0;" horiz-adv-x="1377" 
d="M938 742c-121.333 2.66699 -315.001 2.66895 -581.001 0.00195312c0.666992 -270 3 -467.667 7 -593c63.333 -15.333 120.333 -26 171 -32s103.334 -7.33301 158.001 -4s109 14.333 163 33s108.667 45.334 164 80.001c62.667 38.667 112.167 91.167 148.5 157.5
s57.333 137.333 63 213s-2.83301 154.667 -25.5 237s-58.667 158.5 -108 228.5c-26.667 37.333 -56.334 70.666 -89.001 99.999s-68.167 53.833 -106.5 73.5s-77.333 36.5 -117 50.5s-84 25.167 -133 33.5s-95.5 14.666 -139.5 18.999s-94 7.83301 -150 10.5
c-3.33301 -94.667 -5.33301 -254 -6 -478c290 -4.66699 482.333 -2.33398 577 6.99902c26.667 2 48.834 -8.5 66.501 -31.5s21.5 -46.5 11.5 -70.5s-34.667 -35.333 -74 -34zM231.999 874.002c0 232 -0.333984 394.003 -1.00098 486.003
c-16 7.33301 -26.5 19.666 -31.5 36.999s-3.16699 33.666 5.5 48.999s23 24.333 43 27c11.333 11.333 24.833 16.666 40.5 15.999s30.5 -6 44.5 -16c78.667 -1.33301 150.334 -5.5 215.001 -12.5s128.834 -18.833 192.501 -35.5s122 -38.334 175 -65.001
s104.333 -60.667 154 -102s95.167 -89.666 136.5 -144.999c46 -61.333 81.5 -128.833 106.5 -202.5s38.333 -145.834 40 -216.501s-4.5 -139.167 -18.5 -205.5s-35.833 -126.166 -65.5 -179.499s-64.5 -96.333 -104.5 -129c-50.667 -41.333 -102.5 -75.333 -155.5 -102
s-104 -46.334 -153 -59.001s-101.833 -19.834 -158.5 -21.501s-110.334 0.333008 -161.001 6s-107.334 14.5 -170.001 26.5c-6 -17.333 -16.333 -31 -31 -41s-29.5 -14.667 -44.5 -14s-28.5 8.33398 -40.5 23.001s-18.667 35.334 -20 62.001l-85 20l-82 19
c-22.667 5.33301 -35.667 18.833 -39 40.5s3 41.167 19 58.5s35.333 23.333 58 18l127 -32c1.33301 153.333 2.33301 339 3 557c-44.667 -0.666992 -79.667 -1.33398 -105 -2.00098c-44 -1.33301 -73.167 10.334 -87.5 35.001s-12.166 49 6.50098 73s45 34.667 79 32
c25.333 -1.33301 61.333 -3 108 -5z" />
    <glyph glyph-name="Ntilde" unicode="&#xd1;" horiz-adv-x="1184" 
d="M998 1758c-14 -24 -30.501 -45.834 -49.501 -65.501s-43.167 -36.667 -72.5 -51s-60.666 -23 -93.999 -26s-72.333 2.33301 -117 16s-90.667 36.834 -138 69.501c-30.667 20.667 -58.334 35.667 -83.001 45s-49.334 13.333 -74.001 12s-48.5 -11.166 -71.5 -29.499
s-44.833 -45.5 -65.5 -81.5c-18 -30.667 -40.333 -40.334 -67 -29.001c-23.333 10 -38.333 30.333 -45 61c-5.33301 26.667 -1 53 13 79c10.667 19.333 24.834 38.166 42.501 56.499s39.834 34.833 66.501 49.5s55 24.667 85 30s63.833 3.33301 101.5 -6
s75.167 -26.666 112.5 -51.999c14 -10 25.667 -18 35 -24l37.5 -23c15.667 -9.33301 29.5 -16.333 41.5 -21s26.167 -9.16699 42.5 -13.5s31 -6.33301 44 -6s27.5 2.5 43.5 6.5s30.667 10.833 44 20.5s27 22.5 41 38.5s27.333 35.333 40 58
c13.333 24.667 32.333 33.334 57 26.001c22.667 -6.66699 37.667 -23.334 45 -50.001c8 -28 3 -58 -15 -90zM1074 44.999c-17.333 -38 -45.501 -59.9961 -84.501 -65.9961s-78.833 8 -119.5 42c-46 39.333 -97.833 107.666 -155.5 204.999s-110.667 197.666 -159 300.999
l-180.5 380.5c-72 150.333 -135.333 275.833 -190 376.5c0.666992 -100.667 3.5 -212.167 8.5 -334.5s9.5 -223.833 13.5 -304.5s5 -177.334 3 -290.001s-8.66699 -226 -20 -340c-2 -16.667 -14.333 -30 -37 -40s-44.834 -12.833 -66.501 -8.5s-32.167 15.5 -31.5 33.5
c7.33301 234.667 12 408.5 14 521.5s1.83301 243.667 -0.5 392s-8.5 310.166 -18.5 485.499c-1.33301 20 4.83398 38.167 18.501 54.5s29.167 25.166 46.5 26.499c4 0.666992 8.33301 0.666992 13 0s8 -1 10 -1s4.33301 -0.666992 7 -2s4.33398 -2.33301 5.00098 -3
s2 -1.83398 4 -3.50098s3.33301 -2.5 4 -2.5c40.667 5.33301 70.667 -8 90 -40c52.667 -88.667 110.167 -196 172.5 -322l167.5 -348.5l145 -306c47.333 -97.667 89.666 -175.5 126.999 -233.5s67.666 -88.667 90.999 -92c10 -1.33301 18.5 10.5 25.5 35.5
s12.833 65.833 17.5 122.5s8.33398 118.667 11.001 186s4.33398 154.5 5.00098 261.5s1 210.5 1 310.5s-0.333008 223.667 -1 371c0 16.667 4.16699 30.834 12.5 42.501s18.666 18.834 30.999 21.501s24.5 2.66699 36.5 0s22.333 -9.83398 31 -21.501s13 -25.834 13 -42.501
c0 -159.333 -0.166992 -277.166 -0.5 -353.499s-1 -174.166 -2 -293.499s-2.66699 -209 -5 -269s-5.66602 -125.5 -9.99902 -196.5s-10 -126 -17 -165s-15.5 -69.167 -25.5 -90.5z" />
    <glyph glyph-name="Ograve" unicode="&#xd2;" horiz-adv-x="1314" 
d="M429 1853c-10 9.33301 -15.833 20.833 -17.5 34.5s0.5 26.334 6.5 38.001s14 21.667 24 30s22.167 12.166 36.5 11.499s28.5 -6.66699 42.5 -18c62.667 -50.667 119.5 -92.5 170.5 -125.5s110.167 -66.5 177.5 -100.5c21.333 -14.667 32.5 -34.167 33.5 -58.5
s-9.33301 -44.833 -31 -61.5s-45.834 -18 -72.501 -4l-123 70c-30.667 18 -69.167 43.667 -115.5 77s-90.166 69 -131.499 107zM671 1462c23.333 4 44.002 -2.33496 62.002 -19.002c86 -3.33301 164.667 -24 236 -62s130.666 -88.5 177.999 -151.5
s83.666 -137.167 108.999 -222.5s36.666 -176.333 33.999 -273c-2 -82.667 -10.333 -158.667 -25 -228s-33.834 -129 -57.501 -179s-52.167 -94.5 -85.5 -133.5s-68.333 -70.833 -105 -95.5s-77.167 -45.167 -121.5 -61.5s-87.666 -28.166 -129.999 -35.499
s-86.833 -11.666 -133.5 -12.999c-54.667 -2 -109 5.66699 -163 23s-105.167 44 -153.5 80s-91.666 79.5 -129.999 130.5s-70 111.833 -95 182.5s-39.833 146.334 -44.5 227.001c-3.33301 44 -2.83301 89 1.5 135s13 94.167 26 144.5s30 98.833 51 145.5
s48.5 92.334 82.5 137.001s72.5 84.667 115.5 120s94.333 66.166 154 92.499s124.5 45.166 194.5 56.499zM649.002 1330c-59.333 -11.333 -113.333 -29.335 -162 -54.002s-89.5 -52.5 -122.5 -83.5s-62.167 -66 -87.5 -105s-45.166 -77.167 -59.499 -114.5
s-26 -76.333 -35 -117s-14.833 -76.5 -17.5 -107.5s-3.66699 -61.167 -3 -90.5c0.666992 -76.667 14.667 -149.5 42 -218.5s62.833 -127.667 106.5 -176s93.834 -86.666 150.501 -114.999s114 -42.5 172 -42.5c37.333 0 73 2.5 107 7.5s68.667 13.833 104 26.5
s67.833 28.834 97.5 48.501s58 45.334 85 77.001s50.167 68.167 69.5 109.5s35 90.666 47 147.999s19.333 120.333 22 189c4 122.667 -11.833 230.5 -47.5 323.5s-91.334 166.333 -167.001 220s-167.167 81.5 -274.5 83.5c-0.666992 0 -5.33398 -1.5 -14.001 -4.5z" />
    <glyph glyph-name="Oacute" unicode="&#xd3;" horiz-adv-x="1314" 
d="M925 1845c-41.333 -38 -85.1689 -73.667 -131.502 -107s-84.833 -59 -115.5 -77l-123 -70c-26.667 -14.667 -50.667 -13.5 -72 3.5s-31.666 37.667 -30.999 62s11.667 43.833 33 58.5c68 34 127.333 67.5 178 100.5s107.334 74.833 170.001 125.5
c14 11.333 28.333 17.333 43 18s27 -3.16602 37 -11.499s18 -18.333 24 -30s8 -24.334 6 -38.001s-8 -25.167 -18 -34.5zM670.997 1462c23.333 4 44.002 -2.33496 62.002 -19.002c86 -3.33301 164.667 -24 236 -62s130.666 -88.5 177.999 -151.5
s83.666 -137.167 108.999 -222.5s36.666 -176.333 33.999 -273c-2 -82.667 -10.333 -158.667 -25 -228s-33.834 -129 -57.501 -179s-52.167 -94.5 -85.5 -133.5s-68.333 -70.833 -105 -95.5s-77.167 -45.167 -121.5 -61.5s-87.666 -28.166 -129.999 -35.499
s-86.833 -11.666 -133.5 -12.999c-54.667 -2 -109 5.66699 -163 23s-105.167 44 -153.5 80s-91.666 79.5 -129.999 130.5s-70 111.833 -95 182.5s-39.833 146.334 -44.5 227.001c-3.33301 44 -2.83301 89 1.5 135s13 94.167 26 144.5s30 98.833 51 145.5
s48.5 92.334 82.5 137.001s72.5 84.667 115.5 120s94.333 66.166 154 92.499s124.5 45.166 194.5 56.499zM648.999 1330c-59.333 -11.333 -113.333 -29.335 -162 -54.002s-89.5 -52.5 -122.5 -83.5s-62.167 -66 -87.5 -105s-45.166 -77.167 -59.499 -114.5
s-26 -76.333 -35 -117s-14.833 -76.5 -17.5 -107.5s-3.66699 -61.167 -3 -90.5c0.666992 -76.667 14.667 -149.5 42 -218.5s62.833 -127.667 106.5 -176s93.834 -86.666 150.501 -114.999s114 -42.5 172 -42.5c37.333 0 73 2.5 107 7.5s68.667 13.833 104 26.5
s67.833 28.834 97.5 48.501s58 45.334 85 77.001s50.167 68.167 69.5 109.5s35 90.666 47 147.999s19.333 120.333 22 189c4 122.667 -11.833 230.5 -47.5 323.5s-91.334 166.333 -167.001 220s-167.167 81.5 -274.5 83.5c-0.666992 0 -5.33398 -1.5 -14.001 -4.5z" />
    <glyph glyph-name="Ocircumflex" unicode="&#xd4;" horiz-adv-x="1314" 
d="M406 1677c57.333 140 117.331 271.002 179.998 393.002c10.667 21.333 28.667 36.666 54 46c25.333 9.33301 51.333 9.66602 78 0.999023s47.334 -25.667 62.001 -51c54.667 -97.333 116 -230 184 -398c4.66699 -10.667 4.5 -22.167 -0.5 -34.5
s-12.833 -22.333 -23.5 -30s-22.167 -13.167 -34.5 -16.5s-24.666 -1.66602 -36.999 5.00098s-21.5 18 -27.5 34c-44.667 113.333 -97.667 230.666 -159 351.999c-25.333 -44.667 -49.5 -91.5 -72.5 -140.5s-38.833 -84.667 -47.5 -107l-40 -101.5
c-6.66699 -16 -16.167 -27.833 -28.5 -35.5s-24.5 -10.334 -36.5 -8.00098s-23.333 7.33301 -34 15s-17.667 18.5 -21 32.5s-2 28.667 4 44zM670.998 1462c23.333 4 44.002 -2.33496 62.002 -19.002c86 -3.33301 164.667 -24 236 -62s130.666 -88.5 177.999 -151.5
s83.666 -137.167 108.999 -222.5s36.666 -176.333 33.999 -273c-2 -82.667 -10.333 -158.667 -25 -228s-33.834 -129 -57.501 -179s-52.167 -94.5 -85.5 -133.5s-68.333 -70.833 -105 -95.5s-77.167 -45.167 -121.5 -61.5s-87.666 -28.166 -129.999 -35.499
s-86.833 -11.666 -133.5 -12.999c-54.667 -2 -109 5.66699 -163 23s-105.167 44 -153.5 80s-91.666 79.5 -129.999 130.5s-70 111.833 -95 182.5s-39.833 146.334 -44.5 227.001c-3.33301 44 -2.83301 89 1.5 135s13 94.167 26 144.5s30 98.833 51 145.5
s48.5 92.334 82.5 137.001s72.5 84.667 115.5 120s94.333 66.166 154 92.499s124.5 45.166 194.5 56.499zM649 1330c-59.333 -11.333 -113.333 -29.335 -162 -54.002s-89.5 -52.5 -122.5 -83.5s-62.167 -66 -87.5 -105s-45.166 -77.167 -59.499 -114.5s-26 -76.333 -35 -117
s-14.833 -76.5 -17.5 -107.5s-3.66699 -61.167 -3 -90.5c0.666992 -76.667 14.667 -149.5 42 -218.5s62.833 -127.667 106.5 -176s93.834 -86.666 150.501 -114.999s114 -42.5 172 -42.5c37.333 0 73 2.5 107 7.5s68.667 13.833 104 26.5s67.833 28.834 97.5 48.501
s58 45.334 85 77.001s50.167 68.167 69.5 109.5s35 90.666 47 147.999s19.333 120.333 22 189c4 122.667 -11.833 230.5 -47.5 323.5s-91.334 166.333 -167.001 220s-167.167 81.5 -274.5 83.5c-0.666992 0 -5.33398 -1.5 -14.001 -4.5z" />
    <glyph glyph-name="Otilde" unicode="&#xd5;" horiz-adv-x="1314" 
d="M1113 1729c-14 -24 -30.501 -45.834 -49.501 -65.501s-43.167 -36.667 -72.5 -51s-60.666 -23 -93.999 -26s-72.333 2.33301 -117 16s-90.667 36.834 -138 69.501c-30.667 20.667 -58.334 35.667 -83.001 45s-49.334 13.333 -74.001 12s-48.5 -11.166 -71.5 -29.499
s-44.833 -45.5 -65.5 -81.5c-18 -30.667 -40.333 -40.334 -67 -29.001c-23.333 10 -38.333 30.333 -45 61c-5.33301 26.667 -1 53 13 79c10.667 19.333 24.834 38.166 42.501 56.499s39.834 34.833 66.501 49.5s55 24.667 85 30s63.833 3.33301 101.5 -6
s75.167 -26.666 112.5 -51.999c14 -10 25.667 -18 35 -24l37.5 -23c15.667 -9.33301 29.5 -16.333 41.5 -21s26.167 -9.16699 42.5 -13.5s31 -6.33301 44 -6s27.5 2.5 43.5 6.5s30.667 10.833 44 20.5s27 22.5 41 38.5s27.333 35.333 40 58
c13.333 24.667 32.333 33.334 57 26.001c22.667 -6.66699 37.667 -23.334 45 -50.001c8 -28 3 -58 -15 -90zM670.999 1462c23.333 4 44.002 -2.33496 62.002 -19.002c86 -3.33301 164.667 -24 236 -62s130.666 -88.5 177.999 -151.5s83.666 -137.167 108.999 -222.5
s36.666 -176.333 33.999 -273c-2 -82.667 -10.333 -158.667 -25 -228s-33.834 -129 -57.501 -179s-52.167 -94.5 -85.5 -133.5s-68.333 -70.833 -105 -95.5s-77.167 -45.167 -121.5 -61.5s-87.666 -28.166 -129.999 -35.499s-86.833 -11.666 -133.5 -12.999
c-54.667 -2 -109 5.66699 -163 23s-105.167 44 -153.5 80s-91.666 79.5 -129.999 130.5s-70 111.833 -95 182.5s-39.833 146.334 -44.5 227.001c-3.33301 44 -2.83301 89 1.5 135s13 94.167 26 144.5s30 98.833 51 145.5s48.5 92.334 82.5 137.001s72.5 84.667 115.5 120
s94.333 66.166 154 92.499s124.5 45.166 194.5 56.499zM649.001 1330c-59.333 -11.333 -113.333 -29.335 -162 -54.002s-89.5 -52.5 -122.5 -83.5s-62.167 -66 -87.5 -105s-45.166 -77.167 -59.499 -114.5s-26 -76.333 -35 -117s-14.833 -76.5 -17.5 -107.5
s-3.66699 -61.167 -3 -90.5c0.666992 -76.667 14.667 -149.5 42 -218.5s62.833 -127.667 106.5 -176s93.834 -86.666 150.501 -114.999s114 -42.5 172 -42.5c37.333 0 73 2.5 107 7.5s68.667 13.833 104 26.5s67.833 28.834 97.5 48.501s58 45.334 85 77.001
s50.167 68.167 69.5 109.5s35 90.666 47 147.999s19.333 120.333 22 189c4 122.667 -11.833 230.5 -47.5 323.5s-91.334 166.333 -167.001 220s-167.167 81.5 -274.5 83.5c-0.666992 0 -5.33398 -1.5 -14.001 -4.5z" />
    <glyph glyph-name="Odieresis" unicode="&#xd6;" horiz-adv-x="1314" 
d="M736 1709c1.33301 12.667 7.00391 24.1699 17.0039 34.5029s21.667 17.666 35 21.999s27.166 5.66602 41.499 3.99902s25.833 -7.16699 34.5 -16.5c14 -14.667 23.333 -33.334 28 -56.001s3.16699 -44 -4.5 -64s-20.834 -33.333 -39.501 -40
c-28.667 -9.33301 -55.334 -0.333008 -80.001 27s-35.334 57 -32.001 89zM473.004 1705c1.33301 12.667 7.00195 24.001 17.002 34.001s21.667 17.333 35 22s27.166 6.16699 41.499 4.5s25.833 -7.16699 34.5 -16.5c14.667 -14.667 24.334 -33.334 29.001 -56.001
s3 -44 -5 -64s-21.333 -33.333 -40 -40c-28.667 -10 -55.334 -1.33301 -80.001 26s-35.334 57.333 -32.001 90zM671.006 1462c23.333 4 44.002 -2.33496 62.002 -19.002c86 -3.33301 164.667 -24 236 -62s130.666 -88.5 177.999 -151.5s83.666 -137.167 108.999 -222.5
s36.666 -176.333 33.999 -273c-2 -82.667 -10.333 -158.667 -25 -228s-33.834 -129 -57.501 -179s-52.167 -94.5 -85.5 -133.5s-68.333 -70.833 -105 -95.5s-77.167 -45.167 -121.5 -61.5s-87.666 -28.166 -129.999 -35.499s-86.833 -11.666 -133.5 -12.999
c-54.667 -2 -109 5.66699 -163 23s-105.167 44 -153.5 80s-91.666 79.5 -129.999 130.5s-70 111.833 -95 182.5s-39.833 146.334 -44.5 227.001c-3.33301 44 -2.83301 89 1.5 135s13 94.167 26 144.5s30 98.833 51 145.5s48.5 92.334 82.5 137.001s72.5 84.667 115.5 120
s94.333 66.166 154 92.499s124.5 45.166 194.5 56.499zM649.008 1330c-59.333 -11.333 -113.333 -29.335 -162 -54.002s-89.5 -52.5 -122.5 -83.5s-62.167 -66 -87.5 -105s-45.166 -77.167 -59.499 -114.5s-26 -76.333 -35 -117s-14.833 -76.5 -17.5 -107.5
s-3.66699 -61.167 -3 -90.5c0.666992 -76.667 14.667 -149.5 42 -218.5s62.833 -127.667 106.5 -176s93.834 -86.666 150.501 -114.999s114 -42.5 172 -42.5c37.333 0 73 2.5 107 7.5s68.667 13.833 104 26.5s67.833 28.834 97.5 48.501s58 45.334 85 77.001
s50.167 68.167 69.5 109.5s35 90.666 47 147.999s19.333 120.333 22 189c4 122.667 -11.833 230.5 -47.5 323.5s-91.334 166.333 -167.001 220s-167.167 81.5 -274.5 83.5c-0.666992 0 -5.33398 -1.5 -14.001 -4.5z" />
    <glyph glyph-name="multiply" unicode="&#xd7;" horiz-adv-x="831" 
d="M56 751c-32.667 34.667 -38.332 67.3369 -16.999 98.0039c16 22.667 38 34 66 34c21.333 0 38 -8.33301 50 -25c20 -28 58.833 -76 116.5 -144s102.834 -118.667 135.501 -152c9.33301 11.333 97.333 109 264 293c31.333 35.333 63 43.666 95 24.999
c24 -13.333 37.333 -33.666 40 -60.999c2 -22 -4.66699 -39.667 -20 -53c-26.667 -23.333 -76.334 -73 -149.001 -149s-120 -128 -142 -156c27.333 -30.667 74.5 -79.167 141.5 -145.5s113.5 -109.5 139.5 -129.5c28.667 -22.667 37.667 -50.334 27 -83.001
c-8 -26.667 -24.667 -44 -50 -52c-32.667 -10 -64 2 -94 36c-112 125.333 -195.667 216 -251 272c-8.66699 -10.667 -47.667 -53.334 -117 -128.001s-110.666 -122.667 -123.999 -144c-20 -30.667 -46.667 -42.334 -80 -35.001c-28 6 -47 21.333 -57 46
c-12.667 31.333 -3.33398 63.666 27.999 96.999c9.33301 10 33.833 33.667 73.5 71l114 110.5c36.333 36.333 61.166 64.5 74.499 84.5z" />
    <glyph glyph-name="Oslash" unicode="&#xd8;" horiz-adv-x="1314" 
d="M649 1330c-59.333 -11.333 -113.333 -29.333 -162 -54s-89.5 -52.5 -122.5 -83.5s-62.167 -66 -87.5 -105s-45.166 -77.167 -59.499 -114.5s-26 -76.333 -35 -117s-14.833 -76.5 -17.5 -107.5s-3.66699 -61.167 -3 -90.5c0.666992 -71.333 12.667 -139 36 -203
s55.333 -121 96 -171l697 940c-82.667 74.667 -187.667 113 -315 115c-0.666992 0 -5.33398 -1.5 -14.001 -4.5zM671 1462c23.333 4 44.0029 -2.33887 62.0029 -19.0059c126 -5.33301 235.333 -46.333 328 -123l101 140c26.667 39.333 55.667 52.333 87 39
c22 -10 35.667 -28 41 -54c4 -21.333 -1 -40 -15 -56c-16.667 -19.333 -58.667 -73.666 -126 -162.999c48 -63.333 84.167 -137.166 108.5 -221.499s35.166 -174.5 32.499 -270.5c-2 -82.667 -10.333 -158.667 -25 -228s-33.834 -129 -57.501 -179
s-52.167 -94.5 -85.5 -133.5s-68.333 -70.833 -105 -95.5s-77.167 -45.167 -121.5 -61.5s-87.666 -28.166 -129.999 -35.499s-86.833 -11.666 -133.5 -12.999c-112.667 -3.33301 -218 30.667 -316 102c-45.333 -64 -73.333 -105 -84 -123
c-18.667 -29.333 -43.334 -44.166 -74.001 -44.499s-50.834 11.334 -60.501 35.001s-2.5 54.5 21.5 92.5l98 132c-102.667 118.667 -159.667 268.334 -171 449.001c-3.33301 44 -2.83301 89 1.5 135s13 94.167 26 144.5s30 98.833 51 145.5s48.5 92.334 82.5 137.001
s72.5 84.667 115.5 120s94.333 66.166 154 92.499s124.5 45.166 194.5 56.499zM389.003 191.994c77.333 -57.333 158.668 -86.001 244.001 -86.001c37.333 0 73 2.5 107 7.5s68.667 13.833 104 26.5s67.833 28.834 97.5 48.501s58 45.334 85 77.001
s50.167 68.167 69.5 109.5s35 90.666 47 147.999s19.333 120.333 22 189c5.33301 167.333 -25.334 305 -92.001 413z" />
    <glyph glyph-name="Ugrave" unicode="&#xd9;" horiz-adv-x="1182" 
d="M325 1870c-10 9.33301 -15.833 20.833 -17.5 34.5s0.5 26.334 6.5 38.001s14 21.667 24 30s22.167 12.166 36.5 11.499s28.5 -6.66699 42.5 -18c62.667 -50.667 119.5 -92.5 170.5 -125.5s110.167 -66.5 177.5 -100.5c21.333 -14.667 32.5 -34.167 33.5 -58.5
s-9.33301 -44.833 -31 -61.5s-45.834 -18 -72.501 -4l-123 70c-30.667 18 -69.167 43.667 -115.5 77s-90.166 69 -131.499 107zM34 1400c0.666992 17.333 5.83105 32.002 15.498 44.002s20.834 19.5 33.501 22.5s25.167 3 37.5 0s22.666 -10.667 30.999 -23
s12.166 -27.833 11.499 -46.5c-0.666992 -14 -2 -39.333 -4 -76c-3.33301 -56 -5.66602 -101.167 -6.99902 -135.5s-2.5 -86.833 -3.5 -157.5s0 -130 3 -178s8.5 -106.5 16.5 -175.5s18.667 -127.167 32 -174.5s31.5 -97.333 54.5 -150s49.833 -94.834 80.5 -126.501
s68.167 -58.334 112.5 -80.001s93.5 -32.834 147.5 -33.501s102.833 9.33301 146.5 30s80.667 48.667 111 84s56.833 78.5 79.5 129.5s40.334 104.333 53.001 160s22.5 116.167 29.5 181.5s11.167 128.166 12.5 188.499s0.833008 122.833 -1.5 187.5
s-5.66602 121.834 -9.99902 171.501s-9.5 98.167 -15.5 145.5c-4.66699 40 8.33301 67.333 39 82c26 11.333 50.333 9.66602 73 -5.00098c13.333 -8.66699 21 -21.334 23 -38.001c9.33301 -80.667 15.833 -162.667 19.5 -246s4 -173.166 1 -269.499
s-10.5 -186.5 -22.5 -270.5s-31 -165.667 -57 -245s-58.333 -145.666 -97 -198.999c-42 -58 -90 -104.167 -144 -138.5s-109 -55.333 -165 -63s-112.167 -6 -168.5 5s-109.5 31.833 -159.5 62.5s-94.667 68.334 -134 113.001c-148.667 172 -206.667 580 -174 1224z" />
    <glyph glyph-name="Uacute" unicode="&#xda;" horiz-adv-x="1182" 
d="M830 1858c-41.333 -38 -85.1689 -73.667 -131.502 -107s-84.833 -59 -115.5 -77l-123 -70c-26.667 -14.667 -50.667 -13.5 -72 3.5s-31.666 37.667 -30.999 62s11.667 43.833 33 58.5c68 34 127.333 67.5 178 100.5s107.334 74.833 170.001 125.5
c14 11.333 28.333 17.333 43 18s27 -3.16602 37 -11.499s18 -18.333 24 -30s8 -24.334 6 -38.001s-8 -25.167 -18 -34.5zM33.9971 1400c0.666992 17.333 5.83105 32.002 15.498 44.002s20.834 19.5 33.501 22.5s25.167 3 37.5 0s22.666 -10.667 30.999 -23
s12.166 -27.833 11.499 -46.5c-0.666992 -14 -2 -39.333 -4 -76c-3.33301 -56 -5.66602 -101.167 -6.99902 -135.5s-2.5 -86.833 -3.5 -157.5s0 -130 3 -178s8.5 -106.5 16.5 -175.5s18.667 -127.167 32 -174.5s31.5 -97.333 54.5 -150s49.833 -94.834 80.5 -126.501
s68.167 -58.334 112.5 -80.001s93.5 -32.834 147.5 -33.501s102.833 9.33301 146.5 30s80.667 48.667 111 84s56.833 78.5 79.5 129.5s40.334 104.333 53.001 160s22.5 116.167 29.5 181.5s11.167 128.166 12.5 188.499s0.833008 122.833 -1.5 187.5
s-5.66602 121.834 -9.99902 171.501s-9.5 98.167 -15.5 145.5c-4.66699 40 8.33301 67.333 39 82c26 11.333 50.333 9.66602 73 -5.00098c13.333 -8.66699 21 -21.334 23 -38.001c9.33301 -80.667 15.833 -162.667 19.5 -246s4 -173.166 1 -269.499
s-10.5 -186.5 -22.5 -270.5s-31 -165.667 -57 -245s-58.333 -145.666 -97 -198.999c-42 -58 -90 -104.167 -144 -138.5s-109 -55.333 -165 -63s-112.167 -6 -168.5 5s-109.5 31.833 -159.5 62.5s-94.667 68.334 -134 113.001c-148.667 172 -206.667 580 -174 1224z" />
    <glyph glyph-name="Ucircumflex" unicode="&#xdb;" horiz-adv-x="1182" 
d="M294 1710c57.333 140 117.331 271.002 179.998 393.002c10.667 21.333 28.667 36.666 54 46c25.333 9.33301 51.333 9.66602 78 0.999023s47.334 -25.667 62.001 -51c54.667 -97.333 116 -230 184 -398c4.66699 -10.667 4.5 -22.167 -0.5 -34.5
s-12.833 -22.333 -23.5 -30s-22.167 -13.167 -34.5 -16.5s-24.666 -1.66602 -36.999 5.00098s-21.5 18 -27.5 34c-44.667 113.333 -97.667 230.666 -159 351.999c-25.333 -44.667 -49.5 -91.5 -72.5 -140.5s-38.833 -84.667 -47.5 -107l-40 -101.5
c-6.66699 -16 -16.167 -27.833 -28.5 -35.5s-24.5 -10.334 -36.5 -8.00098s-23.333 7.33301 -34 15s-17.667 18.5 -21 32.5s-2 28.667 4 44zM33.998 1400c0.666992 17.333 5.83105 32.002 15.498 44.002s20.834 19.5 33.501 22.5s25.167 3 37.5 0s22.666 -10.667 30.999 -23
s12.166 -27.833 11.499 -46.5c-0.666992 -14 -2 -39.333 -4 -76c-3.33301 -56 -5.66602 -101.167 -6.99902 -135.5s-2.5 -86.833 -3.5 -157.5s0 -130 3 -178s8.5 -106.5 16.5 -175.5s18.667 -127.167 32 -174.5s31.5 -97.333 54.5 -150s49.833 -94.834 80.5 -126.501
s68.167 -58.334 112.5 -80.001s93.5 -32.834 147.5 -33.501s102.833 9.33301 146.5 30s80.667 48.667 111 84s56.833 78.5 79.5 129.5s40.334 104.333 53.001 160s22.5 116.167 29.5 181.5s11.167 128.166 12.5 188.499s0.833008 122.833 -1.5 187.5
s-5.66602 121.834 -9.99902 171.501s-9.5 98.167 -15.5 145.5c-4.66699 40 8.33301 67.333 39 82c26 11.333 50.333 9.66602 73 -5.00098c13.333 -8.66699 21 -21.334 23 -38.001c9.33301 -80.667 15.833 -162.667 19.5 -246s4 -173.166 1 -269.499
s-10.5 -186.5 -22.5 -270.5s-31 -165.667 -57 -245s-58.333 -145.666 -97 -198.999c-42 -58 -90 -104.167 -144 -138.5s-109 -55.333 -165 -63s-112.167 -6 -168.5 5s-109.5 31.833 -159.5 62.5s-94.667 68.334 -134 113.001c-148.667 172 -206.667 580 -174 1224z" />
    <glyph glyph-name="Udieresis" unicode="&#xdc;" horiz-adv-x="1182" 
d="M628 1726c1.33301 12.667 7.00391 24.1699 17.0039 34.5029s21.667 17.666 35 21.999s27.166 5.66602 41.499 3.99902s25.833 -7.16699 34.5 -16.5c14 -14.667 23.333 -33.334 28 -56.001s3.16699 -44 -4.5 -64s-20.834 -33.333 -39.501 -40
c-28.667 -9.33301 -55.334 -0.333008 -80.001 27s-35.334 57 -32.001 89zM365.004 1722c1.33301 12.667 7.00195 24.001 17.002 34.001s21.667 17.333 35 22s27.166 6.16699 41.499 4.5s25.833 -7.16699 34.5 -16.5c14.667 -14.667 24.334 -33.334 29.001 -56.001
s3 -44 -5 -64s-21.333 -33.333 -40 -40c-28.667 -10 -55.334 -1.33301 -80.001 26s-35.334 57.333 -32.001 90zM34.0059 1400c0.666992 17.333 5.83105 32.002 15.498 44.002s20.834 19.5 33.501 22.5s25.167 3 37.5 0s22.666 -10.667 30.999 -23
s12.166 -27.833 11.499 -46.5c-0.666992 -14 -2 -39.333 -4 -76c-3.33301 -56 -5.66602 -101.167 -6.99902 -135.5s-2.5 -86.833 -3.5 -157.5s0 -130 3 -178s8.5 -106.5 16.5 -175.5s18.667 -127.167 32 -174.5s31.5 -97.333 54.5 -150s49.833 -94.834 80.5 -126.501
s68.167 -58.334 112.5 -80.001s93.5 -32.834 147.5 -33.501s102.833 9.33301 146.5 30s80.667 48.667 111 84s56.833 78.5 79.5 129.5s40.334 104.333 53.001 160s22.5 116.167 29.5 181.5s11.167 128.166 12.5 188.499s0.833008 122.833 -1.5 187.5
s-5.66602 121.834 -9.99902 171.501s-9.5 98.167 -15.5 145.5c-4.66699 40 8.33301 67.333 39 82c26 11.333 50.333 9.66602 73 -5.00098c13.333 -8.66699 21 -21.334 23 -38.001c9.33301 -80.667 15.833 -162.667 19.5 -246s4 -173.166 1 -269.499
s-10.5 -186.5 -22.5 -270.5s-31 -165.667 -57 -245s-58.333 -145.666 -97 -198.999c-42 -58 -90 -104.167 -144 -138.5s-109 -55.333 -165 -63s-112.167 -6 -168.5 5s-109.5 31.833 -159.5 62.5s-94.667 68.334 -134 113.001c-148.667 172 -206.667 580 -174 1224z" />
    <glyph glyph-name="Yacute" unicode="&#xdd;" horiz-adv-x="1160" 
d="M841 1888c-41.333 -38 -85.1689 -73.667 -131.502 -107s-84.833 -59 -115.5 -77l-123 -70c-26.667 -14.667 -50.667 -13.5 -72 3.5s-31.666 37.667 -30.999 62s11.667 43.833 33 58.5c68 34 127.333 67.5 178 100.5s107.334 74.833 170.001 125.5
c14 11.333 28.333 17.333 43 18s27 -3.16602 37 -11.499s18 -18.333 24 -30s8 -24.334 6 -38.001s-8 -25.167 -18 -34.5zM569.997 16c-20.667 -40 -49.001 -55.332 -85.001 -45.999c-26 6.66699 -44.333 22 -55 46c-10.667 22.667 -8.33398 42.334 6.99902 59.001
c13.333 15.333 28 35.666 44 60.999s32.167 54 48.5 86l42 83l39.5 83c14.667 32 23.334 50.667 26.001 56c-62.667 140 -156.167 306.5 -280.5 499.5s-229.166 336.5 -314.499 430.5c-17.333 20 -21.666 43.833 -12.999 71.5s24 44.5 46 50.5s45 -3.66699 69 -29
c82 -103.333 177.667 -240.833 287 -412.5s198.666 -326.167 267.999 -463.5c71.333 170.667 135.5 333.5 192.5 488.5s87.833 255.167 92.5 300.5c4 33.333 21 54.333 51 63c29.333 8 55 1.66699 77 -19c24.667 -24 30 -57.667 16 -101
c-20 -62.667 -65.167 -179.667 -135.5 -351l-219.5 -516c1.33301 -2.66699 2.33301 -5 3 -7c13.333 -29.333 13.5 -54.333 0.5 -75s-31.167 -31.334 -54.5 -32.001l-66 -145.5c-39.333 -87 -68 -147.167 -86 -180.5z" />
    <glyph glyph-name="Thorn" unicode="&#xde;" horiz-adv-x="1045" 
d="M92 1422c0 27.333 11.333 47.0059 34 59.0059s45.5 13.667 68.5 5s34.167 -24.334 33.5 -47.001c-0.666992 -24.667 -2 -62 -4 -112s-3 -79.667 -3 -89s0.333008 -22.666 1 -39.999c142.667 34 282 35.333 418 4c63.333 -14.667 119.833 -40.834 169.5 -78.501
s89.5 -82.5 119.5 -134.5s52.667 -109.5 68 -172.5s21.833 -128.333 19.5 -196s-12.833 -134.834 -31.5 -201.501c-16.667 -60.667 -45.5 -110.834 -86.5 -150.501s-88.667 -67 -143 -82s-112.666 -21.833 -174.999 -20.5s-124.333 11.166 -186 29.499
s-119.834 42.833 -174.501 73.5c-0.666992 -76.667 2 -156.334 8 -239.001c2 -34.667 -9 -61.167 -33 -79.5s-48.167 -20.333 -72.5 -6s-35.833 43.5 -34.5 87.5c0 8 0.833008 34 2.5 78s2.83398 85.667 3.50098 125s0.666992 81.333 0 126
c-22 21.333 -41 43.666 -57 66.999c-12.667 22.667 -17.667 45 -15 67s11.5 39.5 26.5 52.5s30.167 15.167 45.5 6.5c-0.666992 560.667 -1.33398 850 -2.00098 868zM224 1064.01c-3.33301 -124 -4.66797 -335.666 -4.00098 -634.999c52 -41.333 109.333 -74.333 172 -99
s122.667 -39 180 -43s110 4.66699 158 26s83.667 54.666 107 99.999c30.667 60 50 121.333 58 184s6.33301 119.5 -5 170.5s-29 98.167 -53 141.5s-51.667 79.333 -83 108s-63.666 48.667 -96.999 60c-36 12 -71.833 20.167 -107.5 24.5s-73.167 4.5 -112.5 0.5
s-73.5 -8.66699 -102.5 -14s-65.833 -13.333 -110.5 -24z" />
    <glyph glyph-name="germandbls" unicode="&#xdf;" horiz-adv-x="1104" 
d="M328 866c-38 4.66699 -67.1621 18.498 -87.4951 41.498s-27 46.5 -20 70.5s26.167 39.333 57.5 46c62 12.667 117.667 30.834 167 54.501s89 52.834 119 87.501s43.667 71.334 41 110.001s-24 68.834 -64 90.501s-86.167 32.167 -138.5 31.5s-98.5 -12 -138.5 -34
c-16 -8.66699 -29.667 -18.167 -41 -28.5s-20.166 -22.333 -26.499 -36s-11.333 -26.667 -15 -39s-5.83398 -28 -6.50098 -47s-1 -35.667 -1 -50s0.5 -34 1.5 -59s1.5 -45.833 1.5 -62.5v-184c0 -73.333 0.833008 -218.333 2.5 -435s3 -418.167 4 -604.5
s1.83301 -280.5 2.5 -282.5c2 -34.667 -9 -61.167 -33 -79.5s-48.167 -20.333 -72.5 -6s-35.833 43.5 -34.5 87.5c2 89.333 4 364.833 6 826.5s1.33301 764.834 -2 909.501c-1.33301 29.333 5 57.5 19 84.5s31.5 49.333 52.5 67s41.5 32 61.5 43s37.667 18.167 53 21.5
c64 13.333 120.5 21.166 169.5 23.499s89.667 0.333008 122 -6s60.666 -18 84.999 -35s43.666 -35.167 57.999 -54.5s27.833 -43.333 40.5 -72c10.667 -22 16 -46.333 16 -73s-4.16699 -53.167 -12.5 -79.5s-21 -52.5 -38 -78.5s-36.833 -49.5 -59.5 -70.5
s-49 -39.5 -79 -55.5s-61.333 -27 -94 -33c41.333 -8.66699 87.5 -25.5 138.5 -50.5s103.333 -56.833 157 -95.5s106.334 -86.834 158.001 -144.501s95.167 -118.834 130.5 -183.501c22 -41.333 34.5 -85.833 37.5 -133.5s-2.83301 -92.834 -17.5 -135.501
s-37.834 -81.667 -69.501 -117s-69.5 -61.333 -113.5 -78c-96 -36 -189.667 -52.667 -281 -50s-177.333 22.667 -258 60c-31.333 14 -46 35.667 -44 65c1.33301 21.333 9.66602 35.333 24.999 42c8 3.33301 16.333 3 25 -1c55.333 -24 107.666 -41 156.999 -51
s99.833 -13 151.5 -9s104.167 16 157.5 36c37.333 14 67.666 35 90.999 63s38.5 59.833 45.5 95.5s4.66699 74.834 -7 117.501s-32.167 84.667 -61.5 126c-71.333 98.667 -155 179.667 -251 243s-191.667 100.333 -287 111z" />
    <glyph glyph-name="agrave" unicode="&#xe0;" 
d="M256 1397c-10 9.33301 -15.833 20.833 -17.5 34.5s0.5 26.334 6.5 38.001s14 21.667 24 30s22.167 12.166 36.5 11.499s28.5 -6.66699 42.5 -18c62.667 -50.667 119.5 -92.5 170.5 -125.5s110.167 -66.5 177.5 -100.5c21.333 -14.667 32.5 -34.167 33.5 -58.5
s-9.33301 -44.833 -31 -61.5s-45.834 -18 -72.501 -4l-123 70c-30.667 18 -69.167 43.667 -115.5 77s-90.166 69 -131.499 107zM774 223c-36 -63.333 -78.835 -114.169 -128.502 -152.502s-99.5 -62.666 -149.5 -72.999s-100.667 -11.333 -152 -3
s-97.666 24.666 -138.999 48.999s-76.833 54.5 -106.5 90.5s-49.167 74.667 -58.5 116c-12.667 64.667 -17 127.5 -13 188.5s17.667 119.5 41 175.5s53.333 106.667 90 152s81.167 84.666 133.5 117.999s109.166 57.333 170.499 72c40.667 10 77.5 15.667 110.5 17
s61 -0.666992 84 -6s43.333 -14 61 -26s31.834 -25.5 42.501 -40.5s20 -32.5 28 -52.5c6.66699 -15.333 4.66699 -31 -6 -47c18.667 -7.33301 28.667 -23 30 -47c6 -91.333 11.667 -162.5 17 -213.5s13.833 -101.167 25.5 -150.5s26.5 -92.166 44.5 -128.499
s42.333 -77.5 73 -123.5c16 -22.667 21 -53 15 -91c-4.66699 -33.333 -15.667 -50.333 -33 -51c-5.33301 0 -10.666 1.33301 -15.999 4c-31.333 16.667 -58 40.834 -80 72.501s-50 81.834 -84 150.501zM701.998 769.997c-9.33301 2.66699 -17.166 7.33496 -23.499 14.002
s-12.166 13.667 -17.499 21s-12.5 14.333 -21.5 21s-23.5 12 -43.5 16s-45.333 5 -76 3c-34 -1.33301 -69.167 -11.333 -105.5 -30s-70.333 -42.834 -102 -72.501s-60 -64.5 -85 -104.5s-44.333 -81.333 -58 -124s-19.834 -87.5 -18.501 -134.5
s11.666 -91.167 30.999 -132.5c16.667 -34.667 40 -63.834 70 -87.501s63.667 -38.667 101 -45s75.666 -4.83301 114.999 4.5s78.333 30.5 117 63.5s72.334 75.833 101.001 128.5c12.667 23.333 21 58.5 25 105.5s4.33301 96.5 1 148.5s-9.33301 106.333 -18 163
c-2 15.333 0.666992 29.333 8 42z" />
    <glyph glyph-name="aacute" unicode="&#xe1;" 
d="M728 1385c-41.333 -38 -85.1689 -73.667 -131.502 -107s-84.833 -59 -115.5 -77l-123 -70c-26.667 -14.667 -50.667 -13.5 -72 3.5s-31.666 37.667 -30.999 62s11.667 43.833 33 58.5c68 34 127.333 67.5 178 100.5s107.334 74.833 170.001 125.5
c14 11.333 28.333 17.333 43 18s27 -3.16602 37 -11.499s18 -18.333 24 -30s8 -24.334 6 -38.001s-8 -25.167 -18 -34.5zM773.997 223c-36 -63.333 -78.835 -114.169 -128.502 -152.502s-99.5 -62.666 -149.5 -72.999s-100.667 -11.333 -152 -3
s-97.666 24.666 -138.999 48.999s-76.833 54.5 -106.5 90.5s-49.167 74.667 -58.5 116c-12.667 64.667 -17 127.5 -13 188.5s17.667 119.5 41 175.5s53.333 106.667 90 152s81.167 84.666 133.5 117.999s109.166 57.333 170.499 72c40.667 10 77.5 15.667 110.5 17
s61 -0.666992 84 -6s43.333 -14 61 -26s31.834 -25.5 42.501 -40.5s20 -32.5 28 -52.5c6.66699 -15.333 4.66699 -31 -6 -47c18.667 -7.33301 28.667 -23 30 -47c6 -91.333 11.667 -162.5 17 -213.5s13.833 -101.167 25.5 -150.5s26.5 -92.166 44.5 -128.499
s42.333 -77.5 73 -123.5c16 -22.667 21 -53 15 -91c-4.66699 -33.333 -15.667 -50.333 -33 -51c-5.33301 0 -10.666 1.33301 -15.999 4c-31.333 16.667 -58 40.834 -80 72.501s-50 81.834 -84 150.501zM701.995 769.997c-9.33301 2.66699 -17.166 7.33496 -23.499 14.002
s-12.166 13.667 -17.499 21s-12.5 14.333 -21.5 21s-23.5 12 -43.5 16s-45.333 5 -76 3c-34 -1.33301 -69.167 -11.333 -105.5 -30s-70.333 -42.834 -102 -72.501s-60 -64.5 -85 -104.5s-44.333 -81.333 -58 -124s-19.834 -87.5 -18.501 -134.5
s11.666 -91.167 30.999 -132.5c16.667 -34.667 40 -63.834 70 -87.501s63.667 -38.667 101 -45s75.666 -4.83301 114.999 4.5s78.333 30.5 117 63.5s72.334 75.833 101.001 128.5c12.667 23.333 21 58.5 25 105.5s4.33301 96.5 1 148.5s-9.33301 106.333 -18 163
c-2 15.333 0.666992 29.333 8 42z" />
    <glyph glyph-name="acircumflex" unicode="&#xe2;" 
d="M193 1221c57.333 140 117.331 271.003 179.998 393.003c10.667 21.333 28.667 36.666 54 45.999s51.333 9.66602 78 0.999023s47.334 -25.667 62.001 -51c54.667 -97.333 116 -230 184 -398c4.66699 -10.667 4.5 -22.167 -0.5 -34.5s-12.833 -22.333 -23.5 -30
s-22.167 -13.167 -34.5 -16.5s-24.666 -1.66602 -36.999 5.00098s-21.5 18 -27.5 34c-44.667 113.333 -97.667 230.666 -159 351.999c-25.333 -44.667 -49.5 -91.5 -72.5 -140.5s-38.833 -84.667 -47.5 -107l-40 -101.5c-6.66699 -16 -16.167 -27.833 -28.5 -35.5
s-24.5 -10.334 -36.5 -8.00098s-23.333 7.33301 -34 15s-17.667 18.5 -21 32.5s-2 28.667 4 44zM773.998 223.003c-36 -63.333 -78.835 -114.169 -128.502 -152.502s-99.5 -62.666 -149.5 -72.999s-100.667 -11.333 -152 -3s-97.666 24.666 -138.999 48.999
s-76.833 54.5 -106.5 90.5s-49.167 74.667 -58.5 116c-12.667 64.667 -17 127.5 -13 188.5s17.667 119.5 41 175.5s53.333 106.667 90 152s81.167 84.666 133.5 117.999s109.166 57.333 170.499 72c40.667 10 77.5 15.667 110.5 17s61 -0.666992 84 -6s43.333 -14 61 -26
s31.834 -25.5 42.501 -40.5s20 -32.5 28 -52.5c6.66699 -15.333 4.66699 -31 -6 -47c18.667 -7.33301 28.667 -23 30 -47c6 -91.333 11.667 -162.5 17 -213.5s13.833 -101.167 25.5 -150.5s26.5 -92.166 44.5 -128.499s42.333 -77.5 73 -123.5c16 -22.667 21 -53 15 -91
c-4.66699 -33.333 -15.667 -50.333 -33 -51c-5.33301 0 -10.666 1.33301 -15.999 4c-31.333 16.667 -58 40.834 -80 72.501s-50 81.834 -84 150.501zM701.996 770c-9.33301 2.66699 -17.166 7.33496 -23.499 14.002s-12.166 13.667 -17.499 21s-12.5 14.333 -21.5 21
s-23.5 12 -43.5 16s-45.333 5 -76 3c-34 -1.33301 -69.167 -11.333 -105.5 -30s-70.333 -42.834 -102 -72.501s-60 -64.5 -85 -104.5s-44.333 -81.333 -58 -124s-19.834 -87.5 -18.501 -134.5s11.666 -91.167 30.999 -132.5c16.667 -34.667 40 -63.834 70 -87.501
s63.667 -38.667 101 -45s75.666 -4.83301 114.999 4.5s78.333 30.5 117 63.5s72.334 75.833 101.001 128.5c12.667 23.333 21 58.5 25 105.5s4.33301 96.5 1 148.5s-9.33301 106.333 -18 163c-2 15.333 0.666992 29.333 8 42z" />
    <glyph glyph-name="atilde" unicode="&#xe3;" 
d="M902 1280c-14 -24 -30.501 -45.834 -49.501 -65.501s-43.167 -36.667 -72.5 -51s-60.666 -23 -93.999 -26s-72.333 2.33301 -117 16s-90.667 36.834 -138 69.501c-30.667 20.667 -58.334 35.667 -83.001 45s-49.334 13.333 -74.001 12s-48.5 -11.166 -71.5 -29.499
s-44.833 -45.5 -65.5 -81.5c-18 -30.667 -40.333 -40.334 -67 -29.001c-23.333 10 -38.333 30.333 -45 61c-5.33301 26.667 -1 53 13 79c10.667 19.333 24.834 38.166 42.501 56.499s39.834 34.833 66.501 49.5s55 24.667 85 30s63.833 3.33301 101.5 -6
s75.167 -26.666 112.5 -51.999c14 -10 25.667 -18 35 -24l37.5 -23c15.667 -9.33301 29.5 -16.333 41.5 -21s26.167 -9.16699 42.5 -13.5s31 -6.33301 44 -6s27.5 2.5 43.5 6.5s30.667 10.833 44 20.5s27 22.5 41 38.5s27.333 35.333 40 58
c13.333 24.667 32.333 33.334 57 26.001c22.667 -6.66699 37.667 -23.334 45 -50.001c8 -28 3 -58 -15 -90zM773.999 222.999c-36 -63.333 -78.835 -114.169 -128.502 -152.502s-99.5 -62.666 -149.5 -72.999s-100.667 -11.333 -152 -3s-97.666 24.666 -138.999 48.999
s-76.833 54.5 -106.5 90.5s-49.167 74.667 -58.5 116c-12.667 64.667 -17 127.5 -13 188.5s17.667 119.5 41 175.5s53.333 106.667 90 152s81.167 84.666 133.5 117.999s109.166 57.333 170.499 72c40.667 10 77.5 15.667 110.5 17s61 -0.666992 84 -6s43.333 -14 61 -26
s31.834 -25.5 42.501 -40.5s20 -32.5 28 -52.5c6.66699 -15.333 4.66699 -31 -6 -47c18.667 -7.33301 28.667 -23 30 -47c6 -91.333 11.667 -162.5 17 -213.5s13.833 -101.167 25.5 -150.5s26.5 -92.166 44.5 -128.499s42.333 -77.5 73 -123.5c16 -22.667 21 -53 15 -91
c-4.66699 -33.333 -15.667 -50.333 -33 -51c-5.33301 0 -10.666 1.33301 -15.999 4c-31.333 16.667 -58 40.834 -80 72.501s-50 81.834 -84 150.501zM701.997 769.996c-9.33301 2.66699 -17.166 7.33496 -23.499 14.002s-12.166 13.667 -17.499 21s-12.5 14.333 -21.5 21
s-23.5 12 -43.5 16s-45.333 5 -76 3c-34 -1.33301 -69.167 -11.333 -105.5 -30s-70.333 -42.834 -102 -72.501s-60 -64.5 -85 -104.5s-44.333 -81.333 -58 -124s-19.834 -87.5 -18.501 -134.5s11.666 -91.167 30.999 -132.5c16.667 -34.667 40 -63.834 70 -87.501
s63.667 -38.667 101 -45s75.666 -4.83301 114.999 4.5s78.333 30.5 117 63.5s72.334 75.833 101.001 128.5c12.667 23.333 21 58.5 25 105.5s4.33301 96.5 1 148.5s-9.33301 106.333 -18 163c-2 15.333 0.666992 29.333 8 42z" />
    <glyph glyph-name="adieresis" unicode="&#xe4;" 
d="M518 1253c1.33301 12.667 7.00391 24.1699 17.0039 34.5029s21.667 17.666 35 21.999s27.166 5.66602 41.499 3.99902s25.833 -7.16699 34.5 -16.5c14 -14.667 23.333 -33.334 28 -56.001s3.16699 -44 -4.5 -64s-20.834 -33.333 -39.501 -40
c-28.667 -9.33301 -55.334 -0.333008 -80.001 27s-35.334 57 -32.001 89zM255.004 1249c1.33301 12.667 7.00195 24.001 17.002 34.001s21.667 17.333 35 22s27.166 6.16699 41.499 4.5s25.833 -7.16699 34.5 -16.5c14.667 -14.667 24.334 -33.334 29.001 -56.001
s3 -44 -5 -64s-21.333 -33.333 -40 -40c-28.667 -10 -55.334 -1.33301 -80.001 26s-35.334 57.333 -32.001 90zM774.006 223.004c-36 -63.333 -78.835 -114.169 -128.502 -152.502s-99.5 -62.666 -149.5 -72.999s-100.667 -11.333 -152 -3s-97.666 24.666 -138.999 48.999
s-76.833 54.5 -106.5 90.5s-49.167 74.667 -58.5 116c-12.667 64.667 -17 127.5 -13 188.5s17.667 119.5 41 175.5s53.333 106.667 90 152s81.167 84.666 133.5 117.999s109.166 57.333 170.499 72c40.667 10 77.5 15.667 110.5 17s61 -0.666992 84 -6s43.333 -14 61 -26
s31.834 -25.5 42.501 -40.5s20 -32.5 28 -52.5c6.66699 -15.333 4.66699 -31 -6 -47c18.667 -7.33301 28.667 -23 30 -47c6 -91.333 11.667 -162.5 17 -213.5s13.833 -101.167 25.5 -150.5s26.5 -92.166 44.5 -128.499s42.333 -77.5 73 -123.5c16 -22.667 21 -53 15 -91
c-4.66699 -33.333 -15.667 -50.333 -33 -51c-5.33301 0 -10.666 1.33301 -15.999 4c-31.333 16.667 -58 40.834 -80 72.501s-50 81.834 -84 150.501zM702.004 770.001c-9.33301 2.66699 -17.166 7.33496 -23.499 14.002s-12.166 13.667 -17.499 21s-12.5 14.333 -21.5 21
s-23.5 12 -43.5 16s-45.333 5 -76 3c-34 -1.33301 -69.167 -11.333 -105.5 -30s-70.333 -42.834 -102 -72.501s-60 -64.5 -85 -104.5s-44.333 -81.333 -58 -124s-19.834 -87.5 -18.501 -134.5s11.666 -91.167 30.999 -132.5c16.667 -34.667 40 -63.834 70 -87.501
s63.667 -38.667 101 -45s75.666 -4.83301 114.999 4.5s78.333 30.5 117 63.5s72.334 75.833 101.001 128.5c12.667 23.333 21 58.5 25 105.5s4.33301 96.5 1 148.5s-9.33301 106.333 -18 163c-2 15.333 0.666992 29.333 8 42z" />
    <glyph glyph-name="aring" unicode="&#xe5;" 
d="M397 1392c-21.333 -16 -35.8311 -35.999 -43.498 -59.999s-9.16699 -47 -4.5 -69s14.667 -41.833 30 -59.5s34 -28.834 56 -33.501c37.333 -8 71.666 -1.33301 102.999 20s49.666 52.666 54.999 93.999c2.66699 23.333 -2.5 45.333 -15.5 66s-29.5 36.334 -49.5 47.001
s-42.333 16 -67 16s-46 -7 -64 -21zM243.002 1370c8.66699 42 30.168 76.333 64.501 103s72.333 43.167 114 49.5s84.334 3.33301 128.001 -9s78.834 -33.5 105.501 -63.5c26 -30 41.667 -66.667 47 -110s1.66602 -84.833 -11.001 -124.5s-33.834 -75.167 -63.501 -106.5
s-63.834 -51 -102.501 -59c-40.667 -7.33301 -80.334 -5.33301 -119.001 6s-72.167 30.333 -100.5 57s-48.666 62.667 -60.999 108s-12.833 95 -1.5 149zM774.003 223.001c-36 -63.333 -78.835 -114.169 -128.502 -152.502s-99.5 -62.666 -149.5 -72.999
s-100.667 -11.333 -152 -3s-97.666 24.666 -138.999 48.999s-76.833 54.5 -106.5 90.5s-49.167 74.667 -58.5 116c-12.667 64.667 -17 127.5 -13 188.5s17.667 119.5 41 175.5s53.333 106.667 90 152s81.167 84.666 133.5 117.999s109.166 57.333 170.499 72
c40.667 10 77.5 15.667 110.5 17s61 -0.666992 84 -6s43.333 -14 61 -26s31.834 -25.5 42.501 -40.5s20 -32.5 28 -52.5c6.66699 -15.333 4.66699 -31 -6 -47c18.667 -7.33301 28.667 -23 30 -47c6 -91.333 11.667 -162.5 17 -213.5s13.833 -101.167 25.5 -150.5
s26.5 -92.166 44.5 -128.499s42.333 -77.5 73 -123.5c16 -22.667 21 -53 15 -91c-4.66699 -33.333 -15.667 -50.333 -33 -51c-5.33301 0 -10.666 1.33301 -15.999 4c-31.333 16.667 -58 40.834 -80 72.501s-50 81.834 -84 150.501zM702.001 769.998
c-9.33301 2.66699 -17.166 7.33496 -23.499 14.002s-12.166 13.667 -17.499 21s-12.5 14.333 -21.5 21s-23.5 12 -43.5 16s-45.333 5 -76 3c-34 -1.33301 -69.167 -11.333 -105.5 -30s-70.333 -42.834 -102 -72.501s-60 -64.5 -85 -104.5s-44.333 -81.333 -58 -124
s-19.834 -87.5 -18.501 -134.5s11.666 -91.167 30.999 -132.5c16.667 -34.667 40 -63.834 70 -87.501s63.667 -38.667 101 -45s75.666 -4.83301 114.999 4.5s78.333 30.5 117 63.5s72.334 75.833 101.001 128.5c12.667 23.333 21 58.5 25 105.5s4.33301 96.5 1 148.5
s-9.33301 106.333 -18 163c-2 15.333 0.666992 29.333 8 42z" />
    <glyph glyph-name="ae" unicode="&#xe6;" horiz-adv-x="1527" 
d="M697 489c-10.667 6.66699 -19.999 11.3311 -27.999 13.998s-22.667 3.83398 -44 3.50098s-49 -3.5 -83 -9.5c-23.333 -4 -48.833 -10 -76.5 -18s-58 -18.5 -91 -31.5s-63.667 -28.667 -92 -47s-53.833 -38.666 -76.5 -60.999s-39 -48.166 -49 -77.499s-11.333 -60 -4 -92
c7.33301 -31.333 25.666 -55.5 54.999 -72.5s65 -25.833 107 -26.5s86.5 3.83301 133.5 13.5s93.667 25.667 140 48s86.5 48.166 120.5 77.499c-1.33301 25.333 -3.33301 57 -6 95s-4.5 70.5 -5.5 97.5s-1.16699 55.833 -0.5 86.5zM820.001 123.997
c-58.667 -44.667 -119.491 -81.333 -182.491 -110s-122.167 -48.167 -177.5 -58.5s-108.5 -13.666 -159.5 -9.99902s-95.333 14.167 -133 31.5s-68.834 40.666 -93.501 69.999s-39.667 63 -45 101c-6 39.333 -5.5 76.833 1.5 112.5s18.333 67.167 34 94.5
s35.834 53.166 60.501 77.499s50.334 45.166 77.001 62.499s56.5 33.666 89.5 48.999s63.833 27.833 92.5 37.5s58.667 18.834 90 27.501c82.667 22.667 160 28.667 232 18c0 6.66699 0.5 27.334 1.5 62.001s1.5 55.667 1.5 63c1.33301 65.333 -26.334 108.5 -83.001 129.5
s-126.834 17.167 -210.501 -11.5s-161.167 -76.667 -232.5 -144c-23.333 -22 -45 -24.333 -65 -7c-18.667 16 -25.334 38.333 -20.001 67c4 21.333 15 40 33 56c83.333 74.667 184.166 125 302.499 151s217.5 19 297.5 -21c53.333 -26.667 85.333 -77 96 -151
c25.333 31.333 54 58.666 86 81.999s64.5 41.166 97.5 53.499s67 21.166 102 26.499s68.833 6.33301 101.5 3s64.167 -9.16602 94.5 -17.499s57.833 -20.166 82.5 -35.499s45.834 -32.333 63.501 -51s30.667 -40 39 -64s11.166 -48.667 8.49902 -74
c-4.66699 -39.333 -17.334 -74.333 -38.001 -105s-47.5 -55.667 -80.5 -75s-70 -35.333 -111 -48s-86.333 -21.5 -136 -26.5s-99.167 -7.5 -148.5 -7.5s-100.666 2 -153.999 6c-2.66699 -65.333 8.5 -126.833 33.5 -184.5s65.167 -105.5 120.5 -143.5
c34 -23.333 70.167 -37.666 108.5 -42.999s75.333 -2.5 111 8.5s68.667 25.167 99 42.5s58.833 38 85.5 62c14 13.333 29.167 19.833 45.5 19.5s29.166 -5.83301 38.499 -16.5s14.666 -23.667 15.999 -39s-5.33398 -32 -20.001 -50c-32 -37.333 -75.333 -69.833 -130 -97.5
s-115.834 -45.5 -183.501 -53.5s-133.834 3 -198.501 33c-62.667 28.667 -109.334 61.334 -140.001 98.001zM852.01 600.998c59.333 -7.33301 118.668 -9.83105 178.001 -7.49805s113.333 8.16602 162 17.499s90.167 25 124.5 47s56.166 48.667 65.499 80
c5.33301 21.333 0.5 41.833 -14.5 61.5s-37.333 35.667 -67 48s-62.167 20.833 -97.5 25.5s-72.333 2.66699 -111 -6s-72.667 -24.334 -102 -47.001c-31.333 -23.333 -59 -54.333 -83 -93s-42.333 -80.667 -55 -126z" />
    <glyph glyph-name="ccedilla" unicode="&#xe7;" horiz-adv-x="916" 
d="M722 768c-14.667 0 -26.332 2.83691 -34.999 8.50391s-15.667 12.667 -21 21s-12.166 16.333 -20.499 24s-23 14 -44 19s-48.167 6.5 -81.5 4.5c-34 -1.33301 -69.333 -11.333 -106 -30s-70.834 -42.834 -102.501 -72.501s-60 -64.667 -85 -105
s-44.333 -81.833 -58 -124.5s-19.834 -87.334 -18.501 -134.001s12 -90.667 32 -132c18 -36 44 -66 78 -90s73.167 -39 117.5 -45s90.166 -3.66699 137.499 7s95.666 34.334 144.999 71.001s93.333 83.667 132 141c16.667 24 37.334 27.333 62.001 10
c21.333 -15.333 33.333 -35.333 36 -60c1.33301 -14.667 -2 -27 -10 -37c-102.667 -134.667 -221.334 -216.334 -356.001 -245.001c3.33301 -50 5 -78.667 5 -86c22 5.33301 43.667 9 65 11s44.333 2.16699 69 0.5s47 -8.33398 67 -20.001s35 -27.834 45 -48.501
c18 -36.667 28.167 -74.834 30.5 -114.501s-5.16699 -76.667 -22.5 -111s-43.666 -58.5 -78.999 -72.5c-78.667 -29.333 -155.5 -34 -230.5 -14s-136.5 59 -184.5 117c-13.333 16.667 -16.333 33 -9 49c7.33301 14.667 18.666 17 33.999 7l2 -2
c26 -20.667 54 -37.5 84 -50.5s58.833 -21.667 86.5 -26s54 -5.83301 79 -4.5s47.167 5.33301 66.5 12c28 9.33301 48.167 28.333 60.5 57s10.166 54.334 -6.50098 77.001c-12 16 -26.833 26.333 -44.5 31s-35.667 5 -54 1s-39.833 -11.333 -64.5 -22
c-22 -10 -45.167 -9.33301 -69.5 2s-38.166 28.666 -41.499 51.999c-3.33301 32.667 -3.66602 80.667 -0.999023 144c-91.333 2.66699 -172 29.334 -242 80.001s-113 111.334 -129 182.001c-12.667 64.667 -17 127.5 -13 188.5s17.667 119.5 41 175.5s53.333 106.667 90 152
s81.167 84.666 133.5 117.999s109.166 57.333 170.499 72c40.667 10 77.5 15.667 110.5 17s61 -0.666992 84 -6s43.333 -14 61 -26s31.834 -25.5 42.501 -40.5s20 -32.5 28 -52.5c8 -18 4.33301 -35.833 -11 -53.5s-33.666 -26.5 -54.999 -26.5z" />
    <glyph glyph-name="egrave" unicode="&#xe8;" horiz-adv-x="947" 
d="M315 1372c-10 9.33301 -15.833 20.833 -17.5 34.5s0.5 26.334 6.5 38.001s14 21.667 24 30s22.167 12.166 36.5 11.499s28.5 -6.66699 42.5 -18c62.667 -50.667 119.5 -92.5 170.5 -125.5s110.167 -66.5 177.5 -100.5c21.333 -14.667 32.5 -34.167 33.5 -58.5
s-9.33301 -44.833 -31 -61.5s-45.834 -18 -72.501 -4l-123 70c-30.667 18 -69.167 43.667 -115.5 77s-90.166 69 -131.499 107zM130 504l-43.0039 5.99707c-28 4.66699 -47 18.5 -57 41.5s-7.83301 43.5 6.5 61.5s36.5 23.667 66.5 17
c14.667 -3.33301 29.667 -6.33301 45 -9c16.667 66.667 43.667 126.334 81 179.001c24.667 34.667 53 65 85 91s64.833 46 98.5 60s68.5 24.5 104.5 31.5s70.833 9.16699 104.5 6.5s66.334 -8 98.001 -16s60.334 -19.667 86.001 -35s47.667 -32.5 66 -51.5
s32 -40.667 41 -65s11.833 -49.5 8.5 -75.5c-4.66699 -39.333 -17.167 -74.333 -37.5 -105s-47.166 -55.667 -80.499 -75s-70.333 -35.333 -111 -48s-85.834 -21.5 -135.501 -26.5s-99.167 -7.66699 -148.5 -8s-100.666 1.83398 -153.999 6.50098
c-3.33301 -66 7.5 -127.833 32.5 -185.5s65.167 -105.167 120.5 -142.5c34.667 -23.333 71.167 -37.666 109.5 -42.999s75.333 -2.5 111 8.5s68.5 25.167 98.5 42.5s58.333 38 85 62c14.667 13.333 30.167 19.833 46.5 19.5s29 -5.83301 38 -16.5s14.333 -23.834 16 -39.501
s-5.16602 -32.167 -20.499 -49.5c-32 -37.333 -75.167 -69.833 -129.5 -97.5s-115.5 -45.5 -183.5 -53.5s-134.333 3 -199 33c-56.667 26.667 -104.667 65.334 -144 116.001s-67.5 106.667 -84.5 168s-23.833 125.333 -20.5 192zM270.996 602.997
c59.333 -8 118.83 -10.666 178.497 -7.99902s113.834 8.66699 162.501 18s90.167 25 124.5 47s55.833 48.667 64.5 80c6 20.667 1.33301 41 -14 61s-37.666 36.167 -66.999 48.5s-61.666 20.833 -96.999 25.5s-72.5 2.66699 -111.5 -6s-73.167 -24.334 -102.5 -47.001
c-30.667 -23.333 -58 -54.333 -82 -93s-42.667 -80.667 -56 -126z" />
    </font>
</defs>
</svg>
